SplineFontDB: 3.0
FontName: Nunito-Bold
FullName: Nunito Bold
FamilyName: Nunito
Weight: Bold
Copyright: Digitized data Copyright (c) 2011-2013, vernon adams.
Version: 2.0
ItalicAngle: 0
UnderlinePosition: 0
UnderlineWidth: 0
Ascent: 1638
Descent: 410
UFOAscent: 2030
UFODescent: -675
LayerCount: 2
Layer: 0 0 "Back"  1
Layer: 1 0 "Fore"  0
FSType: 0
OS2Version: 0
OS2_WeightWidthSlopeOnly: 0
OS2_UseTypoMetrics: 1
CreationTime: 1393442199
ModificationTime: 1393442545
PfmFamily: 17
TTFWeight: 700
TTFWidth: 5
LineGap: 0
VLineGap: 0
OS2TypoAscent: 1999
OS2TypoAOffset: 0
OS2TypoDescent: 572
OS2TypoDOffset: 0
OS2TypoLinegap: 0
OS2WinAscent: 1999
OS2WinAOffset: 0
OS2WinDescent: -572
OS2WinDOffset: 0
HheadAscent: 1999
HheadAOffset: 0
HheadDescent: -572
HheadDOffset: 0
OS2Vendor: 'NeWT'
Lookup: 258 0 0 "kernHorizontalKerninglookup0"  {"kernHorizontalKerninglookup0 subtable"  } ['kern' ('DFLT' <'dflt' > ) ]
Lookup: 258 0 0 "kernHorizontalKerninginLatinloo"  {"kernHorizontalKerninginLatinloo subtable"  } ['kern' ('latn' <'dflt' > ) ]
MarkAttachClasses: 1
DEI: 91125
LangName: 1033 "" "" "" "" "" "Version 2.0" "" "Nunito is a trademark of Vernon Adams and may be registered in certain jurisdictions." "newtypography" "Vernon Adams" "" "newtypography.co.uk" "newtypography.co.uk" "Copyright (c) 2013, vernon adams.+AAoACgAA-This Font Software is licensed under the SIL Open Font License, Version 1.1.+AAoA-This license is copied below, and is also available with a FAQ at:+AAoA-http://scripts.sil.org/OFL+AAoA" "http://scripts.sil.org/OFL" "" "" "" "Nunito-Bold" 
PickledData: "(dp1
S'com.typemytype.robofont.foreground.layerStrokeColor'
p2
(F0.5
I0
F0.5
F0.69999999999999996
tp3
sS'com.typemytype.robofont.guides'
p4
((dp5
S'angle'
p6
I0
sS'name'
p7
NsS'magnetic'
p8
I5
sS'isGlobal'
p9
I1
sS'y'
I1013
sS'x'
I587
s(dp10
g6
I0
sg7
Nsg8
I5
sg9
I1
sS'y'
I903
sS'x'
I595
s(dp11
g6
I0
sg7
Nsg8
I5
sg9
I1
sS'y'
I120
sS'x'
I780
s(dp12
g6
I0
sg7
Nsg8
I5
sg9
I1
sS'y'
S'-22'
p13
sS'x'
I907
s(dp14
g6
I0
sg7

StartChar: A
Encoding: 65 65 0
Width: 1468
VWidth: 0
GlyphClass: 2
Flags: W
PickledData: "(dp1
S'b'
(dp2
sS'anchors'
p3
(tsS'lib'
p4
(dp5
sS'unicodes'
p6
(tsS'y'
I1232
sS'width'
p7
I1445
sS'points'
p8
(dp9
sS'contours'
p10
(dp11
sS'components'
p12
(tsS'segmentType'
p13
S'line'
p14
sS'x'
I718
sS'com.typemytype.robofont.layerData'
p15
(dp16
S'b'
(dp17
S'name'
p18
S'A'
sg4
(dp19
sg6
(tsg7
I1414
sg10
((dp20
g8
((dp21
g13
S'line'
p22
sS'x'
I403
sS'smooth'
p23
I0
sS'y'
I502
s(dp24
g13
S'line'
p25
sS'x'
I703
sg23
I0
sS'y'
I1275
s(dp26
g13
S'line'
p27
sS'x'
I705
sg23
I0
sS'y'
I1275
s(dp28
g13
S'line'
p29
sS'x'
I1004
sg23
I0
sS'y'
I502
stp30
s(dp31
g8
((dp32
g13
S'curve'
p33
sS'x'
I150
sg23
I1
sS'y'
I0
s(dp34
S'y'
I0
sS'x'
I181
sg23
I0
s(dp35
S'y'
I15
sS'x'
I214
sg23
I0
s(dp36
g13
S'curve'
p37
sS'x'
I229
sg23
I1
sS'y'
I53
s(dp38
g13
S'line'
p39
sS'x'
I356
sg23
I0
sS'y'
I373
s(dp40
g13
S'line'
p41
sS'x'
I1051
sg23
I0
sS'y'
I373
s(dp42
g13
S'line'
p43
sS'x'
I1179
sg23
I1
sS'y'
I53
s(dp44
S'y'
I17
sS'x'
I1193
sg23
I0
s(dp45
S'y'
I0
sS'x'
I1228
sg23
I0
s(dp46
g13
S'curve'
p47
sS'x'
I1260
sg23
I1
sS'y'
I0
s(dp48
S'y'
I0
sS'x'
I1306
sg23
I0
s(dp49
S'y'
I31
sS'x'
I1354
sg23
I0
s(dp50
g13
S'curve'
p51
sS'x'
I1354
sg23
I1
sS'y'
I80
s(dp52
S'y'
I87
sS'x'
I1354
sg23
I0
s(dp53
S'y'
I97
sS'x'
I1352
sg23
I0
s(dp54
g13
S'curve'
p55
sS'x'
I1349
sg23
I0
sS'y'
I108
s(dp56
g13
S'line'
p57
sS'x'
I871
sg23
I1
sS'y'
I1288
s(dp58
S'y'
I1420
sS'x'
I817
sg23
I0
s(dp59
S'y'
I1430
sS'x'
I777
sg23
I0
s(dp60
g13
S'curve'
p61
sS'x'
I710
sg23
I1
sS'y'
I1430
s(dp62
S'y'
I1430
sS'x'
I644
sg23
I0
s(dp63
S'y'
I1413
sS'x'
I596
sg23
I0
s(dp64
g13
S'curve'
p65
sS'x'
I542
sg23
I1
sS'y'
I1280
s(dp66
g13
S'line'
p67
sS'x'
I66
sg23
I1
sS'y'
I108
s(dp68
S'y'
I97
sS'x'
I62
sg23
I0
s(dp69
S'y'
I87
sS'x'
I60
sg23
I0
s(dp70
g13
S'curve'
p71
sS'x'
I60
sg23
I1
sS'y'
I78
s(dp72
S'y'
I32
sS'x'
I60
sg23
I0
s(dp73
S'y'
I0
sS'x'
I106
sg23
I0
stp74
stp75
sg12
(tsg3
(tsssg18
S'A'
s."
AnchorPoint: "ogonek" 1266 19 basechar 0
AnchorPoint: "top" 733 1438 basechar 0
LayerCount: 2
Fore
SplineSet
983 525 m 257
 489 525 l 257
 736 1184 l 257
 983 525 l 257
1145 92 m 257
 1169 23 1222 -6 1275 -6 c 256
 1344 -6 1413 45 1413 121 c 256
 1413 137 1410 154 1403 172 c 258
 964 1271 l 257
 903 1432 825 1458 736 1458 c 256
 647 1458 569 1432 508 1271 c 257
 69 172 l 258
 62 154 59 137 59 121 c 256
 59 45 128 -6 197 -6 c 256
 250 -6 303 23 327 92 c 257
 417 332 l 257
 1055 332 l 257
 1145 92 l 257
EndSplineSet
EndChar

StartChar: AE
Encoding: 198 198 1
Width: 1979
VWidth: 0
GlyphClass: 2
Flags: W
PickledData: "(dp1
S'com.typemytype.robofont.layerData'
p2
(dp3
S'b'
(dp4
S'name'
p5
S'AE'
p6
sS'lib'
p7
(dp8
sS'unicodes'
p9
(tsS'width'
p10
I1976
sS'contours'
p11
(tsS'components'
p12
(tsS'anchors'
p13
(tsss."
AnchorPoint: "top" 1300 1441 basechar 0
LayerCount: 2
Fore
SplineSet
1264 0 m 258
 1832 0 l 257
 1904 2 1940 40 1940 99 c 256
 1940 169 1900 216 1817 216 c 258
 1385 216 l 257
 1318 629 l 257
 1785 629 l 258
 1859 629 1892 668 1892 730 c 256
 1892 798 1845 845 1770 845 c 258
 1291 845 l 257
 1231 1226 l 257
 1817 1226 l 258
 1891 1226 1927 1265 1927 1327 c 256
 1927 1393 1879 1442 1804 1442 c 258
 987 1441 l 258
 863 1441 782 1383 682 1175 c 257
 83 194 l 257
 68 163 58 130 58 104 c 256
 58 39 112 1 172 1 c 256
 230 1 282 39 317 112 c 257
 469 346 l 257
 1085 346 l 257
 1124 125 l 257
 1135 33 1192 0 1264 0 c 258
555 526 m 257
 958 1268 l 257
 961 1268 l 257
 1064 526 l 257
 555 526 l 257
EndSplineSet
EndChar

StartChar: B
Encoding: 66 66 13
Width: 1390
VWidth: 0
GlyphClass: 2
Flags: W
PickledData: "(dp1
S'b'
(dp2
sS'anchors'
p3
(tsS'lib'
p4
(dp5
sS'unicodes'
p6
(tsS'y'
I1260
sS'width'
p7
I1395
sS'points'
p8
(dp9
sS'contours'
p10
(dp11
sS'components'
p12
(tsS'segmentType'
p13
S'curve'
p14
sS'x'
I676
sS'com.typemytype.robofont.layerData'
p15
(dp16
S'b'
(dp17
S'name'
p18
S'B'
sg4
(dp19
sg6
(tsg7
I1292
sg10
((dp20
g8
((dp21
g13
S'curve'
p22
sS'x'
I266
sS'smooth'
p23
I1
sS'y'
I0
s(dp24
g13
S'line'
p25
sS'x'
I1035
sg23
I1
sS'y'
I0
s(dp26
S'y'
I0
sS'x'
I1084
sg23
I0
s(dp27
S'y'
I36
sS'x'
I1108
sg23
I0
s(dp28
g13
S'curve'
p29
sS'x'
I1108
sg23
I1
sS'y'
I73
s(dp30
S'y'
I109
sS'x'
I1108
sg23
I0
s(dp31
S'y'
I145
sS'x'
I1084
sg23
I0
s(dp32
g13
S'curve'
p33
sS'x'
I1035
sg23
I1
sS'y'
I145
s(dp34
g13
S'line'
p35
sS'x'
I353
sg23
I0
sS'y'
I145
s(dp36
g13
S'line'
p37
sS'x'
I353
sg23
I0
sS'y'
I662
s(dp38
g13
S'line'
p39
sS'x'
I975
sg23
I1
sS'y'
I662
s(dp40
S'y'
I662
sS'x'
I1024
sg23
I0
s(dp41
S'y'
I698
sS'x'
I1049
sg23
I0
s(dp42
g13
S'curve'
p43
sS'x'
I1049
sg23
I1
sS'y'
I734
s(dp44
S'y'
I770
sS'x'
I1049
sg23
I0
s(dp45
S'y'
I806
sS'x'
I1026
sg23
I0
s(dp46
g13
S'curve'
p47
sS'x'
I975
sg23
I1
sS'y'
I806
s(dp48
g13
S'line'
p49
sS'x'
I353
sg23
I0
sS'y'
I806
s(dp50
g13
S'line'
p51
sS'x'
I353
sg23
I0
sS'y'
I1281
s(dp52
g13
S'line'
p53
sS'x'
I1007
sg23
I1
sS'y'
I1281
s(dp54
S'y'
I1281
sS'x'
I1056
sg23
I0
s(dp55
S'y'
I1317
sS'x'
I1080
sg23
I0
s(dp56
g13
S'curve'
p57
sS'x'
I1080
sg23
I1
sS'y'
I1354
s(dp58
S'y'
I1390
sS'x'
I1080
sg23
I0
s(dp59
S'y'
I1426
sS'x'
I1056
sg23
I0
s(dp60
g13
S'curve'
p61
sS'x'
I1007
sg23
I1
sS'y'
I1426
s(dp62
g13
S'line'
p63
sS'x'
I261
sg23
I1
sS'y'
I1426
s(dp64
S'y'
I1426
sS'x'
I213
sg23
I0
s(dp65
S'y'
I1383
sS'x'
I178
sg23
I0
s(dp66
g13
S'curve'
p67
sS'x'
I178
sg23
I1
sS'y'
I1340
s(dp68
g13
S'line'
p69
sS'x'
I178
sg23
I1
sS'y'
I86
s(dp70
S'y'
I41
sS'x'
I178
sg23
I0
s(dp71
S'y'
I0
sS'x'
I222
sg23
I0
stp72
stp73
sg12
(tsg3
(tsssg18
S'B'
s."
AnchorPoint: "top" 674 1438 basechar 0
LayerCount: 2
Fore
SplineSet
318 0 m 258
 777 0 l 258
 1122 0 1298 194 1298 389 c 256
 1298 599 1169 720 969 749 c 257
 969 753 l 257
 1149 786 1237 913 1237 1086 c 256
 1237 1339 1047 1442 723 1442 c 258
 318 1442 l 258
 236 1442 168 1387 168 1300 c 258
 168 166 l 258
 168 51 230 0 318 0 c 258
452 211 m 257
 452 639 l 257
 645 639 l 258
 874 639 1004 612 1004 423 c 256
 1004 241 899 211 706 211 c 258
 452 211 l 257
452 836 m 257
 452 1232 l 257
 700 1232 l 258
 856 1232 961 1210 961 1051 c 256
 961 888 876 836 674 836 c 258
 452 836 l 257
EndSplineSet
EndChar

StartChar: C
Encoding: 67 67 14
Width: 1364
VWidth: 0
GlyphClass: 2
Flags: W
PickledData: "(dp1
S'b'
(dp2
sS'anchors'
p3
(tsS'lib'
p4
(dp5
sS'unicodes'
p6
(tsS'width'
p7
I1354
sS'contours'
p8
(tsS'components'
p9
(tsS'com.typemytype.robofont.layerData'
p10
(dp11
S'b'
(dp12
S'name'
p13
S'C'
sg4
(dp14
sg6
(tsg7
F1353.8900000000001
sg8
(tsg9
(tsg3
(tsssg13
S'C'
s."
AnchorPoint: "bot" 783 0 basechar 0
AnchorPoint: "top" 792 1438 basechar 0
LayerCount: 2
Fore
SplineSet
794 -26 m 256
 993 -26 1118 22 1221 91 c 256
 1261 119 1277 156 1277 192 c 256
 1277 250 1234 304 1179 304 c 256
 1165 304 1152 301 1137 293 c 256
 1056 249 958 206 839 206 c 256
 560 206 410 395 410 727 c 256
 410 1085 569 1250 833 1250 c 256
 970 1250 1057 1200 1114 1177 c 256
 1127 1172 1139 1169 1152 1169 c 256
 1212 1169 1263 1226 1263 1287 c 256
 1263 1325 1243 1364 1194 1391 c 257
 1084 1446 963 1483 819 1483 c 256
 412 1483 108 1193 108 720 c 256
 108 266 400 -26 794 -26 c 256
EndSplineSet
EndChar

StartChar: D
Encoding: 68 68 20
Width: 1537
VWidth: 0
GlyphClass: 2
Flags: W
PickledData: "(dp1
S'b'
(dp2
sS'anchors'
p3
(tsS'lib'
p4
(dp5
sS'unicodes'
p6
(tsS'width'
p7
I1535
sS'contours'
p8
(tsS'components'
p9
(tsS'com.typemytype.robofont.layerData'
p10
(dp11
S'b'
(dp12
S'name'
p13
S'D'
sg4
(dp14
sg6
(tsg7
I1499
sg8
((dp15
S'points'
p16
((dp17
S'segmentType'
p18
S'curve'
p19
sS'x'
I266
sS'smooth'
p20
I1
sS'y'
I0
s(dp21
g18
S'line'
p22
sS'x'
I1035
sg20
I1
sS'y'
I0
s(dp23
S'y'
I0
sS'x'
I1084
sg20
I0
s(dp24
S'y'
I34
sS'x'
I1108
sg20
I0
s(dp25
g18
S'curve'
p26
sS'x'
I1108
sg20
I1
sS'y'
I71
s(dp27
S'y'
I107
sS'x'
I1108
sg20
I0
s(dp28
S'y'
I141
sS'x'
I1084
sg20
I0
s(dp29
g18
S'curve'
p30
sS'x'
I1035
sg20
I1
sS'y'
I141
s(dp31
g18
S'line'
p32
sS'x'
I356
sg20
I0
sS'y'
I141
s(dp33
g18
S'line'
p34
sS'x'
I356
sg20
I0
sS'y'
I665
s(dp35
g18
S'line'
p36
sS'x'
I975
sg20
I1
sS'y'
I665
s(dp37
S'y'
I665
sS'x'
I1024
sg20
I0
s(dp38
S'y'
I698
sS'x'
I1049
sg20
I0
s(dp39
g18
S'curve'
p40
sS'x'
I1049
sg20
I1
sS'y'
I734
s(dp41
S'y'
I770
sS'x'
I1049
sg20
I0
s(dp42
S'y'
I803
sS'x'
I1026
sg20
I0
s(dp43
g18
S'curve'
p44
sS'x'
I975
sg20
I1
sS'y'
I803
s(dp45
g18
S'line'
p46
sS'x'
I356
sg20
I0
sS'y'
I803
s(dp47
g18
S'line'
p48
sS'x'
I356
sg20
I0
sS'y'
I1285
s(dp49
g18
S'line'
p50
sS'x'
I1007
sg20
I1
sS'y'
I1285
s(dp51
S'y'
I1285
sS'x'
I1056
sg20
I0
s(dp52
S'y'
I1319
sS'x'
I1080
sg20
I0
s(dp53
g18
S'curve'
p54
sS'x'
I1080
sg20
I1
sS'y'
I1356
s(dp55
S'y'
I1392
sS'x'
I1080
sg20
I0
s(dp56
S'y'
I1426
sS'x'
I1056
sg20
I0
s(dp57
g18
S'curve'
p58
sS'x'
I1007
sg20
I1
sS'y'
I1426
s(dp59
g18
S'line'
p60
sS'x'
I261
sg20
I1
sS'y'
I1426
s(dp61
S'y'
I1426
sS'x'
I213
sg20
I0
s(dp62
S'y'
I1383
sS'x'
I178
sg20
I0
s(dp63
g18
S'curve'
p64
sS'x'
I178
sg20
I1
sS'y'
I1340
s(dp65
g18
S'line'
p66
sS'x'
I178
sg20
I1
sS'y'
I86
s(dp67
S'y'
I41
sS'x'
I178
sg20
I0
s(dp68
S'y'
I0
sS'x'
I222
sg20
I0
stp69
stp70
sg9
(tsg3
(tsssg13
S'D'
s."
AnchorPoint: "mid" 312 750 basechar 0
AnchorPoint: "top" 746 1438 basechar 0
LayerCount: 2
Fore
SplineSet
311 0 m 258
 667 0 l 258
 1152 0 1431 250 1431 714 c 256
 1431 1184 1166 1442 644 1442 c 258
 326 1442 l 258
 229 1442 168 1378 168 1273 c 258
 168 168 l 258
 168 79 224 0 311 0 c 258
454 221 m 257
 454 1220 l 257
 656 1220 l 258
 983 1220 1133 1090 1133 720 c 256
 1133 372 1021 221 677 221 c 258
 454 221 l 257
EndSplineSet
EndChar

StartChar: Dcroat
Encoding: 272 272 22
Width: 1525
VWidth: 0
GlyphClass: 2
Flags: W
LayerCount: 2
Fore
SplineSet
86 640 m 258
 558 640 l 258
 626 640 668 676 668 732 c 256
 668 789 626 825 558 825 c 258
 100 825 l 258
 32 825 -11 789 -11 732 c 256
 -11 676 27 640 86 640 c 258
EndSplineSet
Refer: 20 68 N 1 0 0 1 0 0 2
EndChar

StartChar: uni0394
Encoding: 916 916 23
Width: 1321
VWidth: 0
GlyphClass: 2
Flags: W
LayerCount: 2
Fore
SplineSet
22 0 m 257
 1299 0 l 257
 809 1373 l 257
 782 1435 719 1465 657 1465 c 256
 593 1465 530 1433 510 1373 c 258
 22 0 l 257
296 150 m 257
 654 1214 l 257
 1022 150 l 257
 296 150 l 257
EndSplineSet
EndChar

StartChar: E
Encoding: 69 69 24
Width: 1256
VWidth: 0
GlyphClass: 2
Flags: W
PickledData: "(dp1
S'b'
(dp2
sS'anchors'
p3
(tsS'lib'
p4
(dp5
sS'unicodes'
p6
(tsS'width'
p7
I1258
sS'contours'
p8
(tsS'components'
p9
(tsS'com.typemytype.robofont.layerData'
p10
(dp11
S'b'
(dp12
S'name'
p13
S'E'
sg4
(dp14
sg6
(tsg7
I1234
sg8
(tsg9
(tsg3
(tsssg13
S'E'
s."
AnchorPoint: "bot" 683 1 basechar 0
AnchorPoint: "ogonek" 835 9 basechar 0
AnchorPoint: "top" 666 1438 basechar 0
LayerCount: 2
Fore
SplineSet
309 0 m 258
 1050 0 l 258
 1118 0 1155 56 1155 112 c 256
 1155 168 1118 225 1050 225 c 258
 453 225 l 257
 453 626 l 257
 988 626 l 258
 1056 626 1096 681 1096 737 c 256
 1096 793 1058 848 988 848 c 258
 453 848 l 257
 453 1216 l 257
 1027 1216 l 258
 1096 1216 1134 1273 1134 1329 c 256
 1134 1385 1096 1442 1027 1442 c 258
 316 1442 l 258
 217 1442 168 1366 168 1273 c 258
 168 161 l 258
 168 79 228 0 309 0 c 258
EndSplineSet
EndChar

StartChar: Eng
Encoding: 330 330 33
Width: 1568
VWidth: 0
GlyphClass: 2
Flags: HW
PickledData: "(dp1
S'com.typemytype.robofont.layerData'
p2
(dp3
S'b'
(dp4
S'name'
p5
S'Eng'
p6
sS'lib'
p7
(dp8
sS'unicodes'
p9
(tsS'width'
p10
I1495
sS'contours'
p11
(tsS'components'
p12
(tsS'anchors'
p13
(tsss."
LayerCount: 2
Fore
SplineSet
649 -433 m 0
 765 -462 870 -477 962 -477 c 0
 1241 -477 1403 -332 1403 49 c 2
 1403 1316 l 2
 1403 1395 1340 1443 1275 1443 c 0
 1209 1443 1146 1394 1146 1316 c 2
 1146 430 l 1
 488 1341 l 1
 445 1405 373 1442 315 1442 c 0
 234 1442 164 1379 164 1269 c 2
 164 126 l 2
 164 47 228 0 292 0 c 0
 357 0 422 48 422 126 c 2
 422 1012 l 1
 1152 -7 l 1
 1152 -206 1085 -288 927 -288 c 0
 863 -288 784 -275 688 -250 c 0
 677 -247 666 -246 656 -246 c 0
 597 -246 560 -291 560 -338 c 0
 560 -377 586 -418 649 -433 c 0
EndSplineSet
EndChar

StartChar: Euro
Encoding: 8364 8364 36
Width: 1440
VWidth: 0
GlyphClass: 2
Flags: HW
LayerCount: 2
Fore
SplineSet
866 -26 m 0
 1065 -26 1190 22 1293 91 c 0
 1333 119 1349 156 1349 192 c 0
 1349 250 1306 304 1251 304 c 0
 1237 304 1224 301 1209 293 c 0
 1128 249 1030 206 911 206 c 0
 704.119796296 206 568.167831057 309.91811682 511.70587297 499 c 1
 968 499 l 2
 1007 499 1026 530 1026 561 c 0
 1026 593 1006 626 965 626 c 2
 487.062582472 626 l 1
 483.695942954 658.012999975 482 691.698100513 482 727 c 0
 482 747.995244468 482.546855951 768.326695234 483.629675858 788 c 1
 968 788 l 2
 1007 788 1026 819 1026 850 c 0
 1026 882 1006 914 965 914 c 2
 499.6065947 914 l 1
 547.740929002 1142.88207122 692.28748716 1250 905 1250 c 0
 1042 1250 1129 1200 1186 1177 c 0
 1199 1172 1211 1169 1224 1169 c 0
 1284 1169 1335 1226 1335 1287 c 0
 1335 1325 1315 1364 1266 1391 c 0
 1156 1446 1035 1483 891 1483 c 0
 543.052006491 1483 270.383574206 1271.04783733 198.584928292 914 c 1
 72 914 l 2
 35 914 16 882 16 850 c 0
 16 819 34 788 72 788 c 2
 182.153178763 788 l 1
 180.72553812 765.7784053 180 743.107580078 180 720 c 0
 180 687.83827745 181.465378273 656.489538735 184.328588148 626 c 1
 72 626 l 2
 35 626 16 594 16 562 c 0
 16 530 34 499 72 499 c 2
 205.377650773 499 l 1
 284.395294285 173.465183099 540.359550094 -26 866 -26 c 0
EndSplineSet
EndChar

StartChar: F
Encoding: 70 70 37
Width: 1173
VWidth: 0
GlyphClass: 2
Flags: W
PickledData: "(dp1
S'b'
(dp2
sS'anchors'
p3
(tsS'lib'
p4
(dp5
sS'unicodes'
p6
(tsS'width'
p7
I1175
sS'contours'
p8
(tsS'components'
p9
(tsS'com.typemytype.robofont.layerData'
p10
(dp11
S'b'
(dp12
S'name'
p13
S'F'
sg4
(dp14
sg6
(tsg7
I1142
sg8
((dp15
S'points'
p16
((dp17
S'segmentType'
p18
S'curve'
p19
sS'x'
I266
sS'smooth'
p20
I1
sS'y'
I0
s(dp21
g18
S'line'
p22
sS'x'
I1035
sg20
I1
sS'y'
I0
s(dp23
S'y'
I0
sS'x'
I1084
sg20
I0
s(dp24
S'y'
I34
sS'x'
I1108
sg20
I0
s(dp25
g18
S'curve'
p26
sS'x'
I1108
sg20
I1
sS'y'
I71
s(dp27
S'y'
I107
sS'x'
I1108
sg20
I0
s(dp28
S'y'
I141
sS'x'
I1084
sg20
I0
s(dp29
g18
S'curve'
p30
sS'x'
I1035
sg20
I1
sS'y'
I141
s(dp31
g18
S'line'
p32
sS'x'
I353
sg20
I0
sS'y'
I141
s(dp33
g18
S'line'
p34
sS'x'
I353
sg20
I0
sS'y'
I665
s(dp35
g18
S'line'
p36
sS'x'
I975
sg20
I1
sS'y'
I665
s(dp37
S'y'
I665
sS'x'
I1024
sg20
I0
s(dp38
S'y'
I698
sS'x'
I1049
sg20
I0
s(dp39
g18
S'curve'
p40
sS'x'
I1049
sg20
I1
sS'y'
I734
s(dp41
S'y'
I770
sS'x'
I1049
sg20
I0
s(dp42
S'y'
I803
sS'x'
I1026
sg20
I0
s(dp43
g18
S'curve'
p44
sS'x'
I975
sg20
I1
sS'y'
I803
s(dp45
g18
S'line'
p46
sS'x'
I353
sg20
I0
sS'y'
I803
s(dp47
g18
S'line'
p48
sS'x'
I353
sg20
I0
sS'y'
I1285
s(dp49
g18
S'line'
p50
sS'x'
I1007
sg20
I1
sS'y'
I1285
s(dp51
S'y'
I1285
sS'x'
I1056
sg20
I0
s(dp52
S'y'
I1319
sS'x'
I1080
sg20
I0
s(dp53
g18
S'curve'
p54
sS'x'
I1080
sg20
I1
sS'y'
I1356
s(dp55
S'y'
I1392
sS'x'
I1080
sg20
I0
s(dp56
S'y'
I1426
sS'x'
I1056
sg20
I0
s(dp57
g18
S'curve'
p58
sS'x'
I1007
sg20
I1
sS'y'
I1426
s(dp59
g18
S'line'
p60
sS'x'
I261
sg20
I1
sS'y'
I1426
s(dp61
S'y'
I1426
sS'x'
I213
sg20
I0
s(dp62
S'y'
I1383
sS'x'
I178
sg20
I0
s(dp63
g18
S'curve'
p64
sS'x'
I178
sg20
I1
sS'y'
I1340
s(dp65
g18
S'line'
p66
sS'x'
I178
sg20
I1
sS'y'
I86
s(dp67
S'y'
I41
sS'x'
I178
sg20
I0
s(dp68
S'y'
I0
sS'x'
I222
sg20
I0
stp69
stp70
sg9
(tsg3
(tsssg13
S'F'
s."
LayerCount: 2
Fore
SplineSet
309 0 m 256
 384 0 454 56 454 149 c 258
 454 630 l 257
 965 630 l 258
 1033 630 1070 683 1070 741 c 256
 1070 797 1033 852 965 852 c 258
 454 852 l 257
 454 1216 l 257
 994 1216 l 258
 1062 1216 1099 1273 1099 1329 c 256
 1099 1385 1062 1442 994 1442 c 258
 318 1442 l 258
 237 1442 167 1386 167 1294 c 258
 167 149 l 258
 167 56 234 0 309 0 c 256
EndSplineSet
EndChar

StartChar: G
Encoding: 71 71 38
Width: 1499
VWidth: 0
GlyphClass: 2
Flags: W
PickledData: "(dp1
S'b'
(dp2
sS'anchors'
p3
(tsS'lib'
p4
(dp5
sS'unicodes'
p6
(tsS'width'
p7
I1538
sS'contours'
p8
(tsS'components'
p9
(tsS'com.typemytype.robofont.layerData'
p10
(dp11
S'b'
(dp12
S'name'
p13
S'G'
sg4
(dp14
sg6
(tsg7
I1448
sg8
((dp15
S'points'
p16
((dp17
S'segmentType'
p18
S'curve'
p19
sS'x'
I783
sS'smooth'
p20
I1
sS'y'
S'-22'
p21
s(dp22
S'y'
S'-22'
p23
sS'x'
I965
sg20
I0
s(dp24
S'y'
I34
sS'x'
I1086
sg20
I0
s(dp25
g18
S'curve'
p26
sS'x'
I1166
sg20
I1
sS'y'
I86
s(dp27
S'y'
I154
sS'x'
I1270
sg20
I0
s(dp28
S'y'
I258
sS'x'
I1186
sg20
I0
s(dp29
g18
S'curve'
p30
sS'x'
I1112
sg20
I1
sS'y'
I214
s(dp31
S'y'
I162
sS'x'
I1024
sg20
I0
s(dp32
S'y'
I120
sS'x'
I939
sg20
I0
s(dp33
g18
S'curve'
p34
sS'x'
I806
sg20
I1
sS'y'
I120
s(dp35
S'y'
I120
sS'x'
I446
sg20
I0
s(dp36
S'y'
I406
sS'x'
I316
sg20
I0
s(dp37
g18
S'curve'
p38
sS'x'
I316
sg20
I1
sS'y'
I706
s(dp39
S'y'
I1005
sS'x'
I316
sg20
I0
s(dp40
S'y'
I1296
sS'x'
I450
sg20
I0
s(dp41
g18
S'curve'
p42
sS'x'
I801
sg20
I1
sS'y'
I1296
s(dp43
S'y'
I1296
sS'x'
I980
sg20
I0
s(dp44
S'y'
I1246
sS'x'
I1053
sg20
I0
s(dp45
g18
S'curve'
p46
sS'x'
I1094
sg20
I1
sS'y'
I1225
s(dp47
S'y'
I1184
sS'x'
I1174
sg20
I0
s(dp48
S'y'
I1300
sS'x'
I1231
sg20
I0
s(dp49
g18
S'curve'
p50
sS'x'
I1156
sg20
I1
sS'y'
I1343
s(dp51
S'y'
I1372
sS'x'
I1106
sg20
I0
s(dp52
S'y'
I1438
sS'x'
I995
sg20
I0
s(dp53
g18
S'curve'
p54
sS'x'
I797
sg20
I1
sS'y'
I1438
s(dp55
S'y'
I1438
sS'x'
I359
sg20
I0
s(dp56
S'y'
I1093
sS'x'
I128
sg20
I0
s(dp57
g18
S'curve'
p58
sS'x'
I128
sg20
I1
sS'y'
I704
s(dp59
S'y'
I307
sS'x'
I128
sg20
I0
s(dp60
S'y'
S'-22'
p61
sS'x'
I350
sg20
I0
stp62
stp63
sg9
(tsg3
(tsssg13
S'G'
s."
AnchorPoint: "bot" 834 0 basechar 0
AnchorPoint: "top" 815 1438 basechar 0
LayerCount: 2
Fore
SplineSet
838 -26 m 256
 986 -26 1139 7 1257 33 c 256
 1355 56 1395 103 1395 226 c 258
 1395 646 l 258
 1395 729 1364 781 1286 781 c 258
 899 781 l 258
 837 781 806 727 806 678 c 256
 806 624 841 576 903 576 c 258
 1112 576 l 257
 1112 235 l 257
 1027 215 939 204 852 204 c 256
 569 204 411 369 411 729 c 256
 411 1043 537 1254 862 1254 c 256
 990 1254 1107 1222 1211 1190 c 256
 1222 1184 1235 1182 1245 1182 c 256
 1307 1182 1345 1242 1345 1298 c 256
 1345 1333 1326 1373 1282 1395 c 256
 1165 1451 1011 1483 851 1483 c 256
 348 1483 108 1144 108 728 c 256
 108 234 397 -26 838 -26 c 256
EndSplineSet
EndChar

StartChar: H
Encoding: 72 72 44
Width: 1531
VWidth: 0
GlyphClass: 2
Flags: W
PickledData: "(dp1
S'b'
(dp2
sS'anchors'
p3
(tsS'lib'
p4
(dp5
sS'unicodes'
p6
(tsS'width'
p7
I1524
sS'contours'
p8
(tsS'components'
p9
(tsS'com.typemytype.robofont.layerData'
p10
(dp11
S'b'
(dp12
S'name'
p13
S'H'
sg4
(dp14
sg6
(tsg7
I1464
sg8
(tsg9
(tsg3
(tsssg13
S'H'
s."
AnchorPoint: "top" 771 1438 basechar 0
LayerCount: 2
Fore
SplineSet
311 1 m 256
 386 1 455 57 455 150 c 258
 455 630 l 257
 1075 630 l 257
 1075 150 l 258
 1075 57 1145 1 1219 1 c 256
 1294 1 1362 57 1362 150 c 258
 1362 1292 l 258
 1362 1385 1294 1441 1220 1441 c 256
 1145 1441 1075 1385 1075 1292 c 258
 1075 864 l 257
 455 864 l 257
 455 1292 l 258
 455 1385 386 1441 312 1441 c 256
 237 1441 168 1385 168 1292 c 258
 168 150 l 258
 168 57 237 1 311 1 c 256
EndSplineSet
EndChar

StartChar: Hbar
Encoding: 294 294 45
Width: 1520
VWidth: 0
GlyphClass: 2
Flags: W
PickledData: "(dp1
S'com.typemytype.robofont.layerData'
p2
(dp3
S'b'
(dp4
S'name'
p5
S'Hbar'
p6
sS'lib'
p7
(dp8
sS'unicodes'
p9
(tsS'width'
p10
I1464
sS'contours'
p11
(tsS'components'
p12
(tsS'anchors'
p13
(tsss."
LayerCount: 2
Fore
SplineSet
109 1012 m 258
 1412 1012 l 258
 1457 1012 1483 1041 1483 1075 c 256
 1483 1110 1459 1139 1412 1139 c 258
 109 1139 l 258
 64 1139 39 1110 39 1075 c 256
 39 1041 64 1012 109 1012 c 258
EndSplineSet
Refer: 44 72 N 1 0 0 1 0 0 2
EndChar

StartChar: I
Encoding: 73 73 47
Width: 647
VWidth: 0
GlyphClass: 2
Flags: W
PickledData: "(dp1
S'b'
(dp2
sS'anchors'
p3
(tsS'lib'
p4
(dp5
sS'unicodes'
p6
(tsS'width'
p7
I637
sS'contours'
p8
(tsS'components'
p9
(tsS'com.typemytype.robofont.layerData'
p10
(dp11
S'b'
(dp12
S'name'
p13
S'I'
sg4
(dp14
sg6
(tsg7
I592
sg8
(tsg9
(tsg3
(tsssg13
S'I'
s."
AnchorPoint: "ogonek" 332 22 basechar 0
AnchorPoint: "top" 323 1438 basechar 0
LayerCount: 2
Fore
SplineSet
323 1 m 256
 398 1 468 57 468 150 c 258
 468 1295 l 258
 468 1388 398 1444 324 1444 c 256
 250 1444 181 1388 181 1295 c 258
 181 150 l 258
 181 57 249 1 323 1 c 256
EndSplineSet
EndChar

StartChar: J
Encoding: 74 74 58
Width: 1081
VWidth: 0
GlyphClass: 2
Flags: W
PickledData: "(dp1
S'b'
(dp2
sS'anchors'
p3
(tsS'lib'
p4
(dp5
sS'unicodes'
p6
(tsS'width'
p7
I1126
sS'contours'
p8
(tsS'components'
p9
(tsS'com.typemytype.robofont.layerData'
p10
(dp11
S'b'
(dp12
S'name'
p13
S'J'
sg4
(dp14
sg6
(tsg7
I1003
sg8
(tsg9
(tsg3
(tsssg13
S'J'
s."
AnchorPoint: "top" 791 1438 basechar 0
LayerCount: 2
Fore
SplineSet
458 -32 m 256
 731 -32 935 113 935 452 c 258
 935 1294 l 258
 935 1387 866 1443 792 1443 c 256
 717 1443 648 1387 648 1294 c 258
 648 474 l 258
 648 280 581 216 437 216 c 256
 363 216 290 246 229 275 c 256
 211 287 193 292 177 292 c 256
 114 292 69 228 69 162 c 256
 69 114 90 76 132 52 c 256
 219 -1 297 -32 458 -32 c 256
EndSplineSet
EndChar

StartChar: K
Encoding: 75 75 60
Width: 1358
VWidth: 0
GlyphClass: 2
Flags: W
PickledData: "(dp1
S'b'
(dp2
sS'anchors'
p3
(tsS'lib'
p4
(dp5
sS'unicodes'
p6
(tsS'width'
p7
I1329
sS'contours'
p8
(tsS'components'
p9
(tsS'com.typemytype.robofont.layerData'
p10
(dp11
S'b'
(dp12
S'name'
p13
S'K'
sg4
(dp14
sg6
(tsg7
I1210
sg8
(tsg9
(tsg3
(tsssg13
S'K'
s."
AnchorPoint: "bot" 682 0 basechar 0
AnchorPoint: "top" 658 1438 basechar 0
LayerCount: 2
Fore
SplineSet
313 0 m 256
 386 0 457 56 457 147 c 258
 457 711 l 257
 991 93 l 257
 1030 45 1067 1 1117 1 c 258
 1119 1 l 258
 1190 1 1261 59 1261 133 c 256
 1261 166 1247 205 1222 239 c 257
 753 762 l 257
 1175 1219 l 257
 1200 1249 1214 1285 1214 1316 c 256
 1214 1387 1147 1441 1080 1441 c 256
 1036 1441 1001 1410 963 1363 c 257
 457 788 l 257
 457 1295 l 258
 457 1387 386 1443 313 1443 c 256
 240 1443 170 1387 170 1295 c 258
 170 147 l 258
 170 55 238 0 313 0 c 256
EndSplineSet
EndChar

StartChar: L
Encoding: 76 76 62
Width: 1141
VWidth: 0
GlyphClass: 2
Flags: W
PickledData: "(dp1
S'b'
(dp2
sS'anchors'
p3
(tsS'lib'
p4
(dp5
sS'unicodes'
p6
(tsS'width'
p7
I1169
sS'contours'
p8
(tsS'components'
p9
(tsS'com.typemytype.robofont.layerData'
p10
(dp11
S'b'
(dp12
S'name'
p13
S'L'
sg4
(dp14
sg6
(tsg7
I1095
sg8
((dp15
S'points'
p16
((dp17
S'segmentType'
p18
S'curve'
p19
sS'x'
I266
sS'smooth'
p20
I1
sS'y'
I0
s(dp21
g18
S'line'
p22
sS'x'
I1035
sg20
I1
sS'y'
I0
s(dp23
S'y'
I0
sS'x'
I1084
sg20
I0
s(dp24
S'y'
I34
sS'x'
I1108
sg20
I0
s(dp25
g18
S'curve'
p26
sS'x'
I1108
sg20
I1
sS'y'
I71
s(dp27
S'y'
I107
sS'x'
I1108
sg20
I0
s(dp28
S'y'
I141
sS'x'
I1084
sg20
I0
s(dp29
g18
S'curve'
p30
sS'x'
I1035
sg20
I1
sS'y'
I141
s(dp31
g18
S'line'
p32
sS'x'
I356
sg20
I0
sS'y'
I141
s(dp33
g18
S'line'
p34
sS'x'
I356
sg20
I0
sS'y'
I665
s(dp35
g18
S'line'
p36
sS'x'
I975
sg20
I1
sS'y'
I665
s(dp37
S'y'
I665
sS'x'
I1024
sg20
I0
s(dp38
S'y'
I698
sS'x'
I1049
sg20
I0
s(dp39
g18
S'curve'
p40
sS'x'
I1049
sg20
I1
sS'y'
I734
s(dp41
S'y'
I770
sS'x'
I1049
sg20
I0
s(dp42
S'y'
I803
sS'x'
I1026
sg20
I0
s(dp43
g18
S'curve'
p44
sS'x'
I975
sg20
I1
sS'y'
I803
s(dp45
g18
S'line'
p46
sS'x'
I356
sg20
I0
sS'y'
I803
s(dp47
g18
S'line'
p48
sS'x'
I356
sg20
I0
sS'y'
I1285
s(dp49
g18
S'line'
p50
sS'x'
I1007
sg20
I1
sS'y'
I1285
s(dp51
S'y'
I1285
sS'x'
I1056
sg20
I0
s(dp52
S'y'
I1319
sS'x'
I1080
sg20
I0
s(dp53
g18
S'curve'
p54
sS'x'
I1080
sg20
I1
sS'y'
I1356
s(dp55
S'y'
I1392
sS'x'
I1080
sg20
I0
s(dp56
S'y'
I1426
sS'x'
I1056
sg20
I0
s(dp57
g18
S'curve'
p58
sS'x'
I1007
sg20
I1
sS'y'
I1426
s(dp59
g18
S'line'
p60
sS'x'
I261
sg20
I1
sS'y'
I1426
s(dp61
S'y'
I1426
sS'x'
I213
sg20
I0
s(dp62
S'y'
I1383
sS'x'
I178
sg20
I0
s(dp63
g18
S'curve'
p64
sS'x'
I178
sg20
I1
sS'y'
I1340
s(dp65
g18
S'line'
p66
sS'x'
I178
sg20
I1
sS'y'
I86
s(dp67
S'y'
I41
sS'x'
I178
sg20
I0
s(dp68
S'y'
I0
sS'x'
I222
sg20
I0
stp69
stp70
sg9
(tsg3
(tsssg13
S'L'
s."
AnchorPoint: "mid" 311 744 basechar 0
AnchorPoint: "bot" 674 0 basechar 0
AnchorPoint: "caron.alt" 330 1030 basechar 0
AnchorPoint: "top" 558 1441 basechar 0
LayerCount: 2
Fore
SplineSet
314 0 m 258
 1020 0 l 258
 1088 0 1128 56 1128 113 c 256
 1128 170 1088 228 1020 228 c 258
 456 228 l 257
 455 1292 l 258
 455 1385 387 1441 313 1441 c 256
 238 1441 168 1385 168 1292 c 258
 168 175 l 258
 168 82 227 0 314 0 c 258
EndSplineSet
EndChar

StartChar: Lslash
Encoding: 321 321 67
Width: 1178
VWidth: 0
GlyphClass: 2
Flags: HW
LayerCount: 2
Fore
SplineSet
314 0 m 2
 1020 0 l 2
 1088 0 1128 56 1128 113 c 0
 1128 170 1088 228 1020 228 c 2
 456 228 l 1
 455.547957621 708.973091529 l 1
 658 840 l 2
 682.91796875 856.126953125 693 880 693 906 c 0
 693 956 653 1011 605 1011 c 0
 592 1011 579 1007 565 998 c 2
 455.342569608 927.505937605 l 1
 455 1292 l 2
 455 1385 387 1441 313 1441 c 0
 238 1441 168 1385 168 1292 c 2
 168 742.153846154 l 1
 48 664 l 2
 21.1396484375 646.782226562 10 618 10 590 c 0
 10 541 45 490 92 490 c 0
 105 490 119.088867188 495.826171875 135 504 c 1
 168 524.598144531 l 1
 168 175 l 2
 168 82 227 0 314 0 c 2
EndSplineSet
EndChar

StartChar: M
Encoding: 77 77 68
Width: 1941
VWidth: 0
GlyphClass: 2
Flags: W
PickledData: "(dp1
S'b'
(dp2
sS'anchors'
p3
(tsS'lib'
p4
(dp5
sS'unicodes'
p6
(tsS'width'
p7
I1984
sS'contours'
p8
(tsS'components'
p9
(tsS'com.typemytype.robofont.layerData'
p10
(dp11
S'b'
(dp12
S'name'
p13
S'M'
sg4
(dp14
sg6
(tsg7
I1899
sg8
(tsg9
(tsg3
(tsssg13
S'M'
s."
AnchorPoint: "top" 985 1438 basechar 0
LayerCount: 2
Fore
SplineSet
963 54 m 257
 963 403 l 257
 615 1234 l 257
 568 1354 474 1404 383 1404 c 256
 272 1404 168 1329 168 1215 c 258
 169 119 l 258
 169 49 234 14 299 14 c 256
 364 14 428 49 428 119 c 258
 428 1089 l 257
 799 192 l 257
 833 101 892 54 963 54 c 257
964 54 m 257
 1035 54 1094 102 1129 192 c 257
 1499 1089 l 257
 1499 119 l 258
 1499 49 1564 14 1629 14 c 256
 1694 14 1759 49 1759 119 c 258
 1759 1215 l 258
 1759 1329 1656 1404 1545 1404 c 256
 1455 1404 1359 1354 1313 1234 c 257
 964 403 l 257
 964 54 l 257
EndSplineSet
EndChar

StartChar: N
Encoding: 78 78 69
Width: 1568
VWidth: 0
GlyphClass: 2
Flags: W
PickledData: "(dp1
S'b'
(dp2
sS'anchors'
p3
(tsS'lib'
p4
(dp5
sS'unicodes'
p6
(tsS'width'
p7
I1557
sS'contours'
p8
(tsS'components'
p9
(tsS'com.typemytype.robofont.layerData'
p10
(dp11
S'b'
(dp12
S'name'
p13
S'N'
sg4
(dp14
sg6
(tsg7
I1499
sg8
(tsg9
(tsg3
(tsssg13
S'N'
s."
AnchorPoint: "bot" 814 0 basechar 0
AnchorPoint: "top" 820 1441 basechar 0
LayerCount: 2
Fore
SplineSet
292 0 m 256
 357 0 422 48 422 126 c 258
 422 1012 l 257
 1075 108 l 258
 1120 44 1195 0 1251 0 c 256
 1343 0 1403 81 1403 195 c 258
 1403 1316 l 258
 1403 1395 1340 1443 1275 1443 c 256
 1209 1443 1146 1394 1146 1316 c 258
 1146 430 l 257
 488 1341 l 257
 445 1405 373 1442 315 1442 c 256
 234 1442 164 1379 164 1269 c 258
 164 126 l 258
 164 47 228 0 292 0 c 256
EndSplineSet
EndChar

StartChar: O
Encoding: 79 79 74
Width: 1610
VWidth: 0
GlyphClass: 2
Flags: W
PickledData: "(dp1
S'b'
(dp2
sS'anchors'
p3
(tsS'com.typemytype.robofont.layerData'
p4
(dp5
S'b'
(dp6
S'name'
p7
S'O'
sS'lib'
p8
(dp9
sS'unicodes'
p10
(tsS'width'
p11
I1597
sS'contours'
p12
(tsS'components'
p13
(tsg3
(tsssg10
(tsg7
S'O'
sg11
I1604
sg12
(tsg13
(tsg8
(dp14
sS'com.typemytype.robofont.guides'
p15
(ts."
AnchorPoint: "top" 807 1441 basechar 0
LayerCount: 2
Fore
SplineSet
805 200 m 256
 530 200 406 396 406 728 c 256
 406 1057 530 1256 805 1256 c 256
 1081 1256 1204 1057 1204 728 c 256
 1204 396 1079 200 805 200 c 256
805 -26 m 256
 1260 -26 1506 265 1506 728 c 256
 1506 1191 1260 1483 805 1483 c 256
 353 1483 104 1191 104 728 c 256
 104 265 353 -26 805 -26 c 256
EndSplineSet
EndChar

StartChar: OE
Encoding: 338 338 75
Width: 1997
VWidth: 0
GlyphClass: 2
Flags: W
LayerCount: 2
Fore
SplineSet
727 -22 m 256
 828 -22 1044 -1 1073 -1 c 258
 1779 -1 l 258
 1852 -1 1892 45 1892 106 c 256
 1892 175 1842 214 1768 214 c 258
 1305 214 l 257
 1305 630 l 257
 1708 630 l 258
 1788 630 1832 670 1832 736 c 256
 1832 805 1784 844 1714 844 c 258
 1305 844 l 257
 1305 1227 l 257
 1749 1227 l 258
 1830 1227 1873 1268 1873 1335 c 256
 1873 1398 1830 1442 1759 1442 c 258
 1103 1442 l 258
 1069 1442 876 1462 750 1462 c 256
 341 1462 100 1181 100 720 c 256
 100 259 345 -22 727 -22 c 256
745 179 m 256
 491 179 384 416 384 723 c 256
 384 1032 500 1260 746 1260 c 256
 920 1260 1017 1243 1030 1238 c 257
 1030 206 l 257
 1020 200 911 182 745 179 c 256
EndSplineSet
EndChar

StartChar: Omega
Encoding: 8486 8486 83
Width: 1519
VWidth: 0
GlyphClass: 2
Flags: W
LayerCount: 2
Fore
SplineSet
182 0 m 258
 687 0 l 257
 573 195 398 552 398 821 c 256
 398 1028 500 1181 792 1181 c 256
 1085 1181 1187 1028 1187 821 c 256
 1187 553 1013 199 898 0 c 257
 1403 0 l 258
 1457 0 1483 47 1483 95 c 256
 1483 142 1457 189 1403 189 c 258
 1152 189 l 257
 1348 431 1488 727 1488 946 c 256
 1488 1186 1364 1460 792 1460 c 256
 242 1460 97 1184 97 946 c 256
 97 727 225 463 433 189 c 257
 182 189 l 258
 128 189 101 142 101 95 c 256
 101 47 128 0 182 0 c 258
EndSplineSet
EndChar

StartChar: Oslash
Encoding: 216 216 84
Width: 1606
VWidth: 0
GlyphClass: 2
Flags: W
PickledData: "(dp1
S'com.typemytype.robofont.layerData'
p2
(dp3
S'b'
(dp4
S'name'
p5
S'Oslash'
p6
sS'lib'
p7
(dp8
sS'unicodes'
p9
(tsS'width'
p10
I1597
sS'contours'
p11
(tsS'components'
p12
(tsS'anchors'
p13
(tsss."
LayerCount: 2
Fore
SplineSet
1038 1188 m 257
 496 349 l 257
 435 439 406 567 406 728 c 256
 406 1057 530 1256 805 1256 c 256
 900 1256 978 1233 1038 1188 c 257
1144 1054 m 257
 1185 969 1204 859 1204 728 c 256
 1204 396 1079 200 805 200 c 256
 731 200 668 215 615 242 c 257
 1144 1054 l 257
300 -186 m 256
 333 -186 354 -160 379 -121 c 258
 482 36 l 257
 574 -5 682 -26 805 -26 c 256
 1260 -26 1506 265 1506 728 c 256
 1506 973 1437 1170 1305 1301 c 257
 1403 1452 l 258
 1419 1477 1429 1504 1429 1527 c 256
 1429 1572 1392 1604 1351 1604 c 256
 1323 1604 1297 1591 1278 1560 c 258
 1174 1399 l 257
 1073 1454 949 1483 805 1483 c 256
 353 1483 104 1191 104 728 c 256
 104 459 188 248 347 118 c 257
 244 -42 l 258
 230 -64 221 -89 221 -111 c 256
 221 -157 258 -186 300 -186 c 256
EndSplineSet
EndChar

StartChar: P
Encoding: 80 80 87
Width: 1318
VWidth: 0
GlyphClass: 2
Flags: W
PickledData: "(dp1
S'b'
(dp2
sS'anchors'
p3
(tsS'lib'
p4
(dp5
sS'unicodes'
p6
(tsS'width'
p7
I1319
sS'contours'
p8
(tsS'components'
p9
(tsS'com.typemytype.robofont.layerData'
p10
(dp11
S'b'
(dp12
S'name'
p13
S'P'
sg4
(dp14
sg6
(tsg7
I1201
sg8
((dp15
S'points'
p16
((dp17
S'segmentType'
p18
S'curve'
p19
sS'x'
I266
sS'smooth'
p20
I1
sS'y'
I0
s(dp21
g18
S'line'
p22
sS'x'
I1035
sg20
I1
sS'y'
I0
s(dp23
S'y'
I0
sS'x'
I1084
sg20
I0
s(dp24
S'y'
I34
sS'x'
I1108
sg20
I0
s(dp25
g18
S'curve'
p26
sS'x'
I1108
sg20
I1
sS'y'
I71
s(dp27
S'y'
I107
sS'x'
I1108
sg20
I0
s(dp28
S'y'
I141
sS'x'
I1084
sg20
I0
s(dp29
g18
S'curve'
p30
sS'x'
I1035
sg20
I1
sS'y'
I141
s(dp31
g18
S'line'
p32
sS'x'
I356
sg20
I0
sS'y'
I141
s(dp33
g18
S'line'
p34
sS'x'
I356
sg20
I0
sS'y'
I665
s(dp35
g18
S'line'
p36
sS'x'
I975
sg20
I1
sS'y'
I665
s(dp37
S'y'
I665
sS'x'
I1024
sg20
I0
s(dp38
S'y'
I698
sS'x'
I1049
sg20
I0
s(dp39
g18
S'curve'
p40
sS'x'
I1049
sg20
I1
sS'y'
I734
s(dp41
S'y'
I770
sS'x'
I1049
sg20
I0
s(dp42
S'y'
I803
sS'x'
I1026
sg20
I0
s(dp43
g18
S'curve'
p44
sS'x'
I975
sg20
I1
sS'y'
I803
s(dp45
g18
S'line'
p46
sS'x'
I356
sg20
I0
sS'y'
I803
s(dp47
g18
S'line'
p48
sS'x'
I356
sg20
I0
sS'y'
I1285
s(dp49
g18
S'line'
p50
sS'x'
I1007
sg20
I1
sS'y'
I1285
s(dp51
S'y'
I1285
sS'x'
I1056
sg20
I0
s(dp52
S'y'
I1319
sS'x'
I1080
sg20
I0
s(dp53
g18
S'curve'
p54
sS'x'
I1080
sg20
I1
sS'y'
I1356
s(dp55
S'y'
I1392
sS'x'
I1080
sg20
I0
s(dp56
S'y'
I1426
sS'x'
I1056
sg20
I0
s(dp57
g18
S'curve'
p58
sS'x'
I1007
sg20
I1
sS'y'
I1426
s(dp59
g18
S'line'
p60
sS'x'
I261
sg20
I1
sS'y'
I1426
s(dp61
S'y'
I1426
sS'x'
I213
sg20
I0
s(dp62
S'y'
I1383
sS'x'
I178
sg20
I0
s(dp63
g18
S'curve'
p64
sS'x'
I178
sg20
I1
sS'y'
I1340
s(dp65
g18
S'line'
p66
sS'x'
I178
sg20
I1
sS'y'
I86
s(dp67
S'y'
I41
sS'x'
I178
sg20
I0
s(dp68
S'y'
I0
sS'x'
I222
sg20
I0
stp69
stp70
sg9
(tsg3
(tsssg13
S'P'
s."
AnchorPoint: "top" 680 1438 basechar 0
LayerCount: 2
Fore
SplineSet
312 -1 m 256
 387 -1 456 55 456 148 c 258
 456 573 l 257
 735 573 l 258
 1074 573 1282 696 1282 1009 c 256
 1282 1334 1072 1443 754 1443 c 258
 324 1443 l 258
 221 1443 168 1364 168 1267 c 258
 168 148 l 258
 168 55 238 -1 312 -1 c 256
456 781 m 257
 456 1224 l 257
 723 1224 l 258
 895 1224 999 1193 999 1009 c 256
 999 822 897 782 716 781 c 257
 456 781 l 257
EndSplineSet
EndChar

StartChar: Q
Encoding: 81 81 88
Width: 1610
VWidth: 0
GlyphClass: 2
Flags: W
PickledData: "(dp1
S'b'
(dp2
sS'anchors'
p3
(tsS'lib'
p4
(dp5
sS'unicodes'
p6
(tsS'width'
p7
I1604
sS'contours'
p8
(tsS'components'
p9
(tsS'com.typemytype.robofont.layerData'
p10
(dp11
S'b'
(dp12
S'name'
p13
S'Q'
sg4
(dp14
sg6
(tsg7
I1597
sg8
(tsg9
(tsg3
(tsssg13
S'Q'
s."
LayerCount: 2
Fore
SplineSet
1270 -223 m 256
 1322 -223 1369 -176 1369 -116 c 256
 1369 -81 1349 -49 1307 -26 c 257
 1039 129 l 257
 725 47 l 257
 1217 -209 l 258
 1235 -219 1253 -223 1270 -223 c 256
EndSplineSet
Refer: 74 79 N 1 0 0 1 0 0 2
EndChar

StartChar: R
Encoding: 82 82 89
Width: 1416
VWidth: 0
GlyphClass: 2
Flags: W
PickledData: "(dp1
S'b'
(dp2
sS'anchors'
p3
(tsS'com.typemytype.robofont.layerData'
p4
(dp5
S'b'
(dp6
S'name'
p7
S'R'
sS'lib'
p8
(dp9
sS'unicodes'
p10
(tsS'width'
p11
I1363
sS'contours'
p12
((dp13
S'points'
p14
((dp15
S'segmentType'
p16
S'curve'
p17
sS'x'
I267
sS'smooth'
p18
I1
sS'y'
I0
s(dp19
S'y'
I0
sS'x'
I311
sg18
I0
s(dp20
S'y'
I27
sS'x'
I356
sg18
I0
s(dp21
g16
S'curve'
p22
sS'x'
I356
sg18
I1
sS'y'
I84
s(dp23
g16
S'line'
p24
sS'x'
I356
sg18
I0
sS'y'
I628
s(dp25
g16
S'line'
p26
sS'x'
I669
sg18
I1
sS'y'
I628
s(dp27
S'y'
I628
sS'x'
I962
sg18
I0
s(dp28
S'y'
I722
sS'x'
I1182
sg18
I0
s(dp29
g16
S'curve'
p30
sS'x'
I1182
sg18
I1
sS'y'
I1026
s(dp31
S'y'
I1324
sS'x'
I1182
sg18
I0
s(dp32
S'y'
I1426
sS'x'
I993
sg18
I0
s(dp33
g16
S'curve'
p34
sS'x'
I684
sg18
I1
sS'y'
I1426
s(dp35
g16
S'line'
p36
sS'x'
I268
sg18
I1
sS'y'
I1426
s(dp37
S'y'
I1426
sS'x'
I217
sg18
I0
s(dp38
S'y'
I1387
sS'x'
I178
sg18
I0
s(dp39
g16
S'curve'
p40
sS'x'
I178
sg18
I1
sS'y'
I1339
s(dp41
g16
S'line'
p42
sS'x'
I178
sg18
I1
sS'y'
I84
s(dp43
S'y'
I28
sS'x'
I178
sg18
I0
s(dp44
S'y'
I0
sS'x'
I222
sg18
I0
stp45
s(dp46
g14
((dp47
g16
S'line'
p48
sS'x'
I356
sg18
I0
sS'y'
I764
s(dp49
g16
S'line'
p50
sS'x'
I356
sg18
I0
sS'y'
I1285
s(dp51
g16
S'line'
p52
sS'x'
I684
sg18
I1
sS'y'
I1285
s(dp53
S'y'
I1285
sS'x'
I914
sg18
I0
s(dp54
S'y'
I1210
sS'x'
I1008
sg18
I0
s(dp55
g16
S'curve'
p56
sS'x'
I1008
sg18
I1
sS'y'
I1026
s(dp57
S'y'
I838
sS'x'
I1008
sg18
I0
s(dp58
S'y'
I764
sS'x'
I901
sg18
I0
s(dp59
g16
S'curve'
p60
sS'x'
I670
sg18
I1
sS'y'
I764
stp61
stp62
sS'components'
p63
(tsg3
(tsssg10
(tsg7
S'R'
sg11
I1408
sg12
(tsg63
(tsg8
(dp64
sS'com.typemytype.robofont.guides'
p65
(ts."
AnchorPoint: "bot" 760 0 basechar 0
AnchorPoint: "top" 688 1438 basechar 0
LayerCount: 2
Fore
SplineSet
311 1 m 256
 384 1 455 50 455 149 c 258
 455 618 l 257
 717 618 l 257
 721 618 l 258
 909 618 953 549 971 380 c 258
 996 149 l 257
 1006 47 1075 1 1149 1 c 256
 1223 1 1284 51 1284 145 c 256
 1284 153 1284 162 1283 171 c 258
 1255 407 l 258
 1234 589 1155 704 963 741 c 257
 963 745 l 257
 1189 781 1288 914 1288 1076 c 256
 1288 1372 1034 1443 761 1443 c 258
 320 1443 l 258
 237 1443 168 1383 168 1296 c 258
 168 149 l 258
 168 52 238 1 311 1 c 256
454 831 m 257
 454 1227 l 257
 698 1227 l 257
 719 1227 l 258
 855 1227 1001 1222 1001 1035 c 256
 1001 840 820 831 659 831 c 258
 454 831 l 257
EndSplineSet
EndChar

StartChar: S
Encoding: 83 83 93
Width: 1320
VWidth: 0
GlyphClass: 2
Flags: W
PickledData: "(dp1
S'b'
(dp2
sS'anchors'
p3
(tsS'lib'
p4
(dp5
sS'unicodes'
p6
(tsS'width'
p7
I1317
sS'contours'
p8
(tsS'components'
p9
(tsS'com.typemytype.robofont.layerData'
p10
(dp11
S'b'
(dp12
S'name'
p13
S'S'
sg4
(dp14
sg6
(tsg7
I1274
sg8
(tsg9
(tsg3
(tsssg13
S'S'
s."
AnchorPoint: "bot" 658 0 basechar 0
AnchorPoint: "top" 667 1438 basechar 0
LayerCount: 2
Fore
SplineSet
658 -26 m 256
 1006 -26 1231 140 1231 411 c 256
 1231 649 1083 749 833 829 c 256
 823 833 551 911 541 915 c 256
 444 947 393 995 393 1082 c 256
 393 1217 535 1256 690 1256 c 256
 832 1256 952 1213 1038 1164 c 256
 1055 1155 1071 1150 1086 1150 c 256
 1144 1150 1188 1211 1188 1268 c 256
 1188 1295 1178 1321 1157 1340 c 256
 1062 1422 865 1483 672 1483 c 256
 352 1483 118 1328 118 1068 c 256
 118 866 217 765 440 688 c 257
 770 578 l 258
 887 540 951 492 951 386 c 256
 951 257 821 200 657 200 c 256
 485 200 352 260 265 312 c 256
 253 319 242 322 230 322 c 256
 171 322 116 240 116 178 c 256
 116 156 123 136 139 124 c 256
 238 47 403 -26 658 -26 c 256
EndSplineSet
EndChar

StartChar: Sigma
Encoding: 931 931 99
Width: 1412
VWidth: 0
GlyphClass: 2
Flags: W
LayerCount: 2
Fore
SplineSet
350 -203 m 258
 1162 -202 l 258
 1237 -202 1275 -136 1275 -71 c 256
 1275 -6 1238 59 1162 59 c 258
 430 59 l 257
 874 471 l 258
 929 523 960 574 960 626 c 256
 960 675 933 725 874 779 c 258
 431 1185 l 257
 1162 1185 l 258
 1238 1185 1275 1249 1275 1314 c 256
 1275 1379 1237 1445 1162 1445 c 258
 357 1445 l 258
 232 1445 144 1370 144 1268 c 256
 144 1209 174 1141 242 1074 c 257
 713 623 l 257
 242 159 l 258
 182 99 156 33 156 -26 c 256
 156 -124 229 -203 350 -203 c 258
EndSplineSet
EndChar

StartChar: T
Encoding: 84 84 100
Width: 1203
VWidth: 0
GlyphClass: 2
Flags: W
PickledData: "(dp1
S'b'
(dp2
sS'anchors'
p3
(tsS'lib'
p4
(dp5
sS'unicodes'
p6
(tsS'width'
p7
I1199
sS'contours'
p8
(tsS'components'
p9
(tsS'com.typemytype.robofont.layerData'
p10
(dp11
S'b'
(dp12
S'name'
p13
S'T'
sg4
(dp14
sg6
(tsg7
I1158
sg8
((dp15
S'points'
p16
((dp17
S'segmentType'
p18
S'curve'
p19
sS'x'
I581
sS'smooth'
p20
I1
sS'y'
I0
s(dp21
g18
S'line'
p22
sS'x'
I1350
sg20
I1
sS'y'
I0
s(dp23
S'y'
I0
sS'x'
I1399
sg20
I0
s(dp24
S'y'
I34
sS'x'
I1423
sg20
I0
s(dp25
g18
S'curve'
p26
sS'x'
I1423
sg20
I1
sS'y'
I71
s(dp27
S'y'
I107
sS'x'
I1423
sg20
I0
s(dp28
S'y'
I141
sS'x'
I1399
sg20
I0
s(dp29
g18
S'curve'
p30
sS'x'
I1350
sg20
I1
sS'y'
I141
s(dp31
g18
S'line'
p32
sS'x'
I671
sg20
I0
sS'y'
I141
s(dp33
g18
S'line'
p34
sS'x'
I671
sg20
I0
sS'y'
I665
s(dp35
g18
S'line'
p36
sS'x'
I1290
sg20
I1
sS'y'
I665
s(dp37
S'y'
I665
sS'x'
I1339
sg20
I0
s(dp38
S'y'
I698
sS'x'
I1364
sg20
I0
s(dp39
g18
S'curve'
p40
sS'x'
I1364
sg20
I1
sS'y'
I734
s(dp41
S'y'
I770
sS'x'
I1364
sg20
I0
s(dp42
S'y'
I803
sS'x'
I1341
sg20
I0
s(dp43
g18
S'curve'
p44
sS'x'
I1290
sg20
I1
sS'y'
I803
s(dp45
g18
S'line'
p46
sS'x'
I671
sg20
I0
sS'y'
I803
s(dp47
g18
S'line'
p48
sS'x'
I671
sg20
I0
sS'y'
I1285
s(dp49
g18
S'line'
p50
sS'x'
I1322
sg20
I1
sS'y'
I1285
s(dp51
S'y'
I1285
sS'x'
I1371
sg20
I0
s(dp52
S'y'
I1319
sS'x'
I1395
sg20
I0
s(dp53
g18
S'curve'
p54
sS'x'
I1395
sg20
I1
sS'y'
I1356
s(dp55
S'y'
I1392
sS'x'
I1395
sg20
I0
s(dp56
S'y'
I1426
sS'x'
I1371
sg20
I0
s(dp57
g18
S'curve'
p58
sS'x'
I1322
sg20
I1
sS'y'
I1426
s(dp59
g18
S'line'
p60
sS'x'
I576
sg20
I1
sS'y'
I1426
s(dp61
S'y'
I1426
sS'x'
I528
sg20
I0
s(dp62
S'y'
I1383
sS'x'
I493
sg20
I0
s(dp63
g18
S'curve'
p64
sS'x'
I493
sg20
I1
sS'y'
I1340
s(dp65
g18
S'line'
p66
sS'x'
I493
sg20
I1
sS'y'
I86
s(dp67
S'y'
I41
sS'x'
I493
sg20
I0
s(dp68
S'y'
I0
sS'x'
I537
sg20
I0
stp69
stp70
sg9
(tsg3
(tsssg13
S'T'
s."
AnchorPoint: "mid" 607 707 basechar 0
AnchorPoint: "bot" 601 0 basechar 0
AnchorPoint: "top" 615 1441 basechar 0
LayerCount: 2
Fore
SplineSet
602 -1 m 256
 677 -1 746 56 746 149 c 258
 746 1215 l 257
 1071 1215 l 258
 1141 1215 1181 1272 1181 1329 c 256
 1181 1386 1140 1443 1071 1443 c 258
 133 1443 l 258
 63 1443 22 1386 22 1328 c 256
 22 1271 62 1215 133 1215 c 258
 459 1215 l 257
 459 149 l 258
 459 56 528 -1 602 -1 c 256
EndSplineSet
EndChar

StartChar: Thorn
Encoding: 222 222 105
Width: 1343
VWidth: 0
GlyphClass: 2
Flags: W
LayerCount: 2
Fore
SplineSet
313 1 m 256
 394 1 460 66 460 174 c 258
 460 349 l 257
 703 349 l 258
 1029 349 1287 474 1287 786 c 256
 1287 1098 1024 1217 717 1217 c 258
 460 1217 l 257
 460 1305 l 258
 460 1408 391 1459 313 1459 c 256
 228 1459 170 1391 170 1294 c 258
 170 159 l 258
 170 55 234 1 313 1 c 256
460 547 m 257
 460 1019 l 257
 693 1019 l 258
 866 1019 999 964 999 786 c 256
 999 605 863 547 682 547 c 258
 460 547 l 257
EndSplineSet
EndChar

StartChar: U
Encoding: 85 85 106
Width: 1516
VWidth: 0
GlyphClass: 2
Flags: W
PickledData: "(dp1
S'b'
(dp2
sS'anchors'
p3
(tsS'lib'
p4
(dp5
sS'unicodes'
p6
(tsS'width'
p7
I1513
sS'contours'
p8
(tsS'components'
p9
(tsS'com.typemytype.robofont.layerData'
p10
(dp11
S'b'
(dp12
S'name'
p13
S'U'
sg4
(dp14
sg6
(tsg7
I1490
sg8
(tsg9
(tsg3
(tsssg13
S'U'
s."
AnchorPoint: "ogonek" 908 9 basechar 0
AnchorPoint: "top" 776 1438 basechar 0
LayerCount: 2
Fore
SplineSet
757 -26 m 256
 1089 -26 1355 146 1355 498 c 258
 1355 1299 l 258
 1355 1392 1286 1448 1212 1448 c 256
 1137 1448 1068 1392 1068 1299 c 258
 1068 505 l 258
 1068 289 912 200 757 200 c 256
 604 200 449 289 449 505 c 258
 449 1299 l 258
 449 1392 380 1448 305 1448 c 256
 230 1448 162 1392 162 1299 c 258
 162 498 l 258
 162 144 427 -26 757 -26 c 256
EndSplineSet
EndChar

StartChar: V
Encoding: 86 86 117
Width: 1382
VWidth: 0
GlyphClass: 2
Flags: W
PickledData: "(dp1
S'b'
(dp2
sS'anchors'
p3
(tsS'com.typemytype.robofont.layerData'
p4
(dp5
S'b'
(dp6
S'name'
p7
S'V'
sS'lib'
p8
(dp9
sS'unicodes'
p10
(tsS'width'
p11
I1289
sS'contours'
p12
((dp13
S'points'
p14
((dp15
S'segmentType'
p16
S'curve'
p17
sS'x'
I644
sS'smooth'
p18
I1
sS'y'
S'-5'
p19
s(dp20
S'y'
S'-5'
p21
sS'x'
I712
sg18
I0
s(dp22
S'y'
I38
sS'x'
I764
sg18
I0
s(dp23
g16
S'curve'
p24
sS'x'
I793
sg18
I1
sS'y'
I117
s(dp25
g16
S'line'
p26
sS'x'
I1243
sg18
I1
sS'y'
I1324
s(dp27
S'y'
I1335
sS'x'
I1247
sg18
I0
s(dp28
S'y'
I1342
sS'x'
I1248
sg18
I0
s(dp29
g16
S'curve'
p30
sS'x'
I1248
sg18
I1
sS'y'
I1351
s(dp31
S'y'
I1395
sS'x'
I1248
sg18
I0
s(dp32
S'y'
I1427
sS'x'
I1203
sg18
I0
s(dp33
g16
S'curve'
p34
sS'x'
I1160
sg18
I1
sS'y'
I1427
s(dp35
S'y'
I1427
sS'x'
I1125
sg18
I0
s(dp36
S'y'
I1408
sS'x'
I1090
sg18
I0
s(dp37
g16
S'curve'
p38
sS'x'
I1076
sg18
I1
sS'y'
I1369
s(dp39
g16
S'line'
p40
sS'x'
I651
sg18
I0
sS'y'
I192
s(dp41
g16
S'line'
p42
sS'x'
I650
sg18
I0
sS'y'
I190
s(dp43
g16
S'line'
p44
sS'x'
I214
sg18
I1
sS'y'
I1370
s(dp45
S'y'
I1407
sS'x'
I200
sg18
I0
s(dp46
S'y'
I1427
sS'x'
I170
sg18
I0
s(dp47
g16
S'curve'
p48
sS'x'
I135
sg18
I1
sS'y'
I1427
s(dp49
S'y'
I1427
sS'x'
I90
sg18
I0
s(dp50
S'y'
I1392
sS'x'
I43
sg18
I0
s(dp51
g16
S'curve'
p52
sS'x'
I43
sg18
I1
sS'y'
I1344
s(dp53
S'y'
I1336
sS'x'
I43
sg18
I0
s(dp54
S'y'
I1326
sS'x'
I44
sg18
I0
s(dp55
g16
S'curve'
p56
sS'x'
I48
sg18
I0
sS'y'
I1318
s(dp57
g16
S'line'
p58
sS'x'
I501
sg18
I1
sS'y'
I117
s(dp59
S'y'
I35
sS'x'
I532
sg18
I0
s(dp60
S'y'
S'-5'
p61
sS'x'
I581
sg18
I0
stp62
stp63
sS'components'
p64
(tsg3
(tsssg10
(tsg7
S'V'
sg11
I1365
sg12
(tsg64
(tsg8
(dp65
sS'com.typemytype.robofont.guides'
p66
(ts."
LayerCount: 2
Fore
SplineSet
693 -11 m 256
 821 -11 883 46 944 235 c 257
 1309 1269 l 258
 1315 1287 1318 1304 1318 1320 c 256
 1318 1400 1250 1451 1180 1451 c 256
 1123 1451 1066 1417 1042 1340 c 257
 693 296 l 257
 344 1340 l 257
 320 1417 263 1451 206 1451 c 256
 136 1451 68 1400 68 1320 c 256
 68 1304 71 1287 77 1269 c 258
 442 235 l 257
 503 46 565 -11 693 -11 c 256
EndSplineSet
EndChar

StartChar: W
Encoding: 87 87 118
Width: 2094
VWidth: 0
GlyphClass: 2
Flags: W
PickledData: "(dp1
S'b'
(dp2
sS'anchors'
p3
(tsS'lib'
p4
(dp5
sS'unicodes'
p6
(tsS'width'
p7
I2070
sS'contours'
p8
(tsS'components'
p9
(tsS'com.typemytype.robofont.layerData'
p10
(dp11
S'b'
(dp12
S'name'
p13
S'W'
sg4
(dp14
sg6
(tsg7
I2126
sg8
(tsg9
(tsg3
(tsssg13
S'W'
s."
AnchorPoint: "top" 1045 1438 basechar 0
LayerCount: 2
Fore
SplineSet
1749 149 m 258
 2046 1277 l 258
 2049 1290 2051 1302 2051 1314 c 256
 2051 1395 1981 1445 1912 1445 c 256
 1856 1445 1801 1412 1784 1337 c 257
 1528 290 l 257
 1232 1279 l 257
 1200 1395 1140 1443 1045 1443 c 256
 950 1443 890 1395 858 1279 c 257
 561 290 l 257
 306 1337 l 257
 289 1412 234 1445 178 1445 c 256
 109 1445 39 1395 39 1315 c 256
 39 1303 41 1290 44 1277 c 258
 340 149 l 258
 366 49 455 -3 544 -3 c 256
 633 -3 724 49 754 156 c 257
 1045 1132 l 257
 1336 156 l 257
 1366 49 1457 -3 1546 -3 c 256
 1635 -3 1723 49 1749 149 c 258
EndSplineSet
EndChar

StartChar: X
Encoding: 88 88 123
Width: 1332
VWidth: 0
GlyphClass: 2
Flags: W
PickledData: "(dp1
S'b'
(dp2
sS'anchors'
p3
(tsS'lib'
p4
(dp5
sS'unicodes'
p6
(tsS'width'
p7
I1322
sS'contours'
p8
(tsS'components'
p9
(tsS'com.typemytype.robofont.layerData'
p10
(dp11
S'b'
(dp12
S'name'
p13
S'X'
sg4
(dp14
sg6
(tsg7
I1274
sg8
((dp15
S'points'
p16
((dp17
S'segmentType'
p18
S'curve'
p19
sS'x'
I151
sS'smooth'
p20
I1
sS'y'
I0
s(dp21
S'y'
I0
sS'x'
I176
sg20
I0
s(dp22
S'y'
I12
sS'x'
I201
sg20
I0
s(dp23
g18
S'curve'
p24
sS'x'
I222
sg20
I1
sS'y'
I41
s(dp25
g18
S'line'
p26
sS'x'
I641
sg20
I0
sS'y'
I616
s(dp27
g18
S'line'
p28
sS'x'
I746
sg20
I0
sS'y'
I734
s(dp29
g18
S'line'
p30
sS'x'
I1175
sg20
I1
sS'y'
I1310
s(dp31
S'y'
I1325
sS'x'
I1186
sg20
I0
s(dp32
S'y'
I1338
sS'x'
I1190
sg20
I0
s(dp33
g18
S'curve'
p34
sS'x'
I1190
sg20
I1
sS'y'
I1353
s(dp35
S'y'
I1393
sS'x'
I1190
sg20
I0
s(dp36
S'y'
I1426
sS'x'
I1153
sg20
I0
s(dp37
g18
S'curve'
p38
sS'x'
I1110
sg20
I1
sS'y'
I1426
s(dp39
S'y'
I1426
sS'x'
I1083
sg20
I0
s(dp40
S'y'
I1414
sS'x'
I1058
sg20
I0
s(dp41
g18
S'curve'
p42
sS'x'
I1037
sg20
I1
sS'y'
I1385
s(dp43
g18
S'line'
p44
sS'x'
I648
sg20
I0
sS'y'
I844
s(dp45
g18
S'line'
p46
sS'x'
I542
sg20
I0
sS'y'
I732
s(dp47
g18
S'line'
p48
sS'x'
I84
sg20
I1
sS'y'
I121
s(dp49
S'y'
I106
sS'x'
I73
sg20
I0
s(dp50
S'y'
I91
sS'x'
I68
sg20
I0
s(dp51
g18
S'curve'
p52
sS'x'
I68
sg20
I1
sS'y'
I76
s(dp53
S'y'
I35
sS'x'
I68
sg20
I0
s(dp54
S'y'
I0
sS'x'
I108
sg20
I0
stp55
s(dp56
g16
((dp57
g18
S'curve'
p58
sS'x'
I1104
sg20
I1
sS'y'
I0
s(dp59
S'y'
I0
sS'x'
I1151
sg20
I0
s(dp60
S'y'
I40
sS'x'
I1200
sg20
I0
s(dp61
g18
S'curve'
p62
sS'x'
I1200
sg20
I1
sS'y'
I85
s(dp63
S'y'
I98
sS'x'
I1200
sg20
I0
s(dp64
S'y'
I113
sS'x'
I1195
sg20
I0
s(dp65
g18
S'curve'
p66
sS'x'
I1186
sg20
I0
sS'y'
I126
s(dp67
g18
S'line'
p68
sS'x'
I272
sg20
I0
sS'y'
I1385
s(dp69
S'y'
I1414
sS'x'
I252
sg20
I0
s(dp70
S'y'
I1426
sS'x'
I225
sg20
I0
s(dp71
g18
S'curve'
p72
sS'x'
I197
sg20
I1
sS'y'
I1426
s(dp73
S'y'
I1426
sS'x'
I149
sg20
I0
s(dp74
S'y'
I1388
sS'x'
I100
sg20
I0
s(dp75
g18
S'curve'
p76
sS'x'
I100
sg20
I1
sS'y'
I1343
s(dp77
S'y'
I1328
sS'x'
I100
sg20
I0
s(dp78
S'y'
I1315
sS'x'
I105
sg20
I0
s(dp79
g18
S'curve'
p80
sS'x'
I114
sg20
I0
sS'y'
I1303
s(dp81
g18
S'line'
p82
sS'x'
I1033
sg20
I0
sS'y'
I40
s(dp83
S'y'
I13
sS'x'
I1052
sg20
I0
s(dp84
S'y'
I0
sS'x'
I1076
sg20
I0
stp85
stp86
sg9
(tsg3
(tsssg13
S'X'
s."
LayerCount: 2
Fore
SplineSet
1019 51 m 257
 1051 6 1093 -13 1133 -13 c 256
 1204 -13 1271 45 1271 118 c 256
 1271 144 1262 173 1241 201 c 258
 841 729 l 257
 1255 1259 l 258
 1274 1284 1282 1309 1282 1334 c 256
 1282 1396 1230 1450 1167 1450 c 256
 1128 1450 1084 1429 1046 1377 c 257
 693 924 l 257
 343 1385 l 257
 310 1431 269 1450 230 1450 c 256
 159 1450 94 1388 94 1314 c 256
 94 1287 102 1259 122 1231 c 257
 510 720 l 257
 97 209 l 257
 72 175 61 142 61 113 c 256
 61 45 117 -4 181 -4 c 256
 220 -4 263 15 296 60 c 257
 658 525 l 257
 1019 51 l 257
EndSplineSet
EndChar

StartChar: Y
Encoding: 89 89 124
Width: 1307
VWidth: 0
GlyphClass: 2
Flags: W
PickledData: "(dp1
S'b'
(dp2
sS'anchors'
p3
(tsS'com.typemytype.robofont.layerData'
p4
(dp5
S'b'
(dp6
S'name'
p7
S'Y'
sS'lib'
p8
(dp9
sS'unicodes'
p10
(tsS'width'
p11
I1278
sS'contours'
p12
((dp13
S'points'
p14
((dp15
S'segmentType'
p16
S'curve'
p17
sS'x'
I641
sS'smooth'
p18
I1
sS'y'
I0
s(dp19
S'y'
I0
sS'x'
I685
sg18
I0
s(dp20
S'y'
I29
sS'x'
I730
sg18
I0
s(dp21
g16
S'curve'
p22
sS'x'
I730
sg18
I1
sS'y'
I85
s(dp23
g16
S'line'
p24
sS'x'
I730
sg18
I0
sS'y'
I1285
s(dp25
g16
S'line'
p26
sS'x'
I1115
sg18
I1
sS'y'
I1285
s(dp27
S'y'
I1285
sS'x'
I1164
sg18
I0
s(dp28
S'y'
I1319
sS'x'
I1190
sg18
I0
s(dp29
g16
S'curve'
p30
sS'x'
I1190
sg18
I1
sS'y'
I1355
s(dp31
S'y'
I1392
sS'x'
I1190
sg18
I0
s(dp32
S'y'
I1426
sS'x'
I1166
sg18
I0
s(dp33
g16
S'curve'
p34
sS'x'
I1115
sg18
I1
sS'y'
I1426
s(dp35
g16
S'line'
p36
sS'x'
I160
sg18
I1
sS'y'
I1426
s(dp37
S'y'
I1426
sS'x'
I111
sg18
I0
s(dp38
S'y'
I1392
sS'x'
I86
sg18
I0
s(dp39
g16
S'curve'
p40
sS'x'
I86
sg18
I1
sS'y'
I1355
s(dp41
S'y'
I1319
sS'x'
I86
sg18
I0
s(dp42
S'y'
I1285
sS'x'
I111
sg18
I0
s(dp43
g16
S'curve'
p44
sS'x'
I160
sg18
I1
sS'y'
I1285
s(dp45
g16
S'line'
p46
sS'x'
I552
sg18
I0
sS'y'
I1285
s(dp47
g16
S'line'
p48
sS'x'
I552
sg18
I1
sS'y'
I85
s(dp49
S'y'
I29
sS'x'
I552
sg18
I0
s(dp50
S'y'
I0
sS'x'
I596
sg18
I0
stp51
stp52
sS'components'
p53
(tsg3
(tsssg10
(tsg7
S'Y'
sg11
I1321
sg12
(tsg53
(tsg8
(dp54
sS'com.typemytype.robofont.guides'
p55
(ts."
AnchorPoint: "top" 664 1438 basechar 0
LayerCount: 2
Fore
SplineSet
506 146 m 258
 506 48 578 0 650 -0 c 256
 722 0 793 48 793 146 c 258
 793 583 l 257
 1216 1257 l 258
 1231 1282 1238 1306 1238 1328 c 256
 1238 1393 1180 1439 1119 1439 c 256
 1078 1439 1035 1419 1007 1369 c 257
 664 804 l 257
 334 1354 l 257
 300 1414 253 1439 207 1439 c 256
 135 1439 69 1379 69 1304 c 256
 69 1281 75 1257 89 1233 c 257
 506 574 l 257
 506 146 l 258
EndSplineSet
EndChar

StartChar: Z
Encoding: 90 90 129
Width: 1203
VWidth: 0
GlyphClass: 2
Flags: W
PickledData: "(dp1
S'b'
(dp2
sS'anchors'
p3
(tsS'lib'
p4
(dp5
sS'unicodes'
p6
(tsS'width'
p7
I1222
sS'contours'
p8
(tsS'components'
p9
(tsS'com.typemytype.robofont.layerData'
p10
(dp11
S'b'
(dp12
S'name'
p13
S'Z'
sg4
(dp14
sg6
(tsg7
I1165
sg8
((dp15
S'points'
p16
((dp17
S'segmentType'
p18
S'curve'
p19
sS'x'
I266
sS'smooth'
p20
I1
sS'y'
I0
s(dp21
g18
S'line'
p22
sS'x'
I1035
sg20
I1
sS'y'
I0
s(dp23
S'y'
I0
sS'x'
I1084
sg20
I0
s(dp24
S'y'
I34
sS'x'
I1108
sg20
I0
s(dp25
g18
S'curve'
p26
sS'x'
I1108
sg20
I1
sS'y'
I71
s(dp27
S'y'
I107
sS'x'
I1108
sg20
I0
s(dp28
S'y'
I141
sS'x'
I1084
sg20
I0
s(dp29
g18
S'curve'
p30
sS'x'
I1035
sg20
I1
sS'y'
I141
s(dp31
g18
S'line'
p32
sS'x'
I356
sg20
I0
sS'y'
I141
s(dp33
g18
S'line'
p34
sS'x'
I356
sg20
I0
sS'y'
I665
s(dp35
g18
S'line'
p36
sS'x'
I975
sg20
I1
sS'y'
I665
s(dp37
S'y'
I665
sS'x'
I1024
sg20
I0
s(dp38
S'y'
I698
sS'x'
I1049
sg20
I0
s(dp39
g18
S'curve'
p40
sS'x'
I1049
sg20
I1
sS'y'
I734
s(dp41
S'y'
I770
sS'x'
I1049
sg20
I0
s(dp42
S'y'
I803
sS'x'
I1026
sg20
I0
s(dp43
g18
S'curve'
p44
sS'x'
I975
sg20
I1
sS'y'
I803
s(dp45
g18
S'line'
p46
sS'x'
I356
sg20
I0
sS'y'
I803
s(dp47
g18
S'line'
p48
sS'x'
I356
sg20
I0
sS'y'
I1285
s(dp49
g18
S'line'
p50
sS'x'
I1007
sg20
I1
sS'y'
I1285
s(dp51
S'y'
I1285
sS'x'
I1056
sg20
I0
s(dp52
S'y'
I1319
sS'x'
I1080
sg20
I0
s(dp53
g18
S'curve'
p54
sS'x'
I1080
sg20
I1
sS'y'
I1356
s(dp55
S'y'
I1392
sS'x'
I1080
sg20
I0
s(dp56
S'y'
I1426
sS'x'
I1056
sg20
I0
s(dp57
g18
S'curve'
p58
sS'x'
I1007
sg20
I1
sS'y'
I1426
s(dp59
g18
S'line'
p60
sS'x'
I261
sg20
I1
sS'y'
I1426
s(dp61
S'y'
I1426
sS'x'
I213
sg20
I0
s(dp62
S'y'
I1383
sS'x'
I178
sg20
I0
s(dp63
g18
S'curve'
p64
sS'x'
I178
sg20
I1
sS'y'
I1340
s(dp65
g18
S'line'
p66
sS'x'
I178
sg20
I1
sS'y'
I86
s(dp67
S'y'
I41
sS'x'
I178
sg20
I0
s(dp68
S'y'
I0
sS'x'
I222
sg20
I0
stp69
stp70
sg9
(tsg3
(tsssg13
S'Z'
s."
AnchorPoint: "top" 646 1438 basechar 0
LayerCount: 2
Fore
SplineSet
211 0 m 258
 1047 0 l 258
 1115 0 1152 57 1152 113 c 256
 1152 170 1115 225 1047 225 c 258
 424 225 l 257
 1122 1230 l 258
 1144 1263 1156 1299 1156 1331 c 256
 1156 1400 1106 1443 1030 1443 c 258
 197 1443 l 258
 129 1443 92 1387 92 1330 c 256
 92 1274 129 1216 197 1216 c 258
 807 1216 l 257
 112 214 l 257
 92 182 79 145 79 113 c 256
 79 53 121 0 211 0 c 258
EndSplineSet
EndChar

StartChar: a
Encoding: 97 97 133
Width: 1078
VWidth: 0
GlyphClass: 2
Flags: W
PickledData: "(dp1
S'b'
(dp2
sS'anchors'
p3
(tsS'lib'
p4
(dp5
sS'unicodes'
p6
(tsS'width'
p7
I1101
sS'contours'
p8
(tsS'components'
p9
(tsS'com.typemytype.robofont.layerData'
p10
(dp11
S'b'
(dp12
S'name'
p13
S'a'
sg4
(dp14
sg6
(tsg7
I1040
sg8
(tsg9
(tsg3
(tsssg13
S'a'
s."
AnchorPoint: "ogonek" 808 29 basechar 0
AnchorPoint: "top" 560 1001 basechar 0
LayerCount: 2
Fore
SplineSet
417 -12 m 256
 582 -12 670 68 708 159 c 257
 708 126 l 258
 708 42 768 0 828 -0 c 256
 888 0 947 42 947 126 c 258
 947 634 l 258
 947 913 773 1016 536 1016 c 256
 374 1016 250 977 167 938 c 256
 136 923 123 896 123 868 c 256
 123 821 159 772 207 772 c 256
 216 772 226 773 235 777 c 256
 298 801 405 846 524 846 c 256
 638 846 701 793 701 665 c 258
 701 588 l 257
 262 588 70 554 70 275 c 256
 70 89 222 -11 417 -12 c 256
448 146 m 256
 363 146 300 192 300 289 c 256
 300 440 399 454 700 454 c 257
 700 425 l 258
 700 257 572 146 448 146 c 256
EndSplineSet
EndChar

StartChar: acute
Encoding: 180 180 137
Width: 569
VWidth: 0
GlyphClass: 4
Flags: W
AnchorPoint: "top" 116 1040 mark 0
LayerCount: 2
Fore
SplineSet
113 1200 m 256
 131 1200 147 1207 162 1219 c 258
 467 1470 l 258
 491 1490 503 1514 503 1540 c 256
 503 1602 441 1654 385 1654 c 256
 351 1654 325 1630 302 1596 c 257
 75 1304 l 258
 63 1287 55 1273 55 1257 c 256
 55 1222 83 1200 113 1200 c 256
EndSplineSet
EndChar

StartChar: ae
Encoding: 230 230 139
Width: 1742
VWidth: 0
GlyphClass: 2
Flags: W
PickledData: "(dp1
S'com.typemytype.robofont.layerData'
p2
(dp3
S'b'
(dp4
S'name'
p5
S'ae'
p6
sS'lib'
p7
(dp8
sS'unicodes'
p9
(tsS'width'
p10
I1734
sS'contours'
p11
(tsS'components'
p12
(tsS'anchors'
p13
(tsss."
AnchorPoint: "top" 874 1009 basechar 0
LayerCount: 2
Fore
SplineSet
428 -23 m 256
 600 -23 754 36 829 173 c 257
 902 53 1021 -23 1185 -23 c 256
 1364 -23 1604 42 1604 167 c 256
 1604 206 1579 243 1542 243 c 256
 1531 243 1521 241 1509 235 c 256
 1433 202 1344 156 1235 156 c 256
 1035 156 970 285 967 455 c 257
 1568 455 l 258
 1620 455 1647 486 1647 530 c 256
 1643 819 1499 1029 1200 1029 c 256
 1056 1029 942 968 864 871 c 257
 808 979 702 1027 550 1028 c 256
 376 1028 223 991 154 898 c 256
 142 882 135 865 135 845 c 256
 135 805 167 771 207 771 c 256
 219 771 230 773 240 778 c 256
 318 812 399 846 527 846 c 256
 643 846 723 807 723 675 c 258
 723 612 l 257
 696 613 652 614 626 614 c 256
 279 614 60 522 60 275 c 256
 60 85 207 -23 428 -23 c 256
478 128 m 256
 373 130 292 183 292 292 c 256
 292 474 558 476 722 476 c 257
 722 401 l 257
 717 224 616 130 478 128 c 256
967 591 m 257
 978 752 1058 871 1202 871 c 256
 1345 871 1417 764 1427 591 c 257
 967 591 l 257
EndSplineSet
EndChar

StartChar: ampersand
Encoding: 38 38 144
Width: 1554
VWidth: 0
GlyphClass: 2
Flags: W
LayerCount: 2
Fore
SplineSet
637 -26 m 256
 850 -26 979 54 1086 164 c 257
 1232 11 l 258
 1252 -9 1271 -17 1293 -17 c 256
 1353 -17 1425 51 1425 112 c 256
 1425 128 1419 147 1402 165 c 258
 1259 314 l 257
 1365 480 1413 737 1413 858 c 256
 1413 912 1360 947 1310 947 c 256
 1266 947 1217 934 1206 883 c 257
 1198 744 1171 599 1104 474 c 257
 766 824 l 257
 914 928 1020 1053 1020 1220 c 256
 1020 1408 855 1501 655 1501 c 258
 652 1501 l 258
 453 1501 246 1401 246 1211 c 256
 246 1067 327 964 432 859 c 257
 235 752 80 631 80 400 c 256
 80 123 314 -26 637 -26 c 256
648 172 m 256
 492 172 336 255 336 426 c 256
 336 544 442 625 575 694 c 257
 947 298 l 257
 893 232 780 172 648 172 c 256
624 971 m 257
 555 1036 475 1132 475 1218 c 256
 475 1309 559 1350 643 1350 c 256
 723 1350 805 1304 805 1218 c 256
 805 1116 702 1043 624 971 c 257
EndSplineSet
EndChar

StartChar: uni02BC
Encoding: 700 700 146
Width: 600
VWidth: 0
GlyphClass: 4
Flags: W
AnchorPoint: "top.2" 246 -170 mark 0
LayerCount: 2
Fore
SplineSet
161 -106 m 258
 251 -106 l 257
 254 -106 l 258
 281 -106 295 -94 307 -63 c 258
 480 429 l 258
 481 433 483 440 483 447 c 256
 483 463 475 483 446 485 c 257
 294 485 l 257
 262 484 229 476 221 429 c 258
 137 -63 l 258
 136 -66 136 -70 136 -75 c 256
 136 -88 140 -105 161 -106 c 258
EndSplineSet
EndChar

StartChar: approxequal
Encoding: 8776 8776 147
Width: 1210
VWidth: 0
GlyphClass: 2
Flags: W
LayerCount: 2
Fore
SplineSet
804 251 m 256
 915 251 1010 328 1010 476 c 256
 1010 522 967 553 929 553 c 256
 826 553 856 441 796 441 c 256
 724 441 494 553 361 553 c 256
 278 553 150 492 150 328 c 256
 150 286 184 254 227 254 c 256
 244 254 262 255 276 267 c 256
 339 314 326 364 383 364 c 256
 461 359 683 251 804 251 c 256
804 685 m 256
 915 685 1010 762 1010 910 c 256
 1010 956 967 987 929 987 c 256
 826 987 856 875 796 875 c 256
 724 875 494 987 361 987 c 256
 278 987 150 926 150 762 c 256
 150 719 184 688 227 688 c 256
 244 688 262 689 276 701 c 256
 339 748 326 798 383 798 c 256
 461 793 683 685 804 685 c 256
EndSplineSet
EndChar

StartChar: asciicircum
Encoding: 94 94 149
Width: 1308
VWidth: 0
GlyphClass: 2
Flags: W
LayerCount: 2
Fore
SplineSet
259 521 m 256
 301 521 331 554 355 605 c 257
 663 1223 l 257
 971 605 l 258
 996 557 1025 523 1067 523 c 256
 1115 523 1157 556 1157 608 c 256
 1157 627 1145 655 1135 678 c 257
 793 1347 l 257
 760 1416 720 1454 664 1454 c 256
 602 1454 563 1406 534 1347 c 257
 191 678 l 257
 181 655 169 627 169 609 c 256
 169 555 211 521 259 521 c 256
EndSplineSet
EndChar

StartChar: asciitilde
Encoding: 126 126 150
Width: 1309
VWidth: 0
GlyphClass: 2
Flags: W
LayerCount: 2
Fore
SplineSet
781 1151 m 256
 893 1151 950 1227 974 1318 c 256
 975 1324 976 1330 976 1335 c 256
 976 1374 946 1401 914 1401 c 256
 893 1401 872 1390 856 1364 c 256
 836 1329 816 1307 783 1307 c 256
 718 1307 622 1398 507 1398 c 256
 408 1398 349 1338 316 1235 c 256
 313 1227 312 1220 312 1213 c 256
 312 1177 344 1155 377 1155 c 256
 397 1155 418 1163 432 1183 c 256
 457 1220 480 1243 516 1243 c 256
 585 1241 679 1151 781 1151 c 256
EndSplineSet
EndChar

StartChar: asterisk
Encoding: 42 42 151
Width: 1017
VWidth: 0
GlyphClass: 2
Flags: W
LayerCount: 2
Fore
SplineSet
415 820 m 258
 507 983 l 257
 599 820 l 258
 616 790 640 777 663 777 c 256
 697 777 728 805 728 846 c 256
 728 863 723 881 711 902 c 257
 620 1044 l 257
 825 1038 l 257
 871 1038 894 1072 894 1106 c 256
 894 1140 871 1174 825 1174 c 257
 622 1168 l 257
 720 1324 l 258
 729 1339 733 1354 733 1368 c 256
 733 1407 702 1436 667 1436 c 256
 644 1436 619 1423 600 1391 c 258
 507 1224 l 257
 410 1398 l 258
 395 1425 373 1436 351 1436 c 256
 316 1436 283 1407 283 1366 c 256
 283 1351 288 1335 298 1317 c 258
 392 1168 l 257
 192 1174 l 257
 146 1174 123 1140 123 1106 c 256
 123 1072 146 1038 192 1038 c 257
 395 1044 l 257
 296 889 l 258
 287 873 283 858 283 844 c 256
 283 804 315 775 350 775 c 256
 373 775 398 788 415 820 c 258
EndSplineSet
EndChar

StartChar: at
Encoding: 64 64 152
Width: 1638
VWidth: 0
GlyphClass: 2
Flags: W
LayerCount: 2
Fore
SplineSet
809 -28 m 256
 910 -28 1014 -13 1122 17 c 256
 1155 27 1171 50 1171 81 c 256
 1171 114 1147 147 1104 147 c 256
 1096 147 1088 146 1080 144 c 256
 993 117 908 106 816 106 c 256
 489 112 208 314 208 719 c 256
 208 1133 565 1376 895 1376 c 256
 1165 1376 1407 1212 1407 859 c 256
 1407 633 1268 428 1136 428 c 256
 1101 428 1088 447 1088 479 c 256
 1088 509 1098 556 1114 611 c 258
 1243 1037 l 258
 1246 1049 1249 1061 1249 1073 c 256
 1249 1116 1215 1138 1178 1138 c 256
 1141 1138 1111 1119 1098 1079 c 258
 1089 1052 l 257
 1041 1140 951 1181 854 1181 c 256
 569 1181 375 888 375 624 c 256
 375 443 490 292 680 292 c 256
 800 292 883 339 948 429 c 257
 953 340 1034 301 1103 301 c 256
 1316 301 1562 547 1562 879 c 256
 1562 1312 1237 1510 893 1510 c 256
 482 1510 48 1228 48 728 c 256
 48 251 378 -28 809 -28 c 256
725 435 m 256
 606 435 566 518 566 637 c 256
 566 823 685 1035 861 1035 c 256
 1000 1035 1050 925 1050 925 c 257
 959 595 l 257
 930 506 839 435 725 435 c 256
EndSplineSet
EndChar

StartChar: b
Encoding: 98 98 154
Width: 1226
VWidth: 0
GlyphClass: 2
Flags: W
PickledData: "(dp1
S'b'
(dp2
sS'anchors'
p3
(tsS'lib'
p4
(dp5
sS'unicodes'
p6
(tsS'width'
p7
I1203
sS'contours'
p8
(tsS'components'
p9
(tsS'com.typemytype.robofont.layerData'
p10
(dp11
S'b'
(dp12
S'name'
p13
S'b'
sg4
(dp14
sg6
(tsg7
I1181
sg8
((dp15
S'points'
p16
((dp17
S'segmentType'
p18
S'curve'
p19
sS'x'
I238
sS'smooth'
p20
I1
sS'y'
I1425
s(dp21
S'y'
I1425
sS'x'
I198
sg20
I0
s(dp22
S'y'
I1400
sS'x'
I158
sg20
I0
s(dp23
g18
S'curve'
p24
sS'x'
I158
sg20
I1
sS'y'
I1351
s(dp25
g18
S'line'
p26
sS'x'
I158
sg20
I1
sS'y'
I76
s(dp27
S'y'
I27
sS'x'
I158
sg20
I0
s(dp28
S'y'
I3
sS'x'
I197
sg20
I0
s(dp29
g18
S'curve'
p30
sS'x'
I237
sg20
I1
sS'y'
I3
s(dp31
S'y'
I3
sS'x'
I297
sg20
I0
s(dp32
S'y'
I38
sS'x'
I318
sg20
I0
s(dp33
g18
S'curve'
p34
sS'x'
I318
sg20
I1
sS'y'
I76
s(dp35
g18
S'line'
p36
sS'x'
I318
sg20
I0
sS'y'
I183
s(dp37
S'y'
I46
sS'x'
I384
sg20
I0
s(dp38
S'y'
S'-20'
p39
sS'x'
I516
sg20
I0
s(dp40
g18
S'curve'
p41
sS'x'
I666
sg20
I1
sS'y'
S'-20'
p42
s(dp43
S'y'
S'-20'
p44
sS'x'
I957
sg20
I0
s(dp45
S'y'
I225
sS'x'
I1095
sg20
I0
s(dp46
g18
S'curve'
p47
sS'x'
I1095
sg20
I1
sS'y'
I502
s(dp48
S'y'
I777
sS'x'
I1095
sg20
I0
s(dp49
S'y'
I1013
sS'x'
I939
sg20
I0
s(dp50
g18
S'curve'
p51
sS'x'
I650
sg20
I1
sS'y'
I1013
s(dp52
S'y'
I1013
sS'x'
I503
sg20
I0
s(dp53
S'y'
I942
sS'x'
I376
sg20
I0
s(dp54
g18
S'curve'
p55
sS'x'
I318
sg20
I0
sS'y'
I814
s(dp56
g18
S'line'
p57
sS'x'
I318
sg20
I1
sS'y'
I1351
s(dp58
S'y'
I1400
sS'x'
I318
sg20
I0
s(dp59
S'y'
I1425
sS'x'
I278
sg20
I0
stp60
s(dp61
g16
((dp62
g18
S'curve'
p63
sS'x'
I632
sg20
I1
sS'y'
I903
s(dp64
S'y'
I903
sS'x'
I859
sg20
I0
s(dp65
S'y'
I685
sS'x'
I935
sg20
I0
s(dp66
g18
S'curve'
p67
sS'x'
I935
sg20
I1
sS'y'
I496
s(dp68
S'y'
I316
sS'x'
I935
sg20
I0
s(dp69
S'y'
I93
sS'x'
I869
sg20
I0
s(dp70
g18
S'curve'
p71
sS'x'
I645
sg20
I0
sS'y'
I90
s(dp72
S'y'
I90
sS'x'
I395
sg20
I0
s(dp73
S'y'
I279
sS'x'
I319
sg20
I0
s(dp74
g18
S'curve'
p75
sS'x'
I319
sg20
I1
sS'y'
I501
s(dp76
S'y'
I701
sS'x'
I319
sg20
I0
s(dp77
S'y'
I903
sS'x'
I407
sg20
I0
stp78
stp79
sg9
(tsg3
(tsssg13
S'b'
s."
LayerCount: 2
Fore
SplineSet
713 -14 m 256
 986 -14 1146 213 1146 506 c 256
 1146 823 968 1014 699 1014 c 256
 553 1014 448 960 383 854 c 257
 383 1307 l 258
 383 1396 327 1443 256 1443 c 256
 187 1443 132 1396 132 1307 c 258
 132 142 l 258
 132 52 191 0 260 0 c 256
 332 0 383 40 383 124 c 258
 383 159 l 257
 450 37 566 -14 713 -14 c 256
649 154 m 256
 449 154 384 284 384 502 c 256
 384 688 459 844 646 844 c 256
 836 844 898 672 898 504 c 256
 898 353 842 154 649 154 c 256
EndSplineSet
EndChar

StartChar: backslash
Encoding: 92 92 155
Width: 635
VWidth: 0
GlyphClass: 2
Flags: W
LayerCount: 2
Fore
SplineSet
553 -83 m 256
 597 -83 642 -52 642 1 c 256
 642 13 639 26 635 42 c 257
 170 1424 l 258
 154 1472 121 1503 81 1503 c 256
 35 1503 -9 1473 -9 1419 c 256
 -9 1409 -7 1397 -3 1384 c 258
 467 -6 l 258
 483 -54 514 -83 553 -83 c 256
EndSplineSet
EndChar

StartChar: bar
Encoding: 124 124 156
Width: 455
VWidth: 0
GlyphClass: 2
Flags: W
LayerCount: 2
Fore
SplineSet
227 -325 m 256
 277 -325 316 -284 316 -225 c 258
 316 1380 l 258
 316 1445 279 1489 228 1489 c 256
 183 1489 139 1457 139 1400 c 258
 139 -215 l 258
 139 -281 176 -325 227 -325 c 256
EndSplineSet
EndChar

StartChar: braceleft
Encoding: 123 123 157
Width: 718
VWidth: 0
GlyphClass: 2
Flags: W
LayerCount: 2
Fore
SplineSet
468 -234 m 258
 605 -234 l 258
 665 -234 691 -196 695 -146 c 257
 695 -81 663 -44 608 -44 c 258
 567 -44 l 258
 482 -44 476 26 476 142 c 258
 476 369 l 258
 476 545 348 607 309 620 c 257
 353 635 476 684 476 890 c 258
 476 1096 l 258
 476 1220 486 1288 563 1288 c 258
 598 1288 l 258
 659 1288 694 1325 694 1383 c 256
 694 1457 649 1479 598 1479 c 258
 468 1479 l 258
 320 1479 235 1358 235 1235 c 258
 235 928 l 258
 235 793 208 730 103 721 c 256
 38 716 7 675 7 621 c 256
 7 555 49 524 103 521 c 256
 213 511 235 441 235 315 c 258
 235 3 l 258
 235 -147 349 -234 468 -234 c 258
EndSplineSet
EndChar

StartChar: braceright
Encoding: 125 125 158
Width: 718
VWidth: 0
GlyphClass: 2
Flags: W
LayerCount: 2
Fore
SplineSet
111 -234 m 258
 251 -234 l 258
 387 -234 481 -125 481 10 c 258
 481 315 l 258
 481 451 508 515 620 522 c 256
 677 522 709 570 709 621 c 256
 709 687 665 717 612 721 c 256
 503 730 481 799 481 928 c 258
 481 1242 l 258
 481 1391 367 1479 251 1479 c 258
 111 1479 l 258
 50 1479 21 1437 21 1385 c 256
 21 1319 62 1288 117 1288 c 258
 152 1288 l 258
 231 1288 240 1212 240 1104 c 258
 240 875 l 258
 240 706 383 647 407 620 c 257
 357 602 240 538 240 369 c 258
 240 127 l 258
 240 16 226 -43 155 -43 c 258
 111 -43 l 258
 48 -43 20 -88 20 -139 c 256
 20 -199 58 -234 111 -234 c 258
EndSplineSet
EndChar

StartChar: bracketleft
Encoding: 91 91 159
Width: 713
VWidth: 0
GlyphClass: 2
Flags: W
LayerCount: 2
Fore
SplineSet
294 -228 m 258
 518 -228 l 257
 581 -225 613 -184 613 -133 c 256
 613 -81 580 -41 518 -41 c 258
 407 -41 l 257
 407 1256 l 257
 518 1256 l 258
 580 1256 613 1298 613 1349 c 256
 613 1398 581 1442 523 1442 c 258
 294 1442 l 258
 223 1442 171 1390 171 1320 c 258
 171 -94 l 258
 171 -180 221 -228 294 -228 c 258
EndSplineSet
EndChar

StartChar: bracketright
Encoding: 93 93 160
Width: 713
VWidth: 0
GlyphClass: 2
Flags: W
LayerCount: 2
Fore
SplineSet
189 -228 m 257
 418 -228 l 258
 488 -228 541 -178 541 -108 c 258
 541 1306 l 258
 541 1392 490 1442 418 1442 c 258
 194 1442 l 258
 131 1442 99 1400 99 1349 c 256
 99 1298 132 1256 194 1256 c 258
 305 1256 l 257
 305 -41 l 257
 194 -41 l 258
 131 -41 99 -83 99 -133 c 256
 99 -180 129 -224 189 -228 c 257
EndSplineSet
EndChar

StartChar: breve
Encoding: 728 728 161
Width: 569
VWidth: 0
GlyphClass: 4
Flags: W
AnchorPoint: "top" 285 1040 mark 0
LayerCount: 2
Fore
SplineSet
285 1206 m 256
 410 1206 509 1254 558 1339 c 257
 577 1360 592 1393 593 1424 c 256
 593 1469 558 1494 520 1494 c 256
 489 1494 462 1474 443 1443 c 256
 405 1388 364 1370 285 1370 c 256
 205 1370 164 1389 126 1444 c 256
 107 1476 80 1494 50 1494 c 256
 13 1494 -23 1469 -23 1426 c 256
 -23 1409 -18 1392 -11 1374 c 256
 39 1266 147 1206 285 1206 c 256
EndSplineSet
EndChar

StartChar: uni0311
Encoding: 785 785 162
Width: 569
VWidth: 0
GlyphClass: 4
Flags: W
AnchorPoint: "top" 286 1040 mark 0
LayerCount: 2
Fore
SplineSet
29 1248 m 256
 51 1248 69 1258 84 1279 c 256
 134 1351 183 1377 285 1377 c 256
 387 1377 433 1351 486 1279 c 256
 501 1258 519 1248 541 1248 c 256
 573 1248 600 1268 600 1300 c 256
 600 1309 597 1319 593 1330 c 256
 543 1443 432 1510 285 1510 c 256
 138 1510 27 1443 -23 1330 c 256
 -27 1319 -30 1309 -30 1300 c 256
 -30 1268 -3 1248 29 1248 c 256
EndSplineSet
EndChar

StartChar: brokenbar
Encoding: 166 166 163
Width: 455
VWidth: 0
GlyphClass: 2
Flags: W
LayerCount: 2
Fore
SplineSet
226 -73 m 256
 278 -73 317 -31 317 31 c 258
 317 591 l 258
 317 657 277 695 227 695 c 256
 178 695 136 660 136 601 c 258
 136 31 l 258
 136 -36 176 -73 226 -73 c 256
228 852 m 256
 279 852 319 894 319 956 c 258
 319 1478 l 258
 319 1543 279 1581 229 1581 c 256
 180 1581 138 1548 138 1487 c 258
 138 956 l 258
 138 890 177 852 228 852 c 256
EndSplineSet
EndChar

StartChar: bullet
Encoding: 8226 8226 164
Width: 1024
VWidth: 0
GlyphClass: 2
Flags: W
LayerCount: 2
Fore
SplineSet
511 360 m 256
 716 360 882 523 882 719 c 256
 882 921 715 1080 511 1080 c 256
 306 1080 142 916 142 719 c 256
 142 521 309 360 511 360 c 256
EndSplineSet
EndChar

StartChar: c
Encoding: 99 99 165
Width: 981
VWidth: 0
GlyphClass: 2
Flags: W
PickledData: "(dp1
S'b'
(dp2
sS'anchors'
p3
(tsS'lib'
p4
(dp5
sS'unicodes'
p6
(tsS'width'
p7
I992
sS'contours'
p8
(tsS'components'
p9
(tsS'com.typemytype.robofont.layerData'
p10
(dp11
S'b'
(dp12
S'name'
p13
S'c'
sg4
(dp14
sg6
(tsg7
F956.14099999999996
sg8
(tsg9
(tsg3
(tsssg13
S'c'
s."
AnchorPoint: "bot" 538 0 basechar 0
AnchorPoint: "top" 585 1016 basechar 0
LayerCount: 2
Fore
SplineSet
333 505 m 256
 333 703 434 836 610 836 c 256
 674 836 740 814 786 791 c 256
 802 782 818 778 833 778 c 256
 879 778 914 816 914 859 c 256
 914 886 901 914 869 937 c 256
 818 974 720 1017 584 1017 c 256
 283 1017 80 786 80 503 c 256
 80 203 285 -12 581 -12 c 256
 738 -12 843 32 893 77 c 256
 921 101 933 130 933 157 c 256
 933 202 900 240 857 240 c 256
 841 240 824 235 806 223 c 256
 761 193 689 171 605 171 c 256
 434 171 333 306 333 505 c 256
EndSplineSet
EndChar

StartChar: caron
Encoding: 711 711 167
Width: 569
VWidth: 0
GlyphClass: 4
Flags: W
AnchorPoint: "top" 283 1040 mark 0
LayerCount: 2
Fore
SplineSet
284 1119 m 256
 322 1119 360 1142 392 1186 c 257
 574 1423 l 258
 589 1444 600 1467 600 1487 c 256
 600 1529 568 1558 527 1558 c 256
 496 1558 464 1538 438 1500 c 257
 284 1297 l 257
 127 1503 l 257
 99 1542 66 1559 37 1559 c 256
 -4 1559 -38 1531 -38 1491 c 256
 -38 1471 -31 1454 -15 1433 c 258
 177 1180 l 257
 209 1141 245 1119 284 1119 c 256
EndSplineSet
EndChar

StartChar: caron.alt
Encoding: 65536 -1 168
Width: 636
VWidth: 0
GlyphClass: 4
Flags: W
AnchorPoint: "caron.alt" -53 304 mark 0
LayerCount: 2
Fore
SplineSet
253 297 m 258
 343 297 l 257
 346 297 l 258
 373 297 388 309 399 340 c 258
 560 783 l 258
 561 787 563 794 563 801 c 256
 563 817 555 837 526 839 c 257
 378 839 l 257
 346 838 313 830 305 783 c 258
 229 340 l 258
 228 337 228 333 228 328 c 256
 228 315 232 298 253 297 c 258
EndSplineSet
EndChar

StartChar: cedilla
Encoding: 184 184 173
Width: 569
VWidth: 0
GlyphClass: 4
Flags: W
AnchorPoint: "bot" 281 0 mark 0
LayerCount: 2
Fore
SplineSet
280 -429 m 256
 393 -429 504 -378 507 -266 c 256
 507 -152 426 -110 331 -109 c 256
 317 -109 301 -110 282 -111 c 257
 325 3 l 257
 235 3 l 257
 183 -127 l 258
 179 -137 176 -147 176 -155 c 256
 176 -179 194 -193 226 -193 c 256
 234 -192 242 -190 250 -189 c 256
 299 -189 352 -208 352 -259 c 256
 352 -308 325 -339 250 -339 c 256
 196 -339 140 -319 92 -305 c 256
 89 -304 85 -303 82 -303 c 256
 57 -303 44 -325 44 -349 c 256
 44 -405 170 -429 280 -429 c 256
EndSplineSet
EndChar

StartChar: cent
Encoding: 162 162 174
Width: 1049
VWidth: 0
GlyphClass: 2
Flags: W
PickledData: "(dp1
S'com.typemytype.robofont.layerData'
p2
(dp3
S'b'
(dp4
S'name'
p5
S'cent'
p6
sS'lib'
p7
(dp8
sS'unicodes'
p9
(tsS'width'
p10
I1046
sS'contours'
p11
(tsS'components'
p12
(tsS'anchors'
p13
(tsss."
LayerCount: 2
Fore
SplineSet
581 -276 m 256
 616 -276 649 -253 649 -207 c 258
 649 84 l 257
 512 84 l 257
 512 -203 l 258
 512 -251 544 -276 581 -276 c 256
512 936 m 257
 649 937 l 257
 649 1213 l 258
 649 1259 616 1281 581 1281 c 256
 544 1281 512 1256 512 1208 c 258
 512 936 l 257
EndSplineSet
Refer: 165 99 N 1 0 0 1 0 0 2
EndChar

StartChar: circumflex
Encoding: 710 710 175
Width: 569
VWidth: 0
GlyphClass: 4
Flags: W
AnchorPoint: "top" 294 1040 mark 0
LayerCount: 2
Fore
SplineSet
35 1127 m 256
 65 1127 98 1148 128 1185 c 257
 284 1388 l 257
 439 1183 l 257
 466 1143 499 1128 528 1128 c 256
 568 1128 601 1157 601 1196 c 256
 601 1216 591 1238 574 1262 c 258
 389 1506 l 258
 357 1547 319 1566 283 1566 c 256
 244 1566 209 1545 177 1506 c 257
 -12 1258 l 257
 -28 1235 -38 1213 -38 1194 c 256
 -38 1154 -5 1127 35 1127 c 256
EndSplineSet
EndChar

StartChar: colon
Encoding: 58 58 176
Width: 623
VWidth: 0
GlyphClass: 2
Flags: W
LayerCount: 2
Fore
SplineSet
311 -4 m 256
 396 -4 455 61 455 137 c 256
 455 217 391 277 311 277 c 256
 224 277 167 210 167 137 c 256
 167 59 228 -4 311 -4 c 256
311 754 m 256
 398 754 455 819 455 894 c 256
 455 973 392 1034 311 1034 c 256
 224 1034 167 968 167 894 c 256
 167 811 229 754 311 754 c 256
EndSplineSet
EndChar

StartChar: comma
Encoding: 44 44 177
Width: 623
VWidth: 0
GlyphClass: 2
Flags: W
PickledData: "(dp1
S'b'
(dp2
sS'anchors'
p3
(tsS'lib'
p4
(dp5
sS'unicodes'
p6
(tsS'width'
p7
I615
sS'contours'
p8
(tsS'components'
p9
(tsS'com.typemytype.robofont.layerData'
p10
(dp11
S'b'
(dp12
S'name'
p13
S'comma'
p14
sg4
(dp15
sg6
(tsg7
I584
sg8
(tsg9
(tsg3
(tsssg13
S'comma'
p16
s."
LayerCount: 2
Fore
SplineSet
145 -316 m 258
 235 -316 l 257
 238 -316 l 258
 265 -316 279 -304 291 -273 c 258
 464 219 l 258
 465 223 467 230 467 237 c 256
 467 253 459 273 430 275 c 257
 278 275 l 257
 246 274 213 266 205 219 c 258
 121 -273 l 258
 120 -276 120 -280 120 -285 c 256
 120 -298 124 -315 145 -316 c 258
EndSplineSet
EndChar

StartChar: uni0326
Encoding: 806 806 178
Width: 623
VWidth: 0
GlyphClass: 4
Flags: W
PickledData: "(dp1
S'b'
(dp2
sS'anchors'
p3
(tsS'lib'
p4
(dp5
sS'unicodes'
p6
(tsS'width'
p7
I615
sS'contours'
p8
(tsS'components'
p9
(tsS'com.typemytype.robofont.layerData'
p10
(dp11
S'b'
(dp12
S'name'
p13
S'uni0326'
p14
sg4
(dp15
sg6
(tsg7
I584
sg8
(tsg9
(tsg3
(tsssg13
S'uni0326'
p16
s."
AnchorPoint: "bot" 339 0 mark 0
LayerCount: 2
Fore
SplineSet
145 -646 m 258
 235 -646 l 257
 238 -646 l 258
 265 -646 280 -634 291 -603 c 258
 452 -160 l 258
 453 -156 455 -149 455 -142 c 256
 455 -126 447 -106 418 -104 c 257
 270 -104 l 257
 238 -105 205 -113 197 -160 c 258
 121 -603 l 258
 120 -606 120 -610 120 -615 c 256
 120 -628 124 -645 145 -646 c 258
EndSplineSet
EndChar

StartChar: uni0312
Encoding: 786 786 179
Width: 600
VWidth: 0
GlyphClass: 4
Flags: W
AnchorPoint: "top" 288 991 mark 0
LayerCount: 2
Fore
SplineSet
205 1201 m 257
 357 1201 l 257
 389 1202 422 1210 430 1257 c 258
 514 1748 l 258
 515 1751 515 1755 515 1760 c 256
 515 1773 511 1790 490 1791 c 258
 400 1791 l 257
 397 1791 l 258
 370 1791 356 1779 344 1748 c 258
 171 1257 l 258
 170 1253 168 1246 168 1239 c 256
 168 1223 176 1203 205 1201 c 257
EndSplineSet
EndChar

StartChar: copyright
Encoding: 169 169 180
Width: 1700
VWidth: 0
GlyphClass: 2
Flags: W
LayerCount: 2
Fore
SplineSet
866 382 m 256
 948 382 1131 414 1131 496 c 256
 1131 524 1110 550 1084 550 c 256
 1079 550 1072 549 1065 546 c 256
 1004 516 945 502 886 502 c 256
 746 502 627 597 627 781 c 256
 627 973 742 1049 880 1049 c 256
 933 1049 991 1037 1044 1015 c 256
 1058 1011 1074 1001 1083 1001 c 256
 1115 1001 1135 1033 1135 1063 c 256
 1135 1136 946 1170 866 1170 c 256
 661 1170 480 1039 480 779 c 256
 480 513 666 382 866 382 c 256
858 219 m 256
 529 219 286 460 286 775 c 256
 286 1092 530 1331 858 1331 c 256
 1185 1331 1427 1089 1427 775 c 256
 1427 454 1180 219 858 219 c 256
858 89 m 256
 1251 89 1571 397 1571 775 c 256
 1571 1159 1248 1464 858 1464 c 256
 460 1464 142 1149 142 775 c 256
 142 393 466 89 858 89 c 256
EndSplineSet
EndChar

StartChar: currency
Encoding: 164 164 181
Width: 1217
VWidth: 0
GlyphClass: 2
Flags: W
LayerCount: 2
Fore
SplineSet
229 158 m 256
 246 158 262 166 277 183 c 257
 359 263 l 257
 427 218 511 192 614 192 c 256
 718 192 803 218 871 264 c 257
 955 181 l 257
 967 167 982 159 998 158 c 256
 1031 158 1061 183 1062 219 c 256
 1061 238 1055 254 1039 271 c 257
 960 346 l 257
 1020 422 1048 513 1048 609 c 256
 1048 700 1021 793 963 867 c 257
 1040 942 l 258
 1054 957 1062 973 1062 991 c 256
 1061 1023 1032 1051 1000 1051 c 256
 985 1051 968 1044 954 1029 c 258
 876 952 l 257
 808 1000 722 1028 614 1028 c 256
 507 1028 422 999 354 952 c 257
 276 1029 l 258
 261 1043 247 1052 230 1052 c 256
 198 1052 169 1023 169 991 c 256
 169 971 176 957 190 942 c 258
 267 867 l 257
 210 792 181 702 181 609 c 256
 181 513 210 421 270 347 c 257
 187 265 l 258
 175 252 169 238 169 223 c 256
 169 190 195 159 229 158 c 256
614 308 m 256
 419 308 321 459 321 609 c 256
 321 759 418 911 614 911 c 256
 810 911 908 759 908 609 c 256
 908 456 808 308 614 308 c 256
EndSplineSet
EndChar

StartChar: d
Encoding: 100 100 182
Width: 1226
VWidth: 0
GlyphClass: 2
Flags: W
PickledData: "(dp1
S'b'
(dp2
sS'anchors'
p3
(tsS'lib'
p4
(dp5
sS'unicodes'
p6
(tsS'width'
p7
I1207
sS'contours'
p8
(tsS'components'
p9
(tsS'com.typemytype.robofont.layerData'
p10
(dp11
S'b'
(dp12
S'name'
p13
S'd'
sg4
(dp14
sg6
(tsg7
I1181
sg8
(tsg9
(tsg3
(tsssg13
S'd'
s."
AnchorPoint: "mid" 921 1175 basechar 0
AnchorPoint: "caron.alt" 957 1029 basechar 0
LayerCount: 2
Fore
SplineSet
513 -14 m 256
 661 -14 776 37 844 159 c 257
 844 124 l 258
 844 40 894 0 967 0 c 256
 1036 0 1094 52 1094 142 c 258
 1094 1307 l 258
 1094 1396 1040 1443 970 1443 c 256
 899 1443 843 1396 843 1307 c 258
 843 854 l 257
 779 960 674 1014 527 1014 c 256
 259 1014 80 823 80 506 c 256
 80 213 240 -14 513 -14 c 256
578 154 m 256
 384 154 328 353 328 504 c 256
 328 672 391 844 580 844 c 256
 767 844 842 688 842 502 c 256
 842 284 777 154 578 154 c 256
EndSplineSet
EndChar

StartChar: dagger
Encoding: 8224 8224 183
Width: 1244
VWidth: 0
GlyphClass: 2
Flags: W
LayerCount: 2
Fore
SplineSet
622 2 m 256
 686 2 735 55 735 137 c 258
 735 941 l 257
 979 941 l 258
 1043 941 1078 983 1078 1039 c 256
 1078 1096 1040 1136 979 1136 c 258
 735 1136 l 257
 735 1352 l 258
 735 1433 682 1477 622 1477 c 256
 557 1477 509 1423 509 1342 c 258
 509 1136 l 257
 261 1136 l 258
 197 1136 164 1091 164 1037 c 256
 164 980 201 941 261 941 c 258
 509 941 l 257
 509 126 l 258
 509 44 562 2 622 2 c 256
EndSplineSet
EndChar

StartChar: daggerdbl
Encoding: 8225 8225 184
Width: 1244
VWidth: 0
GlyphClass: 2
Flags: W
LayerCount: 2
Fore
SplineSet
622 1 m 256
 683 1 731 53 731 132 c 258
 731 317 l 257
 978 317 l 258
 1043 317 1078 359 1078 411 c 256
 1078 466 1040 503 978 503 c 258
 731 503 l 257
 731 971 l 257
 978 971 l 258
 1043 971 1078 1013 1078 1065 c 256
 1078 1120 1040 1158 978 1158 c 258
 731 1158 l 257
 731 1348 l 258
 731 1432 681 1477 622 1477 c 256
 558 1477 512 1423 512 1344 c 258
 512 1158 l 257
 262 1158 l 258
 198 1158 164 1116 164 1064 c 256
 164 1009 201 971 262 971 c 258
 512 971 l 257
 512 503 l 257
 262 503 l 258
 198 503 164 461 164 409 c 256
 164 353 202 317 265 317 c 258
 512 317 l 257
 512 128 l 258
 512 45 562 1 622 1 c 256
EndSplineSet
EndChar

StartChar: uni030F
Encoding: 783 783 185
Width: 569
VWidth: 0
GlyphClass: 4
Flags: W
AnchorPoint: "top" 486 1076 mark 0
LayerCount: 2
Fore
SplineSet
275 1199 m 256
 305 1199 331 1224 331 1256 c 256
 329 1273 323 1287 311 1303 c 258
 85 1594 l 258
 59 1629 33 1651 -1 1651 c 256
 -55 1651 -120 1600 -120 1539 c 256
 -120 1516 -110 1494 -90 1477 c 258
 214 1226 l 258
 232 1210 258 1199 275 1199 c 256
669 1199 m 256
 699 1199 721 1223 723 1251 c 256
 722 1270 716 1285 704 1302 c 258
 480 1591 l 257
 453 1628 425 1651 392 1651 c 256
 333 1651 273 1596 273 1538 c 256
 273 1514 282 1493 303 1477 c 257
 598 1234 l 257
 620 1214 648 1199 669 1199 c 256
EndSplineSet
EndChar

StartChar: degree
Encoding: 176 176 188
Width: 819
VWidth: 0
GlyphClass: 2
Flags: W
LayerCount: 2
Fore
SplineSet
410 971 m 256
 307 971 231 1045 231 1143 c 256
 231 1239 305 1315 409 1315 c 256
 512 1315 589 1238 589 1143 c 256
 589 1042 510 971 410 971 c 256
410 849 m 256
 575 849 712 981 712 1143 c 256
 712 1307 573 1437 410 1437 c 256
 240 1437 108 1304 108 1143 c 256
 108 979 243 849 410 849 c 256
EndSplineSet
EndChar

StartChar: dieresis
Encoding: 168 168 189
Width: 569
VWidth: 0
GlyphClass: 4
Flags: W
AnchorPoint: "top" 287 1040 mark 0
LayerCount: 2
Fore
SplineSet
71 1184 m 256
 146 1184 202 1241 202 1310 c 256
 202 1379 146 1436 71 1436 c 256
 -5 1436 -59 1377 -59 1310 c 256
 -59 1238 -1 1184 71 1184 c 256
499 1184 m 256
 572 1184 629 1241 629 1310 c 256
 629 1381 571 1436 499 1436 c 256
 420 1436 368 1376 368 1310 c 256
 368 1238 426 1184 499 1184 c 256
EndSplineSet
EndChar

StartChar: divide
Encoding: 247 247 190
Width: 1309
VWidth: 0
GlyphClass: 2
Flags: W
LayerCount: 2
Fore
SplineSet
205 426 m 258
 1106 426 l 258
 1165 426 1196 463 1196 515 c 256
 1196 568 1166 605 1110 605 c 258
 213 605 l 258
 152 605 122 567 122 515 c 256
 122 469 150 426 205 426 c 258
655 -34 m 256
 730 -34 780 22 780 87 c 256
 780 151 730 207 655 207 c 256
 578 207 530 149 530 87 c 256
 530 21 579 -34 655 -34 c 256
655 825 m 256
 730 825 780 881 780 946 c 256
 780 1011 730 1066 655 1066 c 256
 578 1066 530 1008 530 946 c 256
 530 880 580 825 655 825 c 256
EndSplineSet
EndChar

StartChar: dollar
Encoding: 36 36 191
Width: 1152
VWidth: 0
GlyphClass: 2
Flags: W
PickledData: "(dp1
S'com.typemytype.robofont.layerData'
p2
(dp3
S'b'
(dp4
S'name'
p5
S'dollar'
p6
sS'lib'
p7
(dp8
sS'unicodes'
p9
(tsS'width'
p10
I1274
sS'contours'
p11
(tsS'components'
p12
(tsS'anchors'
p13
(tsss."
LayerCount: 2
Fore
SplineSet
510 0 m 258
 510 -45 542 -67 574 -67 c 256
 608 -67 642 -44 642 0 c 258
 642 199 l 257
 838 218 980 320 980 511 c 256
 980 679 878 759 670 811 c 258
 516 850 l 257
 407 875 374 897 374 961 c 256
 374 1037 468 1065 559 1065 c 256
 669 1065 767 1025 812 1009 c 256
 826 1004 839 1001 851 1001 c 256
 898 1001 926 1038 926 1078 c 256
 926 1108 909 1140 872 1158 c 256
 817 1185 738 1218 629 1229 c 257
 629 1438 l 258
 629 1482 595 1505 561 1505 c 256
 528 1505 496 1483 496 1438 c 258
 496 1231 l 257
 290 1218 145 1123 145 949 c 256
 145 757 264 710 472 654 c 257
 628 614 l 258
 725 590 767 549 767 495 c 256
 767 394 659 363 553 363 c 256
 425 363 336 415 279 447 c 256
 261 457 243 462 227 462 c 256
 179 462 147 421 147 379 c 256
 147 355 158 330 183 312 c 256
 255 260 363 211 510 199 c 257
 510 0 l 258
EndSplineSet
EndChar

StartChar: dotaccent
Encoding: 729 729 192
Width: 622
VWidth: 0
GlyphClass: 4
Flags: W
AnchorPoint: "top" 303 1040 mark 0
LayerCount: 2
Fore
SplineSet
311 1213 m 256
 397 1213 454 1277 454 1352 c 256
 454 1429 395 1491 311 1491 c 256
 225 1491 168 1426 168 1352 c 256
 168 1276 226 1213 311 1213 c 256
EndSplineSet
EndChar

StartChar: dotlessi
Encoding: 305 305 193
Width: 520
VWidth: 0
GlyphClass: 2
Flags: W
AnchorPoint: "top" 261 991 basechar 0
LayerCount: 2
Fore
SplineSet
258 0 m 256
 329 0 386 56 386 145 c 258
 386 859 l 258
 386 956 329 1005 260 1005 c 256
 195 1005 134 960 134 876 c 258
 134 145 l 258
 134 48 190 0 258 0 c 256
EndSplineSet
EndChar

StartChar: uni0237
Encoding: 567 567 194
Width: 531
VWidth: 0
GlyphClass: 2
Flags: W
AnchorPoint: "top" 272 991 basechar 0
LayerCount: 2
Fore
SplineSet
-9 -385 m 256
 356 -385 398 -265 398 -10 c 258
 398 852 l 258
 398 953 359 1001 272 1001 c 256
 188 1001 142 949 142 848 c 258
 142 -8 l 258
 142 -174 111 -196 -12 -198 c 256
 -69 -198 -96 -242 -96 -288 c 256
 -96 -336 -66 -385 -9 -385 c 256
EndSplineSet
EndChar

StartChar: e
Encoding: 101 101 195
Width: 1099
VWidth: 0
GlyphClass: 2
Flags: W
PickledData: "(dp1
S'b'
(dp2
sS'anchors'
p3
(tsS'lib'
p4
(dp5
sS'unicodes'
p6
(tsS'width'
p7
I1132
sS'contours'
p8
(tsS'components'
p9
(tsS'com.typemytype.robofont.layerData'
p10
(dp11
S'b'
(dp12
S'name'
p13
S'e'
sg4
(dp14
sg6
(tsg7
I1132
sg8
(tsg9
(tsg3
(tsssg13
S'e'
s."
AnchorPoint: "ogonek" 782 43 basechar 0
AnchorPoint: "top" 578 1001 basechar 0
LayerCount: 2
Fore
SplineSet
80 511 m 256
 80 175 293 -12 602 -12 c 256
 767 -12 882 46 971 121 c 256
 994 141 1003 165 1003 189 c 256
 1003 236 966 280 924 280 c 256
 911 280 898 276 885 266 c 256
 814 215 722 165 620 165 c 256
 449 165 342 249 331 447 c 257
 963 447 l 258
 1014 447 1035 485 1035 534 c 256
 1032 791 893 1016 574 1016 c 256
 262 1016 80 783 80 511 c 256
333 588 m 257
 344 719 421 851 581 851 c 256
 746 851 811 726 821 588 c 257
 333 588 l 257
EndSplineSet
EndChar

StartChar: eight
Encoding: 56 56 203
Width: 1231
VWidth: 0
GlyphClass: 2
Flags: W
PickledData: "(dp1
S'com.typemytype.robofont.layerData'
p2
(dp3
S'b'
(dp4
S'name'
p5
S'eight'
p6
sS'lib'
p7
(dp8
sS'unicodes'
p9
(tsS'width'
p10
I1160
sS'contours'
p11
(tsS'components'
p12
(tsS'anchors'
p13
(tsss."
LayerCount: 2
Fore
SplineSet
614 -23 m 256
 941 -23 1149 141 1149 394 c 256
 1149 578 1057 704 874 751 c 257
 1026 786 1122 907 1122 1073 c 256
 1122 1330 914 1477 614 1477 c 256
 312 1477 110 1326 110 1073 c 256
 110 902 205 787 357 751 c 257
 177 711 82 569 82 394 c 256
 82 142 286 -23 614 -23 c 256
616 187 m 256
 474 187 364 241 364 405 c 256
 364 569 475 640 616 640 c 256
 756 640 866 566 866 405 c 256
 866 239 753 187 616 187 c 256
616 865 m 256
 469 865 379 933 379 1077 c 256
 379 1228 488 1275 616 1275 c 256
 743 1275 852 1228 852 1077 c 256
 852 933 764 865 616 865 c 256
EndSplineSet
EndChar

StartChar: ellipsis
Encoding: 8230 8230 204
Width: 1870
VWidth: 0
GlyphClass: 2
Flags: W
LayerCount: 2
Fore
SplineSet
311 -4 m 256
 396 -4 455 61 455 137 c 256
 455 217 391 277 311 277 c 256
 224 277 167 210 167 137 c 256
 167 59 228 -4 311 -4 c 256
934 -4 m 256
 1021 -4 1079 61 1079 137 c 256
 1079 219 1013 277 934 277 c 256
 847 277 790 210 790 137 c 256
 790 59 851 -4 934 -4 c 256
1558 -4 m 256
 1643 -4 1702 61 1702 137 c 256
 1702 217 1638 277 1558 277 c 256
 1471 277 1414 210 1414 137 c 256
 1414 59 1473 -4 1558 -4 c 256
EndSplineSet
EndChar

StartChar: emdash
Encoding: 8212 8212 206
Width: 2048
VWidth: 0
GlyphClass: 2
Flags: W
LayerCount: 2
Fore
SplineSet
92 432 m 258
 1940 432 l 258
 2006 432 2046 470 2046 533 c 256
 2046 592 2011 634 1947 634 c 258
 107 634 l 258
 41 634 1 595 1 534 c 256
 1 482 31 432 92 432 c 258
EndSplineSet
EndChar

StartChar: emptyset
Encoding: 8709 8709 207
Width: 1745
VWidth: 0
GlyphClass: 2
Flags: W
LayerCount: 2
Fore
SplineSet
668 300 m 257
 1210 1020 l 257
 1289 939 1335 828 1335 706 c 256
 1335 442 1124 256 874 256 c 256
 799 256 729 272 668 300 c 257
562 368 m 257
 467 450 411 571 411 706 c 256
 411 963 612 1157 874 1157 c 256
 962 1157 1041 1135 1109 1097 c 257
 562 368 l 257
369 90 m 256
 369 60 394 25 430 25 c 256
 462 25 488 60 511 91 c 258
 590 196 l 257
 676 153 773 129 874 129 c 256
 1206 129 1478 389 1478 706 c 256
 1478 876 1404 1023 1290 1127 c 257
 1363 1224 l 257
 1380 1251 1404 1277 1404 1306 c 256
 1404 1339 1380 1370 1345 1370 c 256
 1325 1370 1306 1360 1290 1338 c 258
 1188 1202 l 257
 1095 1257 986 1288 874 1288 c 256
 526 1288 267 1014 267 706 c 256
 267 524 353 368 484 264 c 257
 410 165 l 257
 391 143 369 112 369 90 c 256
EndSplineSet
EndChar

StartChar: endash
Encoding: 8211 8211 208
Width: 1024
VWidth: 0
GlyphClass: 2
Flags: W
LayerCount: 2
Fore
SplineSet
94 432 m 258
 921 432 l 258
 989 432 1021 476 1021 533 c 256
 1021 595 983 634 921 634 c 258
 102 634 l 258
 36 634 1 590 1 534 c 256
 1 481 34 432 94 432 c 258
EndSplineSet
EndChar

StartChar: eng
Encoding: 331 331 209
Width: 1204
VWidth: 0
GlyphClass: 2
Flags: HW
PickledData: "(dp1
S'com.typemytype.robofont.layerData'
p2
(dp3
S'b'
(dp4
S'name'
p5
S'eng'
p6
sS'lib'
p7
(dp8
sS'unicodes'
p9
(tsS'width'
p10
I1158
sS'contours'
p11
(tsS'components'
p12
(tsS'anchors'
p13
(tsss."
LayerCount: 2
Fore
SplineSet
391 -334 m 0
 494 -364 590 -381 675 -381 c 0
 915 -381 1070 -244 1070 130 c 2
 1070 633 l 2
 1070 897 901 1017 713 1017 c 0
 557 1017 442 957 383 844 c 1
 383 879 l 2
 383 961 328 1003 259 1003 c 0
 189 1003 132 961 132 877 c 2
 132 138 l 2
 132 48 187 0 257 0 c 0
 328 0 383 48 383 138 c 2
 383 561 l 2
 383 736 501 846 629 846 c 0
 733 846 819 778 819 634 c 2
 819 88 l 2
 819 -101 775 -192 630 -192 c 0
 576 -192 508 -179 423 -154 c 0
 413 -151 404 -150 395 -150 c 0
 345 -150 311 -193 311 -239 c 0
 311 -278 335 -318 391 -334 c 0
EndSplineSet
EndChar

StartChar: equal
Encoding: 61 61 211
Width: 1308
VWidth: 0
GlyphClass: 2
Flags: W
LayerCount: 2
Fore
SplineSet
229 201 m 258
 1055 201 l 258
 1113 201 1168 225 1168 289 c 256
 1168 356 1113 380 1067 380 c 258
 252 380 l 258
 193 380 140 354 140 289 c 256
 140 238 182 201 229 201 c 258
229 626 m 258
 1055 626 l 258
 1114 626 1168 653 1168 715 c 256
 1168 784 1109 806 1055 806 c 258
 253 806 l 258
 193 806 140 780 140 715 c 256
 140 664 181 626 229 626 c 258
EndSplineSet
EndChar

StartChar: estimated
Encoding: 8494 8494 212
Width: 1143
VWidth: 0
GlyphClass: 2
Flags: W
LayerCount: 2
Fore
SplineSet
600 -12 m 256
 782 -12 888 35 982 115 c 256
 1008 137 1019 159 1019 177 c 256
 1019 199 1003 214 980 214 c 256
 955 214 938 201 921 183 c 256
 826 85 712 39 604 39 c 256
 428 39 332 159 320 491 c 257
 976 491 l 258
 1024 491 1041 541 1041 577 c 256
 1041 786 927 1013 577 1013 c 256
 231 1013 78 759 78 512 c 256
 78 183 268 -12 600 -12 c 256
322 562 m 257
 333 796 421 968 591 968 c 256
 764 968 821 817 830 562 c 257
 322 562 l 257
EndSplineSet
EndChar

StartChar: eth
Encoding: 240 240 213
Width: 1244
VWidth: 0
GlyphClass: 2
Flags: W
PickledData: "(dp1
S'com.typemytype.robofont.layerData'
p2
(dp3
S'b'
(dp4
S'name'
p5
S'eth'
p6
sS'lib'
p7
(dp8
sS'unicodes'
p9
(tsS'width'
p10
I1230
sS'contours'
p11
(tsS'components'
p12
(tsS'anchors'
p13
(tsss."
LayerCount: 2
Fore
SplineSet
598 -35 m 256
 1012 -35 1163 267 1163 642 c 256
 1163 774 1145 920 1108 1061 c 257
 1232 1061 l 258
 1283 1061 1309 1091 1309 1133 c 256
 1309 1176 1281 1204 1232 1204 c 258
 1058 1204 l 257
 967 1423 869 1562 768 1562 c 256
 705 1562 654 1515 654 1458 c 256
 654 1441 658 1424 668 1407 c 256
 698 1353 759 1273 787 1204 c 257
 606 1204 l 258
 558 1204 534 1168 534 1132 c 256
 534 1096 558 1061 606 1061 c 258
 839 1061 l 257
 871 980 888 853 888 768 c 256
 888 753 887 740 886 728 c 257
 815 856 681 909 533 909 c 256
 260 909 80 731 80 456 c 256
 80 166 279 -35 598 -35 c 256
605 163 m 256
 438 163 345 271 345 445 c 256
 345 609 420 735 587 735 c 256
 765 735 863 617 863 440 c 256
 863 279 756 163 605 163 c 256
EndSplineSet
EndChar

StartChar: exclam
Encoding: 33 33 214
Width: 783
VWidth: 0
GlyphClass: 2
Flags: W
LayerCount: 2
Fore
SplineSet
329 530 m 258
 334 477 370 451 405 451 c 256
 440 451 476 477 481 530 c 258
 557 1361 l 258
 558 1366 558 1372 558 1377 c 256
 558 1463 482 1505 406 1505 c 256
 330 1505 253 1463 253 1377 c 256
 253 1372 253 1366 254 1361 c 258
 329 530 l 258
EndSplineSet
Refer: 313 46 N 1 0 0 1 97 -1 2
EndChar

StartChar: f
Encoding: 102 102 216
Width: 729
VWidth: 0
GlyphClass: 2
Flags: W
PickledData: "(dp1
S'b'
(dp2
sS'anchors'
p3
(tsS'lib'
p4
(dp5
sS'unicodes'
p6
(tsS'width'
p7
I723
sS'contours'
p8
(tsS'components'
p9
(tsS'com.typemytype.robofont.layerData'
p10
(dp11
S'b'
(dp12
S'name'
p13
S'f'
sg4
(dp14
sg6
(tsg7
I696
sg8
(tsg9
(tsg3
(tsssg13
S'f'
s."
LayerCount: 2
Fore
SplineSet
342 0 m 256
 413 0 468 48 468 140 c 258
 468 835 l 257
 601 835 l 258
 662 835 691 869 691 916 c 256
 691 961 660 997 604 997 c 258
 468 997 l 257
 468 1070 l 258
 468 1239 505 1261 596 1261 c 258
 676 1261 l 258
 732 1261 759 1307 759 1355 c 256
 759 1404 730 1455 676 1455 c 258
 553 1455 l 258
 348 1455 216 1353 216 1097 c 258
 216 997 l 257
 115 997 l 258
 54 997 28 957 28 916 c 256
 28 867 58 836 118 835 c 257
 216 835 l 257
 216 140 l 258
 216 48 273 0 342 0 c 256
EndSplineSet
EndChar

StartChar: uniFB01
Encoding: 64257 64257 217
Width: 1241
VWidth: 0
GlyphClass: 2
Flags: W
LayerCount: 2
Fore
SplineSet
647 1270 m 256
 702 1270 733 1304 733 1355 c 256
 733 1400 707 1433 663 1444 c 256
 612 1456 559 1461 506 1461 c 256
 306 1461 204 1354 204 1079 c 258
 204 1002 l 257
 102 1002 l 258
 41 1002 12 963 12 920 c 256
 12 872 45 837 106 837 c 258
 204 837 l 257
 204 145 l 258
 204 49 260 1 329 1 c 256
 400 1 455 56 455 145 c 258
 455 837 l 257
 855 837 l 257
 855 151 l 258
 855 49 910 1 980 1 c 256
 1055 1 1107 61 1107 151 c 258
 1107 856 l 258
 1107 969 1041 1002 970 1002 c 258
 455 1002 l 257
 455 1031 l 258
 455 1231 463 1273 577 1273 c 256
 601 1273 623 1270 647 1270 c 256
980 1213 m 256
 1063 1213 1126 1260 1126 1332 c 256
 1126 1403 1063 1451 981 1451 c 256
 897 1451 834 1400 834 1332 c 256
 834 1262 898 1213 980 1213 c 256
EndSplineSet
EndChar

StartChar: five
Encoding: 53 53 218
Width: 1231
VWidth: 0
GlyphClass: 2
Flags: W
PickledData: "(dp1
S'com.typemytype.robofont.layerData'
p2
(dp3
S'b'
(dp4
S'name'
p5
S'five'
p6
sS'lib'
p7
(dp8
sS'unicodes'
p9
(tsS'width'
p10
I1160
sS'contours'
p11
(tsS'components'
p12
(tsS'anchors'
p13
(tsss."
LayerCount: 2
Fore
SplineSet
619 -23 m 256
 907 -23 1136 160 1136 454 c 256
 1136 738 948 914 690 914 c 256
 497 914 404 837 404 837 c 257
 406 1233 l 257
 957 1233 l 258
 1023 1233 1057 1279 1057 1337 c 256
 1057 1395 1022 1443 961 1443 c 258
 328 1443 l 258
 227 1443 179 1410 179 1310 c 258
 179 716 l 258
 179 640 278 598 341 598 c 256
 359 598 375 602 384 609 c 256
 444 654 528 701 627 701 c 256
 764 701 866 614 866 455 c 256
 866 289 776 198 609 198 c 256
 487 198 389 243 309 302 c 256
 294 314 278 319 262 319 c 256
 207 319 157 253 157 194 c 256
 157 170 165 147 184 130 c 257
 279 52 412 -23 619 -23 c 256
EndSplineSet
EndChar

StartChar: uniFB02
Encoding: 64258 64258 220
Width: 1241
VWidth: 0
GlyphClass: 2
Flags: W
LayerCount: 2
Fore
SplineSet
329 1 m 256
 400 1 455 56 455 145 c 258
 455 837 l 257
 573 837 l 258
 637 837 670 874 670 920 c 256
 670 967 637 1002 577 1002 c 258
 455 1002 l 257
 455 1042 l 258
 455 1237 477 1300 582 1300 c 258
 803 1300 l 257
 803 151 l 258
 803 49 858 1 928 1 c 256
 1003 1 1055 62 1055 151 c 258
 1055 1302 l 258
 1055 1395 996 1440 930 1440 c 256
 873 1440 820 1407 807 1344 c 257
 786 1382 687 1456 495 1456 c 256
 335 1454 204 1355 204 1085 c 258
 204 1002 l 257
 102 1002 l 258
 41 1002 12 963 12 920 c 256
 12 872 45 837 106 837 c 258
 204 837 l 257
 204 140 l 258
 204 47 262 1 329 1 c 256
EndSplineSet
EndChar

StartChar: florin
Encoding: 402 402 221
Width: 1244
VWidth: 0
GlyphClass: 2
Flags: W
LayerCount: 2
Fore
SplineSet
84 -540 m 256
 270 -540 447 -418 550 26 c 256
 605 261 652 505 699 727 c 257
 899 727 l 258
 966 727 1003 771 1003 828 c 256
 1003 880 969 930 905 930 c 258
 735 930 l 257
 801 1280 885 1425 1019 1429 c 256
 1101 1431 1147 1471 1147 1520 c 256
 1147 1560 1113 1594 1040 1594 c 256
 797 1594 612 1394 533 930 c 257
 360 930 l 258
 296 930 262 879 262 830 c 256
 262 768 304 727 371 727 c 258
 498 727 l 257
 449 484 402 243 349 27 c 256
 274 -293 178 -362 89 -365 c 256
 19 -366 -30 -411 -30 -464 c 256
 -30 -506 4 -540 84 -540 c 256
EndSplineSet
EndChar

StartChar: foundryicon
Encoding: 65538 -1 222
Width: 1347
VWidth: 0
GlyphClass: 2
Flags: W
LayerCount: 2
Fore
SplineSet
485 405 m 257
 485 672 l 257
 591 672 l 257
 761 523 l 257
 761 672 l 257
 867 672 l 257
 867 405 l 257
 761 405 l 257
 591 552 l 257
 591 405 l 257
 485 405 l 257
280 2 m 257
 669 278 l 257
 1066 2 l 257
 922 461 l 257
 1313 755 l 257
 828 755 l 257
 669 1215 l 257
 519 755 l 257
 34 755 l 257
 423 461 l 257
 280 2 l 257
EndSplineSet
EndChar

StartChar: four
Encoding: 52 52 223
Width: 1231
VWidth: 0
GlyphClass: 2
Flags: W
PickledData: "(dp1
S'com.typemytype.robofont.layerData'
p2
(dp3
S'b'
(dp4
S'name'
p5
S'four'
p6
sS'lib'
p7
(dp8
sS'unicodes'
p9
(tsS'width'
p10
I1160
sS'contours'
p11
(tsS'components'
p12
(tsS'anchors'
p13
(tsss."
LayerCount: 2
Fore
SplineSet
856 -5 m 256
 930 -5 990 46 990 134 c 258
 990 297 l 257
 1106 297 l 258
 1175 297 1208 342 1208 398 c 256
 1208 459 1171 500 1106 500 c 258
 991 500 l 257
 991 1235 l 258
 991 1389 903 1441 792 1441 c 256
 693 1441 621 1399 564 1305 c 258
 75 493 l 257
 64 472 58 449 58 427 c 256
 58 360 106 297 186 297 c 258
 722 297 l 257
 722 133 l 258
 722 43 785 -5 856 -5 c 256
327 500 m 257
 722 1180 l 257
 722 500 l 257
 327 500 l 257
EndSplineSet
EndChar

StartChar: uni2074
Encoding: 8308 8308 224
Width: 757
VWidth: 0
GlyphClass: 2
Flags: W
LayerCount: 2
Fore
SplineSet
507 602 m 256
 544 602 574 634 574 684 c 258
 574 782 l 257
 642 782 l 258
 679 782 697 806 697 832 c 256
 697 860 676 881 640 881 c 258
 574 881 l 257
 574 1303 l 258
 574 1392 538 1439 478 1439 c 256
 422 1439 383 1417 346 1347 c 257
 54 886 l 258
 45 873 41 859 41 843 c 256
 41 802 74 782 121 782 c 258
 440 782 l 257
 440 689 l 258
 440 634 469 602 507 602 c 256
175 878 m 257
 440 1310 l 257
 440 878 l 257
 175 878 l 257
EndSplineSet
EndChar

StartChar: fraction
Encoding: 8260 8260 225
Width: 635
VWidth: 0
GlyphClass: 2
Flags: W
LayerCount: 2
Fore
SplineSet
82 -63 m 256
 116 -63 148 -45 164 -1 c 257
 633 1389 l 258
 639 1407 643 1425 643 1440 c 256
 643 1495 599 1525 554 1525 c 256
 513 1525 480 1495 464 1445 c 258
 1 73 l 257
 -4 55 -8 36 -8 22 c 256
 -8 -32 38 -63 82 -63 c 256
EndSplineSet
EndChar

StartChar: g
Encoding: 103 103 226
Width: 1218
VWidth: 0
GlyphClass: 2
Flags: W
PickledData: "(dp1
S'b'
(dp2
sS'anchors'
p3
(tsS'lib'
p4
(dp5
sS'unicodes'
p6
(tsS'width'
p7
I1207
sS'contours'
p8
(tsS'components'
p9
(tsS'com.typemytype.robofont.layerData'
p10
(dp11
S'b'
(dp12
S'name'
p13
S'g'
sg4
(dp14
sg6
(tsg7
I1167
sg8
(tsg9
(tsg3
(tsssg13
S'g'
s."
AnchorPoint: "top" 589 999 basechar 0
LayerCount: 2
Fore
SplineSet
852 13 m 258
 852 -182 736 -268 556 -268 c 256
 442 -268 366 -232 292 -208 c 256
 281 -204 270 -202 260 -202 c 256
 212 -202 179 -244 179 -288 c 256
 179 -316 192 -344 225 -364 c 256
 293 -406 432 -442 581 -442 c 256
 886 -442 1092 -281 1092 43 c 258
 1092 863 l 258
 1092 954 1040 1003 973 1003 c 256
 914 1003 864 967 857 897 c 257
 857 851 l 257
 798 945 722 1015 548 1015 c 256
 254 1015 78 797 78 495 c 256
 78 187 269 -1 554 -1 c 256
 686 -1 793 48 852 160 c 257
 852 13 l 258
599 166 m 257
 458 168 334 269 334 502 c 256
 334 685 405 847 598 847 c 256
 788 847 852 704 852 500 c 256
 852 259 740 169 599 166 c 257
EndSplineSet
EndChar

StartChar: germandbls
Encoding: 223 223 232
Width: 1355
VWidth: 0
GlyphClass: 2
Flags: W
LayerCount: 2
Fore
SplineSet
899 -24 m 256
 1105 -24 1295 99 1295 322 c 256
 1295 632 880 635 880 799 c 256
 880 889 1112 972 1112 1148 c 256
 1112 1360 898 1475 670 1475 c 256
 291 1475 142 1274 142 952 c 258
 142 137 l 258
 142 47 198 1 265 1 c 256
 337 1 393 56 393 148 c 258
 393 969 l 257
 396 1151 460 1313 647 1313 c 256
 753 1313 861 1261 861 1151 c 256
 861 1011 622 965 622 783 c 256
 622 535 1054 515 1054 308 c 256
 1054 196 986 145 888 145 c 256
 810 145 759 183 721 240 c 256
 702 272 678 284 651 284 c 256
 605 284 558 243 558 193 c 256
 558 180 560 166 567 153 c 256
 623 33 749 -24 899 -24 c 256
EndSplineSet
EndChar

StartChar: grave
Encoding: 96 96 233
Width: 569
VWidth: 0
GlyphClass: 4
Flags: W
AnchorPoint: "top" 446 1040 mark 0
LayerCount: 2
Fore
SplineSet
451 1196 m 256
 482 1196 505 1224 505 1256 c 256
 505 1270 496 1285 486 1300 c 257
 263 1587 l 257
 237 1625 208 1649 174 1649 c 256
 116 1649 55 1594 55 1535 c 256
 55 1512 64 1492 84 1475 c 258
 389 1224 l 257
 407 1207 433 1196 451 1196 c 256
EndSplineSet
EndChar

StartChar: greater
Encoding: 62 62 234
Width: 1308
VWidth: 0
GlyphClass: 2
Flags: W
PickledData: "(dp1
S'com.typemytype.robofont.layerData'
p2
(dp3
S'b'
(dp4
S'name'
p5
S'less'
p6
sS'lib'
p7
(dp8
sS'unicodes'
p9
(tsS'width'
p10
I1340
sS'contours'
p11
(tsS'components'
p12
(tsS'anchors'
p13
(tsss."
LayerCount: 2
Fore
SplineSet
222 27 m 258
 1055 385 l 258
 1102 406 1130 454 1130 503 c 256
 1130 552 1103 602 1039 629 c 258
 225 966 l 258
 219 968 213 970 207 970 c 256
 163 970 118 908 118 855 c 256
 118 827 131 801 163 788 c 258
 867 502 l 257
 160 203 l 258
 136 193 126 168 126 141 c 256
 126 88 163 24 205 24 c 256
 211 24 216 25 222 27 c 258
EndSplineSet
EndChar

StartChar: greaterequal
Encoding: 8805 8805 235
Width: 1210
VWidth: 0
GlyphClass: 2
Flags: W
LayerCount: 2
Fore
SplineSet
180 283 m 256
 191 283 202 285 213 290 c 258
 1068 645 l 258
 1124 669 1150 706 1150 749 c 256
 1150 795 1122 831 1070 854 c 258
 221 1215 l 258
 206 1222 191 1228 177 1228 c 256
 130 1228 98 1184 98 1143 c 256
 98 1108 120 1082 158 1065 c 258
 902 750 l 257
 160 449 l 257
 119 431 99 403 99 370 c 256
 99 326 131 283 180 283 c 256
185 -2 m 258
 1023 -2 l 258
 1074 -2 1102 28 1102 73 c 256
 1102 117 1074 148 1027 148 c 258
 192 148 l 258
 141 148 115 116 115 74 c 256
 115 37 138 -2 185 -2 c 258
EndSplineSet
EndChar

StartChar: guillemotleft
Encoding: 171 171 236
Width: 1206
VWidth: 0
GlyphClass: 2
Flags: W
LayerCount: 2
Fore
SplineSet
479 44 m 256
 534 44 572 80 572 135 c 256
 571 148 566 162 561 175 c 258
 397 534 l 257
 556 882 l 258
 564 900 572 921 572 936 c 256
 572 986 531 1024 482 1024 c 256
 444 1024 408 1004 379 956 c 257
 140 534 l 257
 369 131 l 258
 401 74 436 44 479 44 c 256
934 44 m 258
 989 44 1028 80 1028 135 c 256
 1027 149 1022 162 1017 175 c 258
 853 534 l 257
 1012 882 l 258
 1020 900 1028 920 1028 936 c 256
 1028 986 986 1024 937 1024 c 256
 901 1024 864 1004 835 956 c 257
 595 534 l 257
 824 131 l 258
 855 74 892 44 932 44 c 258
 934 44 l 258
EndSplineSet
EndChar

StartChar: guillemotright
Encoding: 187 187 237
Width: 1206
VWidth: 0
GlyphClass: 2
Flags: W
LayerCount: 2
Fore
SplineSet
267 44 m 256
 308 44 343 72 377 131 c 258
 607 534 l 257
 377 936 l 258
 343 994 307 1023 266 1023 c 256
 215 1023 174 988 174 937 c 256
 174 918 181 901 189 883 c 258
 349 534 l 257
 189 185 l 258
 181 166 174 147 174 130 c 256
 174 75 219 44 267 44 c 256
723 44 m 256
 765 44 798 72 832 131 c 258
 1062 534 l 257
 832 936 l 258
 798 994 763 1023 721 1023 c 256
 672 1023 629 988 629 938 c 256
 629 920 637 901 645 882 c 258
 805 534 l 257
 645 186 l 258
 637 167 630 147 630 130 c 256
 630 77 673 44 723 44 c 256
EndSplineSet
EndChar

StartChar: guilsinglleft
Encoding: 8249 8249 238
Width: 622
VWidth: 0
GlyphClass: 2
Flags: W
LayerCount: 2
Fore
SplineSet
421 46 m 256
 469 46 512 81 512 130 c 256
 512 144 509 157 503 170 c 258
 336 535 l 257
 502 893 l 258
 508 907 512 923 512 938 c 256
 512 986 469 1022 422 1022 c 256
 386 1022 351 1004 322 955 c 258
 83 535 l 257
 319 123 l 257
 347 70 384 46 421 46 c 256
EndSplineSet
EndChar

StartChar: guilsinglright
Encoding: 8250 8250 239
Width: 622
VWidth: 0
GlyphClass: 2
Flags: W
LayerCount: 2
Fore
SplineSet
203 46 m 256
 240 46 277 70 307 124 c 258
 542 535 l 257
 307 945 l 258
 276 999 239 1022 202 1022 c 256
 153 1022 112 985 112 937 c 256
 112 923 116 907 122 893 c 258
 288 535 l 257
 122 175 l 258
 116 161 112 145 112 131 c 256
 112 81 155 46 203 46 c 256
EndSplineSet
EndChar

StartChar: h
Encoding: 104 104 240
Width: 1196
VWidth: 0
GlyphClass: 2
Flags: W
PickledData: "(dp1
S'b'
(dp2
sS'anchors'
p3
(tsS'lib'
p4
(dp5
sS'unicodes'
p6
(tsS'y'
I113
sS'width'
p7
I1195
sS'points'
p8
(dp9
sS'contours'
p10
(dp11
sS'components'
p12
(tsS'segmentType'
p13
S'curve'
p14
sS'x'
I137
sS'com.typemytype.robofont.layerData'
p15
(dp16
S'b'
(dp17
S'name'
p18
S'h'
sg4
(dp19
sg6
(tsg7
I1148
sg10
(tsg12
(tsg3
(tsssg18
S'h'
s."
LayerCount: 2
Fore
SplineSet
1070 636 m 258
 1070 904 896 1017 704 1017 c 256
 552 1017 445 958 384 867 c 257
 384 1305 l 258
 384 1395 328 1442 257 1442 c 256
 187 1442 132 1395 132 1305 c 258
 133 138 l 258
 133 48 188 0 258 0 c 256
 330 0 384 48 384 138 c 258
 384 568 l 258
 384 739 504 846 632 846 c 256
 736 846 819 778 819 634 c 258
 819 138 l 258
 819 48 875 0 944 0 c 256
 1015 0 1070 48 1070 138 c 258
 1070 636 l 258
EndSplineSet
EndChar

StartChar: hungarumlaut
Encoding: 733 733 243
Width: 569
VWidth: 0
GlyphClass: 4
Flags: W
AnchorPoint: "top" 174 1040 mark 0
LayerCount: 2
Fore
SplineSet
-18 1137 m 256
 -2 1137 13 1142 30 1156 c 258
 341 1410 l 258
 364 1429 374 1451 374 1476 c 256
 374 1532 313 1588 256 1588 c 256
 228 1588 201 1573 180 1540 c 257
 -61 1234 l 258
 -71 1221 -75 1207 -76 1193 c 256
 -76 1161 -49 1137 -18 1137 c 256
371 1136 m 256
 389 1136 402 1142 419 1156 c 258
 731 1410 l 257
 753 1430 763 1453 763 1475 c 256
 763 1531 702 1588 645 1588 c 256
 617 1588 590 1573 569 1541 c 257
 328 1234 l 258
 318 1221 314 1208 314 1195 c 256
 314 1163 337 1136 371 1136 c 256
EndSplineSet
EndChar

StartChar: hyphen
Encoding: 45 45 244
Width: 678
VWidth: 0
GlyphClass: 2
Flags: W
LayerCount: 2
Fore
SplineSet
136 435 m 258
 537 435 l 258
 596 435 641 477 641 533 c 256
 641 590 598 631 537 631 c 258
 141 631 l 258
 80 631 37 590 37 533 c 256
 37 477 80 435 136 435 c 258
EndSplineSet
EndChar

StartChar: i
Encoding: 105 105 245
Width: 511
VWidth: 0
GlyphClass: 2
Flags: W
LayerCount: 2
Fore
SplineSet
263 0 m 256
 334 0 389 49 389 140 c 258
 389 862 l 258
 389 954 334 1003 263 1003 c 256
 192 1003 138 954 138 862 c 258
 138 140 l 258
 138 48 192 0 263 0 c 256
263 1203 m 256
 350 1203 409 1259 409 1342 c 256
 409 1425 351 1480 264 1480 c 256
 176 1480 117 1425 117 1342 c 256
 117 1259 176 1203 263 1203 c 256
EndSplineSet
EndChar

StartChar: infinity
Encoding: 8734 8734 254
Width: 1648
VWidth: 0
GlyphClass: 2
Flags: W
LayerCount: 2
Fore
SplineSet
431 245 m 256
 603 245 714 358 826 487 c 257
 969 309 1085 245 1210 245 c 256
 1381 245 1545 377 1545 602 c 258
 1545 605 l 258
 1545 810 1405 945 1218 945 c 256
 1034 945 929 809 835 706 c 257
 723 841 607 945 448 945 c 256
 250 945 102 797 102 591 c 256
 102 389 256 245 431 245 c 256
448 378 m 258
 321 378 239 478 239 592 c 256
 239 718 316 815 438 815 c 256
 581 815 666 699 753 587 c 257
 673 495 575 378 451 378 c 258
 448 378 l 258
1215 378 m 256
 1110 378 1033 442 902 599 c 257
 972 674 1073 815 1207 815 c 258
 1210 815 l 258
 1327 815 1408 722 1408 592 c 256
 1408 488 1337 378 1215 378 c 256
EndSplineSet
EndChar

StartChar: integral
Encoding: 8747 8747 255
Width: 805
VWidth: 0
GlyphClass: 2
Flags: W
LayerCount: 2
Fore
SplineSet
181 -352 m 256
 362 -352 524 -250 524 201 c 256
 524 556 492 881 492 1214 c 256
 492 1499 537 1618 662 1622 c 256
 732 1626 773 1657 773 1705 c 256
 773 1748 735 1789 649 1789 c 256
 422 1789 290 1625 290 1238 c 256
 290 895 323 563 323 203 c 256
 323 -103 251 -176 162 -176 c 256
 84 -176 47 -215 47 -260 c 256
 47 -305 88 -350 181 -352 c 256
EndSplineSet
EndChar

StartChar: j
Encoding: 106 106 258
Width: 535
VWidth: 0
GlyphClass: 2
Flags: W
LayerCount: 2
Fore
SplineSet
16 -383 m 256
 353 -383 401 -267 401 -8 c 258
 401 866 l 258
 401 957 346 1003 275 1003 c 256
 205 1003 149 955 149 864 c 258
 149 -21 l 258
 149 -178 128 -198 8 -199 c 256
 -44 -199 -70 -244 -70 -289 c 256
 -70 -336 -42 -383 16 -383 c 256
265 1203 m 256
 352 1203 411 1259 411 1342 c 256
 411 1425 353 1480 266 1480 c 256
 178 1480 119 1425 119 1342 c 256
 119 1259 178 1203 265 1203 c 256
EndSplineSet
EndChar

StartChar: k
Encoding: 107 107 260
Width: 1057
VWidth: 0
GlyphClass: 2
Flags: W
PickledData: "(dp1
S'com.typemytype.robofont.layerData'
p2
(dp3
S'b'
(dp4
S'name'
p5
S'k'
sS'lib'
p6
(dp7
sS'unicodes'
p8
(tsS'width'
p9
I984
sS'contours'
p10
((dp11
S'points'
p12
((dp13
S'segmentType'
p14
S'line'
p15
sS'x'
I318
sS'smooth'
p16
I0
sS'y'
I536
s(dp17
g14
S'line'
p18
sS'x'
I793
sg16
I1
sS'y'
I27
s(dp19
S'y'
I9
sS'x'
I809
sg16
I0
s(dp20
S'y'
I1
sS'x'
I828
sg16
I0
s(dp21
g14
S'curve'
p22
sS'x'
I845
sg16
I1
sS'y'
I1
s(dp23
S'y'
I1
sS'x'
I883
sg16
I0
s(dp24
S'y'
I33
sS'x'
I922
sg16
I0
s(dp25
g14
S'curve'
p26
sS'x'
I922
sg16
I1
sS'y'
I71
s(dp27
S'y'
I84
sS'x'
I922
sg16
I0
s(dp28
S'y'
I99
sS'x'
I918
sg16
I0
s(dp29
g14
S'curve'
p30
sS'x'
I906
sg16
I1
sS'y'
I112
s(dp31
g14
S'line'
p32
sS'x'
I492
sg16
I0
sS'y'
I554
s(dp33
g14
S'line'
p34
sS'x'
I873
sg16
I1
sS'y'
I889
s(dp35
S'y'
I902
sS'x'
I888
sg16
I0
s(dp36
S'y'
I918
sS'x'
I894
sg16
I0
s(dp37
g14
S'curve'
p38
sS'x'
I894
sg16
I1
sS'y'
I933
s(dp39
S'y'
I968
sS'x'
I894
sg16
I0
s(dp40
S'y'
I1002
sS'x'
I858
sg16
I0
s(dp41
g14
S'curve'
p42
sS'x'
I821
sg16
I1
sS'y'
I1002
s(dp43
S'y'
I1002
sS'x'
I802
sg16
I0
s(dp44
S'y'
I994
sS'x'
I785
sg16
I0
s(dp45
g14
S'curve'
p46
sS'x'
I770
sg16
I0
sS'y'
I979
s(dp47
g14
S'line'
p48
sS'x'
I318
sg16
I0
sS'y'
I574
stp49
stp50
sS'components'
p51
(tsS'anchors'
p52
(tsss."
AnchorPoint: "bot" 564 0 basechar 0
LayerCount: 2
Fore
SplineSet
257 0 m 256
 328 0 385 49 385 141 c 258
 385 503 l 257
 821 39 l 257
 847 9 878 -3 908 -3 c 256
 969 -3 1025 49 1025 109 c 256
 1025 133 1016 158 995 181 c 258
 650 541 l 257
 952 831 l 257
 972 852 980 876 980 900 c 256
 980 959 929 1016 872 1016 c 256
 848 1016 822 1006 799 981 c 257
 385 569 l 257
 385 1301 l 258
 385 1393 330 1442 259 1442 c 256
 189 1442 134 1393 134 1301 c 258
 134 141 l 258
 134 49 188 0 257 0 c 256
EndSplineSet
EndChar

StartChar: kgreenlandic
Encoding: 312 312 262
Width: 1060
VWidth: 0
GlyphClass: 2
Flags: W
PickledData: "(dp1
S'com.typemytype.robofont.layerData'
p2
(dp3
S'b'
(dp4
S'name'
p5
S'kgreenlandic'
p6
sS'lib'
p7
(dp8
sS'unicodes'
p9
(tsS'width'
p10
I1047
sS'contours'
p11
(tsS'components'
p12
(tsS'anchors'
p13
(tsss."
LayerCount: 2
Fore
SplineSet
264 0 m 256
 335 0 392 49 392 141 c 258
 392 492 l 257
 827 39 l 257
 853 10 884 -3 914 -3 c 256
 975 -3 1032 50 1032 109 c 256
 1032 133 1022 158 1001 181 c 258
 656 532 l 257
 954 828 l 258
 974 849 982 874 982 898 c 256
 982 958 931 1016 874 1016 c 256
 850 1016 826 1006 803 981 c 258
 392 558 l 257
 392 877 l 258
 392 968 337 1017 266 1017 c 256
 196 1017 141 968 141 877 c 258
 141 141 l 258
 141 49 195 0 264 0 c 256
EndSplineSet
EndChar

StartChar: l
Encoding: 108 108 263
Width: 524
VWidth: 0
GlyphClass: 2
Flags: W
PickledData: "(dp1
S'com.typemytype.robofont.layerData'
p2
(dp3
S'b'
(dp4
S'name'
p5
S'l'
sS'lib'
p6
(dp7
sS'unicodes'
p8
(tsS'width'
p9
I511
sS'contours'
p10
(tsS'components'
p11
(tsS'anchors'
p12
(tsss."
AnchorPoint: "bot" 260 0 basechar 0
AnchorPoint: "caron.alt" 263 1030 basechar 0
AnchorPoint: "top" 232 1441 basechar 0
LayerCount: 2
Fore
SplineSet
261 0 m 256
 332 0 390 49 390 140 c 258
 390 1301 l 258
 390 1392 334 1441 263 1441 c 256
 193 1441 138 1392 138 1301 c 258
 138 140 l 258
 138 48 192 0 261 0 c 256
EndSplineSet
EndChar

StartChar: less
Encoding: 60 60 268
Width: 1308
VWidth: 0
GlyphClass: 2
Flags: W
PickledData: "(dp1
S'com.typemytype.robofont.layerData'
p2
(dp3
S'b'
(dp4
S'name'
p5
S'less'
p6
sS'lib'
p7
(dp8
sS'unicodes'
p9
(tsS'width'
p10
I1340
sS'contours'
p11
(tsS'components'
p12
(tsS'anchors'
p13
(tsss."
LayerCount: 2
Fore
SplineSet
1027 27 m 258
 1033 25 1038 24 1044 24 c 256
 1086 24 1122 88 1122 141 c 256
 1122 169 1112 193 1088 203 c 258
 381 502 l 257
 1086 788 l 258
 1118 801 1130 827 1130 855 c 256
 1130 908 1085 970 1041 970 c 256
 1035 970 1029 968 1023 966 c 258
 209 629 l 258
 146 602 118 552 118 503 c 256
 118 454 147 406 193 385 c 258
 1027 27 l 258
EndSplineSet
EndChar

StartChar: lessequal
Encoding: 8804 8804 269
Width: 1210
VWidth: 0
GlyphClass: 2
Flags: W
LayerCount: 2
Fore
SplineSet
1034 276 m 256
 1080 276 1113 318 1113 361 c 256
 1113 394 1092 422 1054 439 c 258
 309 753 l 257
 1052 1056 l 258
 1092 1073 1113 1100 1113 1134 c 256
 1113 1178 1077 1221 1031 1221 c 256
 1018 1221 1002 1215 989 1208 c 257
 143 860 l 258
 87 836 61 798 61 754 c 256
 61 714 85 675 136 654 c 258
 990 289 l 258
 1004 282 1021 276 1034 276 c 256
167 -2 m 258
 1005 -2 l 258
 1055 -2 1083 29 1083 73 c 256
 1083 117 1056 148 1009 148 c 258
 174 148 l 258
 123 148 97 116 97 74 c 256
 97 37 119 -2 167 -2 c 258
EndSplineSet
EndChar

StartChar: logicalnot
Encoding: 172 172 270
Width: 1309
VWidth: 0
GlyphClass: 2
Flags: W
LayerCount: 2
Fore
SplineSet
1081 236 m 256
 1124 236 1169 264 1169 324 c 258
 1169 726 l 258
 1169 786 1122 823 1071 823 c 258
 233 823 l 258
 172 823 142 783 142 733 c 256
 142 675 178 643 237 643 c 258
 992 643 l 257
 992 336 l 258
 992 269 1031 236 1081 236 c 256
EndSplineSet
EndChar

StartChar: lozenge
Encoding: 9674 9674 271
Width: 1289
VWidth: 0
GlyphClass: 2
Flags: W
LayerCount: 2
Fore
SplineSet
640 -101 m 256
 676 -101 712 -81 737 -37 c 258
 1167 724 l 257
 768 1443 l 257
 736 1503 696 1560 646 1560 c 256
 601 1560 568 1526 538 1469 c 257
 125 724 l 257
 522 13 l 257
 553 -45 589 -101 640 -101 c 256
642 148 m 257
 321 730 l 257
 639 1305 l 257
 646 1305 l 257
 966 719 l 257
 649 148 l 257
 642 148 l 257
EndSplineSet
EndChar

StartChar: lslash
Encoding: 322 322 272
Width: 696
VWidth: 0
GlyphClass: 2
Flags: HW
LayerCount: 2
Back
SplineSet
197 787.893554688 m 5
 63 699 l 6
 39.158203125 682.767578125 29 658 29 633 c 4
 29 589 61 544 103 544 c 4
 115 544 127.813476562 547.282226562 141 556 c 6
 197 591.155273438 l 5
 605 853 l 6
 627.102539062 867.84765625 637 889 637 912 c 4
 637 957 601 1005 558 1005 c 4
 546 1005 533.970703125 1002.04296875 522 994 c 6
 197 787.893554688 l 5
EndSplineSet
Fore
SplineSet
349 0 m 0
 420 0 478 49 478 140 c 2
 478 733.338867188 l 5
 641 840 l 6
 666 856 676 880 676 906 c 4
 676 956 636 1011 588 1011 c 4
 575 1011 562 1007 548 998 c 6
 478 952.926757812 l 5
 478 1301 l 2
 478 1392 422 1441 351 1441 c 0
 281 1441 226 1392 226 1301 c 2
 226 791 l 5
 109 716 l 6
 82 699 71 670 71 642 c 4
 71 593 106 542 153 542 c 4
 166 542 181 547 196 556 c 6
 226 574.163085938 l 5
 226 140 l 2
 226 48 280 0 349 0 c 0
EndSplineSet
EndChar

StartChar: m
Encoding: 109 109 273
Width: 1876
VWidth: 0
GlyphClass: 2
Flags: W
PickledData: "(dp1
S'b'
(dp2
sS'anchors'
p3
(tsS'lib'
p4
(dp5
sS'unicodes'
p6
(tsS'width'
p7
I1877
sS'contours'
p8
(tsS'components'
p9
(tsS'com.typemytype.robofont.layerData'
p10
(dp11
S'b'
(dp12
S'name'
p13
S'm'
sg4
(dp14
sg6
(tsg7
I1838
sg8
(tsg9
(tsg3
(tsssg13
S'm'
s."
AnchorPoint: "top" 991 1021 basechar 0
LayerCount: 2
Fore
SplineSet
256 0 m 256
 327 0 385 47 385 138 c 258
 385 578 l 258
 385 744 482 846 627 846 c 256
 743 846 815 775 815 628 c 258
 815 138 l 258
 815 48 871 0 939 0 c 256
 1011 0 1066 48 1066 138 c 258
 1066 553 l 258
 1066 739 1169 846 1310 846 c 256
 1425 846 1498 776 1498 634 c 258
 1498 138 l 258
 1498 47 1553 0 1622 0 c 256
 1693 0 1749 47 1749 138 c 258
 1749 636 l 258
 1749 898 1592 1016 1385 1016 c 256
 1230 1016 1100 955 1033 797 c 257
 991 931 876 1016 706 1016 c 256
 571 1016 453 967 385 834 c 257
 385 884 l 258
 385 963 325 1003 259 1003 c 256
 188 1003 133 958 133 869 c 258
 133 138 l 258
 133 47 188 0 256 0 c 256
EndSplineSet
EndChar

StartChar: macron
Encoding: 175 175 274
Width: 569
VWidth: 0
GlyphClass: 4
Flags: W
AnchorPoint: "mid" 293 1350 mark 0
AnchorPoint: "top" 293 1030 mark 0
LayerCount: 2
Fore
SplineSet
10 1257 m 258
 561 1257 l 258
 616 1257 641 1295 641 1340 c 256
 641 1387 612 1423 561 1423 c 258
 12 1423 l 258
 -43 1423 -70 1383 -70 1340 c 256
 -70 1295 -42 1257 10 1257 c 258
EndSplineSet
EndChar

StartChar: minus
Encoding: 8722 8722 276
Width: 778
VWidth: 0
GlyphClass: 2
Flags: W
LayerCount: 2
Fore
SplineSet
140 432 m 258
 628 432 l 258
 695 432 732 477 732 533 c 256
 732 594 691 634 628 634 c 258
 145 634 l 258
 76 634 41 590 41 534 c 256
 41 480 76 432 140 432 c 258
EndSplineSet
EndChar

StartChar: mu
Encoding: 181 181 277
Width: 1204
VWidth: 0
GlyphClass: 2
Flags: W
LayerCount: 2
Fore
SplineSet
256 -292 m 256
 328 -292 385 -233 385 -144 c 258
 385 36 l 257
 423 18 467 10 515 10 c 256
 638 10 768 69 820 187 c 257
 820 124 l 257
 822 42 879 1 945 1 c 256
 1022 1 1071 60 1071 154 c 258
 1071 866 l 258
 1071 955 1015 1001 946 1001 c 256
 874 1001 820 943 820 855 c 258
 820 383 l 257
 809 221 702 145 575 145 c 256
 468 145 385 219 385 364 c 258
 385 854 l 258
 385 953 327 1001 258 1001 c 256
 194 1001 133 957 133 876 c 258
 133 -153 l 258
 133 -246 188 -292 256 -292 c 256
EndSplineSet
EndChar

StartChar: multiply
Encoding: 215 215 278
Width: 1309
VWidth: 0
GlyphClass: 2
Flags: W
LayerCount: 2
Fore
SplineSet
356 114 m 256
 378 114 400 125 422 149 c 257
 654 377 l 257
 881 154 l 257
 898 135 917 122 940 122 c 258
 943 122 l 258
 990 122 1035 168 1035 216 c 256
 1035 239 1023 264 1004 285 c 257
 779 505 l 257
 1011 732 l 258
 1032 753 1043 777 1043 802 c 256
 1043 851 1002 892 955 892 c 256
 931 892 908 877 888 856 c 257
 656 629 l 257
 429 853 l 258
 409 874 388 885 364 885 c 256
 317 884 274 837 274 791 c 256
 274 767 285 744 305 723 c 257
 531 502 l 257
 299 275 l 257
 279 253 266 230 266 204 c 256
 266 157 310 114 356 114 c 256
EndSplineSet
EndChar

StartChar: n
Encoding: 110 110 279
Width: 1194
VWidth: 0
GlyphClass: 2
Flags: W
PickledData: "(dp1
S'b'
(dp2
sS'anchors'
p3
(tsS'lib'
p4
(dp5
sS'unicodes'
p6
(tsS'y'
I113
sS'width'
p7
I1195
sS'points'
p8
(dp9
sS'contours'
p10
(dp11
sS'components'
p12
(tsS'segmentType'
p13
S'curve'
p14
sS'x'
I137
sS'com.typemytype.robofont.layerData'
p15
(dp16
S'b'
(dp17
S'name'
p18
S'n'
sg4
(dp19
sg6
(tsg7
I1152
sg10
(tsg12
(tsg3
(tsssg18
S'n'
s."
AnchorPoint: "bot" 609 0 basechar 0
AnchorPoint: "top" 624 991 basechar 0
LayerCount: 2
Fore
SplineSet
257 0 m 256
 328 0 383 48 383 138 c 258
 383 561 l 258
 383 736 501 846 629 846 c 256
 733 846 819 778 819 634 c 258
 819 138 l 258
 819 48 874 0 942 0 c 256
 1014 0 1070 48 1070 138 c 258
 1070 633 l 258
 1070 897 901 1017 713 1017 c 256
 557 1017 442 957 383 844 c 257
 383 879 l 258
 383 961 328 1003 259 1003 c 256
 189 1003 132 961 132 877 c 258
 132 138 l 258
 132 48 187 0 257 0 c 256
EndSplineSet
EndChar

StartChar: nine
Encoding: 57 57 284
Width: 1231
VWidth: 0
GlyphClass: 2
Flags: W
PickledData: "(dp1
S'com.typemytype.robofont.layerData'
p2
(dp3
S'b'
(dp4
S'name'
p5
S'nine'
p6
sS'lib'
p7
(dp8
sS'unicodes'
p9
(tsS'width'
p10
I1160
sS'contours'
p11
(tsS'components'
p12
(tsS'anchors'
p13
(tsss."
LayerCount: 2
Fore
SplineSet
526 -25 m 256
 1025 -25 1156 358 1156 808 c 256
 1156 1182 1003 1480 590 1480 c 256
 269 1480 69 1279 69 997 c 256
 69 719 277 541 544 541 c 256
 710 541 832 610 868 683 c 257
 868 406 811 200 530 200 c 256
 455 200 370 221 281 253 c 256
 272 256 264 258 256 258 c 256
 201 258 160 191 160 131 c 256
 160 95 175 61 210 46 c 257
 306 0 420 -25 526 -25 c 256
583 732 m 256
 414 732 339 843 339 1005 c 256
 339 1178 435 1265 600 1265 c 256
 752 1265 853 1168 853 1010 c 256
 853 835 758 732 583 732 c 256
EndSplineSet
EndChar

StartChar: notequal
Encoding: 8800 8800 285
Width: 1183
VWidth: 0
GlyphClass: 2
Flags: W
LayerCount: 2
Fore
SplineSet
374 -31 m 256
 409 -31 441 -9 459 36 c 257
 562 268 l 257
 1026 268 l 258
 1089 268 1119 307 1119 357 c 256
 1119 410 1084 446 1026 446 c 258
 633 446 l 257
 741 694 l 257
 1026 694 l 258
 1087 694 1118 732 1118 781 c 256
 1118 836 1083 871 1026 871 c 258
 810 871 l 257
 886 1036 l 257
 892 1053 895 1069 896 1085 c 256
 896 1134 853 1166 808 1167 c 256
 769 1167 739 1148 720 1101 c 257
 620 871 l 257
 188 871 l 258
 125 871 95 832 95 782 c 256
 95 737 124 694 182 694 c 258
 551 694 l 257
 442 446 l 257
 188 446 l 258
 126 446 96 407 96 357 c 256
 96 303 131 268 188 268 c 258
 373 268 l 257
 297 102 l 257
 290 84 286 68 286 54 c 256
 286 3 328 -31 374 -31 c 256
EndSplineSet
EndChar

StartChar: numbersign
Encoding: 35 35 287
Width: 1244
VWidth: 0
GlyphClass: 2
Flags: W
PickledData: "(dp1
S'com.typemytype.robofont.layerData'
p2
(dp3
S'b'
(dp4
S'name'
p5
S'numbersign'
p6
sS'lib'
p7
(dp8
sS'unicodes'
p9
(tsS'width'
p10
I1169
sS'contours'
p11
(tsS'components'
p12
(tsS'anchors'
p13
(tsss."
LayerCount: 2
Fore
SplineSet
328 -37 m 256
 372 -37 406 -6 414 48 c 258
 472 440 l 257
 703 440 l 257
 658 163 647 52 647 48 c 256
 646 -7 688 -37 731 -37 c 256
 773 -37 807 -6 814 44 c 258
 873 440 l 257
 992 440 l 258
 1049 440 1077 475 1077 521 c 256
 1077 571 1044 604 992 604 c 258
 895 604 l 257
 932 856 l 257
 1049 856 l 258
 1106 856 1134 891 1134 937 c 256
 1134 986 1102 1020 1049 1020 c 258
 954 1020 l 257
 997 1273 1007 1374 1007 1377 c 256
 1009 1433 968 1462 926 1462 c 256
 886 1462 845 1436 838 1382 c 258
 785 1020 l 257
 554 1020 l 257
 597 1273 606 1368 606 1371 c 256
 608 1429 567 1460 526 1460 c 258
 524 1460 l 258
 484 1460 445 1435 438 1382 c 258
 384 1020 l 257
 251 1020 l 258
 195 1020 166 983 166 938 c 256
 166 889 199 856 251 856 c 258
 362 856 l 257
 325 604 l 257
 191 604 l 258
 137 604 110 567 109 525 c 256
 109 474 140 440 193 440 c 258
 303 440 l 257
 257 163 247 61 247 57 c 258
 247 51 l 258
 247 -7 287 -37 328 -37 c 256
495 604 m 257
 531 856 l 257
 762 856 l 257
 726 604 l 257
 495 604 l 257
EndSplineSet
EndChar

StartChar: o
Encoding: 111 111 288
Width: 1209
VWidth: 0
GlyphClass: 2
Flags: W
PickledData: "(dp1
S'b'
(dp2
sS'anchors'
p3
(tsS'com.typemytype.robofont.layerData'
p4
(dp5
S'b'
(dp6
S'name'
p7
S'o'
sS'lib'
p8
(dp9
sS'unicodes'
p10
(tsS'width'
p11
I1144
sS'contours'
p12
(tsS'components'
p13
(tsg3
(tsssg10
(tsg7
S'o'
sg11
I1199
sg12
(tsg13
(tsg8
(dp14
sS'com.typemytype.robofont.guides'
p15
(ts."
AnchorPoint: "top" 603 991 basechar 0
LayerCount: 2
Fore
SplineSet
604 159 m 256
 431 159 331 286 331 501 c 256
 331 719 430 846 604 846 c 256
 777 846 878 719 878 501 c 256
 878 285 777 159 604 159 c 256
604 -12 m 256
 968 -12 1129 244 1129 501 c 256
 1129 776 956 1017 604 1017 c 256
 243 1017 80 764 80 501 c 256
 80 239 242 -12 604 -12 c 256
EndSplineSet
EndChar

StartChar: oe
Encoding: 339 339 293
Width: 1862
VWidth: 0
GlyphClass: 2
Flags: W
LayerCount: 2
Fore
SplineSet
1299 -30 m 256
 1493 -30 1711 45 1711 168 c 256
 1711 207 1686 243 1649 243 c 256
 1638 243 1627 240 1616 235 c 256
 1543 201 1453 156 1348 156 c 256
 1140 156 1070 284 1067 455 c 257
 1686 455 l 258
 1739 455 1768 485 1768 530 c 256
 1763 821 1616 1033 1307 1033 c 256
 1145 1033 1024 956 946 841 c 257
 871 953 752 1028 585 1028 c 256
 240 1028 74 784 74 501 c 256
 74 220 242 -23 585 -23 c 256
 750 -23 867 53 943 168 c 257
 1017 46 1136 -30 1299 -30 c 256
585 141 m 256
 404 141 331 312 331 501 c 256
 331 692 405 861 585 861 c 256
 767 861 833 684 833 492 c 257
 828 304 758 141 585 141 c 256
1064 591 m 257
 1075 751 1154 871 1299 871 c 256
 1450 871 1527 763 1537 591 c 257
 1064 591 l 257
EndSplineSet
EndChar

StartChar: ogonek
Encoding: 731 731 294
Width: 569
VWidth: 0
GlyphClass: 4
Flags: W
AnchorPoint: "ogonek" 243 0 mark 0
LayerCount: 2
Fore
SplineSet
459 -437 m 257
 459 -321 l 257
 377 -321 259 -295 259 -175 c 256
 259 -131 275 -73 315 0 c 257
 195 0 l 257
 108 -102 71 -197 71 -275 c 256
 71 -396 160 -475 291 -475 c 256
 342 -475 399 -463 459 -437 c 257
EndSplineSet
EndChar

StartChar: one
Encoding: 49 49 298
Width: 1231
VWidth: 0
GlyphClass: 2
Flags: W
PickledData: "(dp1
S'com.typemytype.robofont.layerData'
p2
(dp3
S'b'
(dp4
S'name'
p5
S'one'
p6
sS'lib'
p7
(dp8
sS'unicodes'
p9
(tsS'width'
p10
I1160
sS'contours'
p11
(tsS'components'
p12
(tsS'anchors'
p13
(tsss."
LayerCount: 2
Fore
SplineSet
687 0 m 256
 767 0 828 62 828 161 c 258
 827 1277 l 258
 827 1386 768 1442 693 1442 c 256
 665 1441 637 1431 612 1416 c 258
 258 1207 l 258
 221 1184 206 1154 206 1121 c 256
 206 1068 248 1018 302 1018 c 256
 318 1018 337 1022 353 1033 c 257
 547 1152 l 257
 548 167 l 258
 548 56 610 0 687 0 c 256
EndSplineSet
EndChar

StartChar: onehalf
Encoding: 189 189 299
Width: 1677
VWidth: 0
GlyphClass: 2
Flags: W
LayerCount: 2
Fore
SplineSet
1061 -1 m 258
 1497 -1 l 258
 1536 -1 1557 25 1557 58 c 256
 1557 94 1531 122 1490 122 c 258
 1167 122 l 257
 1337 255 1551 457 1551 625 c 256
 1551 763 1434 837 1280 837 c 256
 1187 837 1014 787 1014 718 c 256
 1014 688 1037 661 1069 661 c 256
 1078 661 1088 663 1096 667 c 256
 1140 686 1201 711 1261 711 c 256
 1330 711 1395 678 1395 609 c 256
 1395 531 1340 460 1165 277 c 257
 1066 183 977 136 977 69 c 256
 977 25 1007 -1 1061 -1 c 258
405 604 m 256
 447 604 476 637 476 688 c 258
 476 1328 l 258
 476 1387 449 1417 411 1417 c 256
 395 1417 380 1411 367 1403 c 258
 166 1283 l 257
 145 1268 136 1252 136 1233 c 256
 136 1204 160 1175 191 1175 c 256
 201 1175 211 1178 220 1184 c 258
 334 1253 l 257
 334 692 l 258
 334 634 364 604 405 604 c 256
556 -72 m 256
 586 -72 616 -57 629 -17 c 258
 1092 1334 l 258
 1097 1350 1100 1367 1100 1381 c 256
 1100 1430 1061 1457 1020 1457 c 256
 986 1457 956 1428 942 1385 c 258
 485 50 l 258
 480 34 476 18 476 4 c 256
 476 -42 515 -72 556 -72 c 256
EndSplineSet
EndChar

StartChar: onequarter
Encoding: 188 188 300
Width: 1655
VWidth: 0
GlyphClass: 2
Flags: W
PickledData: "(dp1
S'com.typemytype.robofont.layerData'
p2
(dp3
S'b'
(dp4
S'name'
p5
S'onequarter'
p6
sS'lib'
p7
(dp8
sS'unicodes'
p9
(tsS'width'
p10
I1543
sS'contours'
p11
(tsS'components'
p12
(tsS'anchors'
p13
(tsss."
LayerCount: 2
Fore
SplineSet
1373 1 m 256
 1410 1 1440 33 1440 83 c 258
 1440 181 l 257
 1508 181 l 258
 1545 181 1562 205 1562 230 c 256
 1562 258 1543 280 1504 280 c 258
 1440 280 l 257
 1440 705 l 258
 1440 793 1404 837 1343 837 c 256
 1288 837 1249 815 1212 745 c 257
 920 285 l 258
 911 269 907 254 907 241 c 256
 907 201 939 181 987 181 c 258
 1306 181 l 257
 1306 87 l 258
 1306 31 1336 1 1373 1 c 256
405 604 m 256
 447 604 476 637 476 688 c 258
 476 1328 l 258
 476 1387 449 1417 411 1417 c 256
 395 1417 380 1411 367 1403 c 258
 166 1283 l 257
 145 1268 136 1252 136 1233 c 256
 136 1204 160 1175 191 1175 c 256
 201 1175 211 1178 220 1184 c 258
 334 1253 l 257
 334 692 l 258
 334 634 364 604 405 604 c 256
563 -72 m 256
 593 -72 624 -57 637 -17 c 258
 1097 1326 l 257
 1102 1344 1107 1364 1107 1380 c 256
 1107 1429 1069 1457 1027 1457 c 256
 993 1457 963 1428 949 1385 c 258
 493 50 l 258
 488 34 484 18 484 5 c 256
 484 -42 523 -72 563 -72 c 256
1041 277 m 257
 1306 709 l 257
 1306 277 l 257
 1041 277 l 257
EndSplineSet
EndChar

StartChar: uni00B9
Encoding: 185 185 301
Width: 703
VWidth: 0
GlyphClass: 2
Flags: W
LayerCount: 2
Fore
SplineSet
424 604 m 256
 466 604 496 637 496 688 c 258
 496 1328 l 258
 496 1387 468 1417 430 1417 c 256
 414 1417 400 1411 387 1403 c 258
 186 1283 l 257
 164 1268 155 1252 155 1233 c 256
 155 1204 179 1175 210 1175 c 256
 221 1175 230 1178 240 1184 c 258
 353 1253 l 257
 353 692 l 258
 353 634 384 604 424 604 c 256
EndSplineSet
EndChar

StartChar: ordfeminine
Encoding: 170 170 302
Width: 1089
VWidth: 0
GlyphClass: 2
Flags: W
LayerCount: 2
Fore
SplineSet
385 724 m 256
 486 724 594 772 634 873 c 257
 635 826 l 258
 636 770 675 743 716 743 c 256
 765 743 799 782 799 841 c 258
 800 1227 l 258
 800 1435 672 1513 493 1513 c 256
 349 1513 240 1478 196 1401 c 256
 189 1392 186 1383 186 1374 c 256
 186 1345 209 1321 239 1321 c 256
 247 1321 254 1323 260 1325 c 256
 323 1351 384 1380 484 1380 c 256
 572 1380 630 1346 630 1250 c 258
 630 1200 l 257
 608 1201 575 1202 554 1202 c 256
 293 1201 131 1129 131 948 c 256
 131 806 241 724 385 724 c 256
441 835 m 257
 363 838 301 877 301 960 c 256
 301 1098 485 1099 624 1099 c 258
 630 1099 l 257
 630 1042 l 257
 626 908 547 837 441 835 c 257
EndSplineSet
EndChar

StartChar: ordmasculine
Encoding: 186 186 303
Width: 1065
VWidth: 0
GlyphClass: 2
Flags: W
LayerCount: 2
Fore
SplineSet
520 878 m 256
 376 878 316 1005 316 1131 c 256
 316 1260 377 1387 520 1387 c 256
 663 1387 723 1260 723 1135 c 256
 723 1005 663 878 520 878 c 256
519 754 m 256
 800 754 925 934 925 1133 c 256
 925 1336 798 1513 519 1513 c 256
 238 1513 115 1330 115 1133 c 256
 115 931 240 754 519 754 c 256
EndSplineSet
EndChar

StartChar: oslash
Encoding: 248 248 304
Width: 1215
VWidth: 0
GlyphClass: 2
Flags: W
AnchorPoint: "top" 579 991 basechar 0
LayerCount: 2
Fore
SplineSet
317 -176 m 256
 340 -176 363 -164 377 -135 c 258
 447 6 l 257
 494 -6 547 -12 604 -12 c 256
 968 -12 1129 244 1129 501 c 256
 1129 680 1056 844 908 937 c 257
 963 1049 l 258
 974 1071 986 1098 986 1119 c 256
 986 1160 952 1185 916 1185 c 256
 888 1185 865 1172 851 1144 c 258
 778 995 l 257
 726 1010 668 1017 604 1017 c 256
 243 1017 80 764 80 501 c 256
 80 323 155 149 317 57 c 257
 262 -55 l 257
 252 -73 246 -91 246 -109 c 256
 246 -147 279 -176 317 -176 c 256
813 746 m 257
 855 687 878 604 878 501 c 256
 878 285 777 159 604 159 c 256
 577 159 551 162 527 168 c 257
 813 746 l 257
698 832 m 257
 408 243 l 257
 358 302 331 389 331 501 c 256
 331 719 430 846 604 846 c 256
 638 846 670 842 698 832 c 257
EndSplineSet
EndChar

StartChar: p
Encoding: 112 112 307
Width: 1226
VWidth: 0
GlyphClass: 2
Flags: W
PickledData: "(dp1
S'b'
(dp2
sS'anchors'
p3
(tsS'lib'
p4
(dp5
sS'unicodes'
p6
(tsS'width'
p7
I1207
sS'contours'
p8
(tsS'components'
p9
(tsS'com.typemytype.robofont.layerData'
p10
(dp11
S'b'
(dp12
S'name'
p13
S'p'
sg4
(dp14
sg6
(tsg7
I1181
sg8
(tsg9
(tsg3
(tsssg13
S'p'
s."
LayerCount: 2
Fore
SplineSet
256 -379 m 256
 327 -379 383 -332 383 -243 c 258
 383 149 l 257
 448 42 553 -12 699 -12 c 256
 968 -12 1146 180 1146 496 c 256
 1146 789 986 1017 713 1017 c 256
 566 1017 450 965 383 843 c 257
 383 878 l 258
 383 962 332 1003 260 1003 c 256
 191 1003 132 950 132 860 c 258
 132 -243 l 258
 132 -332 187 -379 256 -379 c 256
646 159 m 256
 459 159 384 314 384 500 c 256
 384 718 449 846 649 846 c 256
 842 846 898 648 898 498 c 256
 898 330 836 159 646 159 c 256
EndSplineSet
EndChar

StartChar: paragraph
Encoding: 182 182 308
Width: 1310
VWidth: 0
GlyphClass: 2
Flags: W
LayerCount: 2
Fore
SplineSet
608 -188 m 256
 662 -188 700 -142 700 -77 c 258
 700 1292 l 257
 904 1292 l 257
 904 -77 l 258
 904 -146 943 -188 995 -188 c 256
 1046 -188 1087 -153 1087 -88 c 258
 1088 1284 l 258
 1088 1367 1080 1442 943 1442 c 258
 544 1441 l 258
 266 1441 110 1287 110 1073 c 256
 110 878 281 710 516 710 c 257
 516 -77 l 258
 516 -146 555 -188 608 -188 c 256
EndSplineSet
EndChar

StartChar: parenleft
Encoding: 40 40 309
Width: 650
VWidth: 0
GlyphClass: 2
Flags: W
LayerCount: 2
Fore
SplineSet
448 -245 m 256
 502 -245 544 -204 544 -143 c 256
 544 -121 537 -98 530 -74 c 256
 448 160 402 388 402 615 c 256
 402 847 450 1084 533 1320 c 256
 541 1344 547 1367 547 1388 c 256
 547 1451 502 1491 449 1491 c 256
 398 1491 354 1439 328 1366 c 256
 229 1115 151 866 151 612 c 256
 151 348 235 90 346 -173 c 256
 368 -227 411 -245 448 -245 c 256
EndSplineSet
EndChar

StartChar: parenright
Encoding: 41 41 310
Width: 650
VWidth: 0
GlyphClass: 2
Flags: W
LayerCount: 2
Fore
SplineSet
204 -246 m 256
 241 -246 287 -228 309 -173 c 256
 420 88 504 346 504 612 c 256
 504 862 426 1114 327 1366 c 256
 299 1439 258 1491 207 1491 c 256
 154 1491 108 1447 108 1389 c 256
 108 1365 115 1344 123 1320 c 256
 206 1083 253 846 253 616 c 256
 253 387 208 155 126 -75 c 256
 118 -99 111 -123 111 -145 c 256
 111 -204 151 -246 204 -246 c 256
EndSplineSet
EndChar

StartChar: partialdiff
Encoding: 8706 8706 311
Width: 1241
VWidth: 0
GlyphClass: 2
Flags: W
LayerCount: 2
Fore
SplineSet
549 -26 m 256
 919 -26 1140 329 1140 829 c 256
 1140 1361 884 1628 539 1628 c 256
 396 1628 281 1593 188 1556 c 256
 125 1530 101 1498 101 1456 c 256
 101 1407 140 1356 190 1356 c 256
 200 1356 211 1359 221 1363 c 256
 307 1398 410 1432 525 1432 c 256
 769 1432 905 1228 905 862 c 256
 905 845 905 825 903 814 c 257
 887 837 748 1004 554 1004 c 256
 285 1004 80 791 80 466 c 256
 80 241 227 -26 549 -26 c 256
571 167 m 258
 421 167 318 294 318 464 c 256
 318 657 443 816 604 816 c 256
 753 816 855 693 878 613 c 257
 855 392 743 167 573 167 c 258
 571 167 l 258
EndSplineSet
EndChar

StartChar: percent
Encoding: 37 37 312
Width: 2089
VWidth: 0
GlyphClass: 2
Flags: W
LayerCount: 2
Fore
SplineSet
637 -65 m 256
 669 -65 692 -31 711 5 c 258
 1448 1325 l 257
 1460 1350 1474 1377 1474 1399 c 256
 1474 1435 1443 1466 1408 1466 c 256
 1384 1466 1361 1454 1344 1423 c 258
 591 68 l 258
 579 47 566 18 566 3 c 256
 566 -34 599 -65 637 -65 c 256
532 754 m 256
 413 754 369 859 369 1023 c 256
 369 1187 415 1292 532 1292 c 256
 652 1292 696 1187 696 1023 c 256
 696 858 652 754 532 754 c 256
532 608 m 256
 751 608 893 781 893 1023 c 256
 893 1212 804 1438 532 1438 c 256
 309 1438 173 1261 173 1023 c 256
 173 764 308 608 532 608 c 256
1556 113 m 256
 1435 113 1393 219 1393 382 c 256
 1393 546 1436 652 1556 652 c 256
 1677 652 1719 542 1719 382 c 256
 1719 212 1670 113 1556 113 c 256
1556 -34 m 256
 1780 -34 1916 145 1916 382 c 256
 1916 569 1829 797 1556 797 c 256
 1333 797 1196 620 1196 382 c 256
 1196 125 1330 -34 1556 -34 c 256
EndSplineSet
EndChar

StartChar: period
Encoding: 46 46 313
Width: 623
VWidth: 0
GlyphClass: 2
Flags: W
LayerCount: 2
Fore
SplineSet
311 -4 m 256
 396 -4 455 61 455 137 c 256
 455 217 391 277 311 277 c 256
 224 277 167 210 167 137 c 256
 167 59 228 -4 311 -4 c 256
EndSplineSet
EndChar

StartChar: periodcentered
Encoding: 183 183 314
Width: 622
VWidth: 0
GlyphClass: 2
Flags: W
LayerCount: 2
Fore
SplineSet
310 374 m 256
 398 374 457 441 457 518 c 256
 457 595 397 661 310 661 c 256
 223 661 164 594 164 518 c 256
 164 441 223 374 310 374 c 256
EndSplineSet
EndChar

StartChar: perthousand
Encoding: 8240 8240 315
Width: 2328
VWidth: 0
GlyphClass: 2
Flags: W
LayerCount: 2
Fore
SplineSet
385 -65 m 256
 416 -65 439 -31 459 5 c 258
 1195 1325 l 258
 1208 1349 1222 1377 1222 1399 c 256
 1222 1437 1191 1466 1156 1466 c 256
 1132 1466 1109 1454 1093 1423 c 257
 339 68 l 258
 328 47 314 20 314 3 c 256
 314 -32 348 -65 385 -65 c 256
367 766 m 256
 246 766 205 878 205 1034 c 256
 205 1184 244 1301 367 1301 c 256
 489 1301 529 1187 529 1034 c 256
 529 865 480 766 367 766 c 256
362 629 m 256
 591 629 701 811 701 1041 c 256
 701 1270 574 1438 373 1438 c 256
 144 1438 34 1256 34 1028 c 256
 34 792 162 629 362 629 c 256
1186 104 m 256
 1062 104 1025 218 1025 371 c 256
 1025 523 1064 639 1186 639 c 256
 1306 639 1348 527 1348 371 c 256
 1348 205 1302 104 1186 104 c 256
1181 -34 m 256
 1409 -34 1520 148 1520 378 c 256
 1520 613 1391 776 1192 776 c 256
 964 776 853 594 853 365 c 256
 853 130 980 -34 1181 -34 c 256
1936 104 m 256
 1814 104 1775 218 1775 371 c 256
 1775 536 1821 639 1936 639 c 256
 2058 639 2099 524 2099 371 c 256
 2099 203 2051 104 1936 104 c 256
1932 -34 m 256
 2158 -34 2270 148 2270 378 c 256
 2270 607 2146 776 1943 776 c 256
 1714 776 1603 594 1603 365 c 256
 1603 127 1733 -34 1932 -34 c 256
EndSplineSet
EndChar

StartChar: pi
Encoding: 960 960 316
Width: 1305
VWidth: 0
GlyphClass: 2
Flags: W
PickledData: "(dp1
S'com.typemytype.robofont.layerData'
p2
(dp3
S'b'
(dp4
S'name'
p5
S'pi'
p6
sS'lib'
p7
(dp8
sS'unicodes'
p9
(tsS'width'
p10
I1285
sS'contours'
p11
(tsS'components'
p12
(tsS'anchors'
p13
(tsss."
LayerCount: 2
Fore
SplineSet
1002 -21 m 256
 1094 -9 1122 23 1122 81 c 256
 1122 167 1061 311 1060 537 c 258
 1059 889 l 257
 1146 889 l 258
 1207 889 1239 933 1239 989 c 256
 1239 1046 1205 1085 1146 1085 c 258
 206 1085 l 258
 136 1085 101 1038 101 989 c 256
 101 932 139 889 209 889 c 258
 292 889 l 257
 292 605 209 321 129 112 c 256
 124 99 122 86 122 75 c 256
 122 17 182 -20 246 -20 c 256
 302 -20 361 8 388 75 c 256
 453 232 511 596 517 889 c 257
 830 889 l 257
 830 508 l 258
 830 90 860 -23 971 -23 c 256
 981 -23 991 -23 1002 -21 c 256
EndSplineSet
EndChar

StartChar: plus
Encoding: 43 43 317
Width: 1308
VWidth: 0
GlyphClass: 2
Flags: W
LayerCount: 2
Fore
SplineSet
654 3 m 256
 719 3 743 62 743 112 c 258
 743 413 l 257
 1061 413 l 258
 1118 413 1169 443 1169 503 c 256
 1169 569 1110 592 1061 592 c 258
 743 592 l 257
 743 895 l 258
 743 953 714 1006 654 1006 c 256
 586 1006 564 945 564 895 c 258
 564 592 l 257
 247 592 l 258
 187 592 140 562 140 503 c 256
 140 437 196 413 247 413 c 258
 564 413 l 257
 564 112 l 258
 564 48 595 3 654 3 c 256
EndSplineSet
EndChar

StartChar: plusminus
Encoding: 177 177 318
Width: 1309
VWidth: 0
GlyphClass: 2
Flags: W
LayerCount: 2
Fore
SplineSet
653 247 m 256
 698 247 743 277 743 334 c 258
 743 536 l 257
 1075 536 l 258
 1134 536 1167 575 1167 624 c 256
 1167 677 1133 713 1075 713 c 258
 743 713 l 257
 743 904 l 258
 743 968 704 1003 654 1003 c 256
 603 1003 566 963 566 904 c 258
 566 713 l 257
 237 713 l 258
 174 713 143 675 143 624 c 256
 143 573 176 536 235 536 c 258
 566 536 l 257
 566 346 l 258
 566 280 604 247 653 247 c 256
233 0 m 258
 1072 0 l 258
 1134 0 1167 38 1167 88 c 256
 1167 135 1138 177 1080 177 c 258
 237 177 l 258
 174 177 143 139 143 88 c 256
 143 38 175 0 233 0 c 258
EndSplineSet
EndChar

StartChar: product
Encoding: 8719 8719 319
Width: 1562
VWidth: 0
GlyphClass: 2
Flags: W
LayerCount: 2
Fore
SplineSet
413 0 m 256
 472 0 531 40 531 121 c 258
 531 1239 l 257
 1041 1239 l 257
 1041 118 l 258
 1041 39 1100 0 1160 0 c 256
 1219 0 1279 39 1279 118 c 258
 1280 1239 l 257
 1402 1239 l 258
 1460 1239 1489 1292 1489 1345 c 256
 1489 1398 1460 1451 1402 1451 c 258
 161 1451 l 258
 98 1451 68 1398 68 1345 c 256
 68 1292 98 1239 157 1239 c 258
 293 1239 l 257
 293 121 l 258
 293 41 353 0 413 0 c 256
EndSplineSet
EndChar

StartChar: q
Encoding: 113 113 320
Width: 1226
VWidth: 0
GlyphClass: 2
Flags: W
PickledData: "(dp1
S'b'
(dp2
sS'anchors'
p3
(tsS'lib'
p4
(dp5
sS'unicodes'
p6
(tsS'width'
p7
I1207
sS'contours'
p8
(tsS'components'
p9
(tsS'com.typemytype.robofont.layerData'
p10
(dp11
S'b'
(dp12
S'name'
p13
S'p'
sg4
(dp14
sg6
(tsg7
I1181
sg8
(tsg9
(tsg3
(tsssg13
S'p'
s."
LayerCount: 2
Fore
SplineSet
970 -379 m 256
 1040 -379 1094 -332 1094 -243 c 258
 1094 860 l 258
 1094 950 1036 1003 967 1003 c 256
 894 1003 844 962 844 878 c 258
 844 843 l 257
 776 965 661 1017 513 1017 c 256
 240 1017 80 789 80 496 c 256
 80 180 259 -12 527 -12 c 256
 674 -12 779 42 843 149 c 257
 843 -243 l 258
 843 -332 899 -379 970 -379 c 256
580 158 m 256
 391 158 328 330 328 498 c 256
 328 648 384 848 578 848 c 256
 777 848 842 718 842 500 c 256
 842 314 767 158 580 158 c 256
EndSplineSet
EndChar

StartChar: question
Encoding: 63 63 321
Width: 1051
VWidth: 0
GlyphClass: 2
Flags: W
LayerCount: 2
Fore
SplineSet
307 474 m 257
 310 404 367 370 425 370 c 256
 484 370 544 406 543 474 c 258
 542 539 l 258
 539 693 937 761 937 1085 c 256
 937 1358 732 1469 489 1469 c 256
 392 1469 284 1456 185 1428 c 256
 124 1410 99 1365 99 1323 c 256
 99 1260 138 1214 194 1214 c 256
 243 1214 347 1239 426 1239 c 256
 537 1239 642 1201 642 1063 c 256
 642 851 302 765 306 555 c 257
 307 474 l 257
427 -42 m 256
 512 -42 572 23 572 100 c 256
 572 180 507 240 427 240 c 256
 339 240 283 173 283 100 c 256
 283 23 342 -42 427 -42 c 256
EndSplineSet
EndChar

StartChar: quotedbl
Encoding: 34 34 323
Width: 791
VWidth: 0
GlyphClass: 2
Flags: W
LayerCount: 2
Fore
SplineSet
228 951 m 256
 263 951 296 979 302 1042 c 258
 333 1388 l 257
 335 1449 282 1477 229 1477 c 256
 176 1477 122 1446 123 1390 c 256
 123 1388 130 1280 154 1036 c 256
 159 977 194 951 228 951 c 256
555 951 m 256
 591 951 625 978 630 1042 c 258
 661 1388 l 257
 662 1448 609 1477 557 1477 c 256
 503 1477 450 1446 451 1390 c 256
 451 1388 459 1280 483 1036 c 256
 488 977 522 951 555 951 c 256
EndSplineSet
EndChar

StartChar: quotedblbase
Encoding: 8222 8222 324
Width: 1164
VWidth: 0
GlyphClass: 2
Flags: W
PickledData: "(dp1
S'b'
(dp2
sS'anchors'
p3
(tsS'lib'
p4
(dp5
sS'unicodes'
p6
(tsS'width'
p7
I1161
sS'contours'
p8
(tsS'components'
p9
(tsS'com.typemytype.robofont.layerData'
p10
(dp11
S'b'
(dp12
S'name'
p13
S'quotedblbase'
p14
sg4
(dp15
sg6
(tsg7
I1146
sg8
(tsg9
(tsg3
(tsssg13
S'quotedblbase'
p16
s."
LayerCount: 2
Fore
SplineSet
227 -279 m 258
 317 -279 l 257
 320 -279 l 258
 347 -279 362 -267 373 -236 c 258
 554 244 l 258
 555 248 557 255 557 262 c 256
 557 279 549 299 520 300 c 257
 360 300 l 257
 328 299 295 291 287 244 c 258
 203 -236 l 258
 202 -239 202 -243 202 -248 c 256
 202 -261 206 -278 227 -279 c 258
664 -279 m 258
 754 -279 l 257
 757 -279 l 258
 784 -279 799 -267 810 -236 c 258
 991 244 l 258
 992 248 994 255 994 262 c 256
 994 279 986 299 957 300 c 257
 797 300 l 257
 765 299 732 291 724 244 c 258
 640 -236 l 258
 639 -239 639 -243 639 -248 c 256
 639 -262 643 -279 664 -279 c 258
EndSplineSet
EndChar

StartChar: quotedblleft
Encoding: 8220 8220 325
Width: 1164
VWidth: 0
GlyphClass: 2
Flags: W
PickledData: "(dp1
S'b'
(dp2
sS'anchors'
p3
(tsS'lib'
p4
(dp5
sS'unicodes'
p6
(tsS'width'
p7
I1161
sS'contours'
p8
(tsS'components'
p9
(tsS'com.typemytype.robofont.layerData'
p10
(dp11
S'b'
(dp12
S'name'
p13
S'quotedblleft'
p14
sg4
(dp15
sg6
(tsg7
I1146
sg8
(tsg9
(tsg3
(tsssg13
S'quotedblleft'
p16
s."
LayerCount: 2
Fore
SplineSet
188 874 m 258
 348 874 l 258
 380 874 413 883 421 930 c 258
 505 1409 l 258
 507 1421 509 1452 481 1452 c 258
 391 1452 l 258
 362 1452 346 1441 335 1409 c 257
 154 930 l 258
 153 926 151 919 151 912 c 256
 151 895 159 874 188 874 c 258
635 874 m 258
 795 874 l 258
 827 874 860 883 868 930 c 258
 952 1409 l 258
 953 1412 953 1416 953 1421 c 256
 953 1435 949 1452 928 1452 c 258
 838 1452 l 258
 809 1452 793 1441 782 1409 c 257
 601 930 l 258
 600 926 598 919 598 912 c 256
 598 895 606 874 635 874 c 258
EndSplineSet
EndChar

StartChar: quotedblright
Encoding: 8221 8221 326
Width: 1164
VWidth: 0
GlyphClass: 2
Flags: W
PickledData: "(dp1
S'b'
(dp2
sS'anchors'
p3
(tsS'lib'
p4
(dp5
sS'unicodes'
p6
(tsS'width'
p7
I1161
sS'contours'
p8
(tsS'components'
p9
(tsS'com.typemytype.robofont.layerData'
p10
(dp11
S'b'
(dp12
S'name'
p13
S'quotedblright'
p14
sg4
(dp15
sg6
(tsg7
I1146
sg8
(tsg9
(tsg3
(tsssg13
S'quotedblright'
p16
s."
LayerCount: 2
Fore
SplineSet
220 874 m 258
 310 874 l 257
 313 874 l 258
 340 874 355 886 366 917 c 258
 547 1396 l 258
 548 1400 550 1407 550 1414 c 256
 550 1431 542 1451 513 1452 c 257
 353 1452 l 257
 321 1451 288 1443 280 1396 c 258
 196 917 l 258
 195 914 195 910 195 905 c 256
 195 892 199 875 220 874 c 258
658 874 m 258
 748 874 l 257
 751 874 l 258
 778 874 793 886 804 917 c 258
 985 1396 l 258
 986 1400 988 1407 988 1414 c 256
 988 1431 980 1451 951 1452 c 257
 791 1452 l 257
 759 1451 726 1443 718 1396 c 258
 634 917 l 258
 633 914 633 910 633 905 c 256
 633 891 637 874 658 874 c 258
EndSplineSet
EndChar

StartChar: quoteleft
Encoding: 8216 8216 327
Width: 622
VWidth: 0
GlyphClass: 2
Flags: W
PickledData: "(dp1
S'b'
(dp2
sS'anchors'
p3
(tsS'lib'
p4
(dp5
sS'unicodes'
p6
(tsS'width'
p7
I615
sS'contours'
p8
(tsS'components'
p9
(tsS'com.typemytype.robofont.layerData'
p10
(dp11
S'b'
(dp12
S'name'
p13
S'quoteleft'
p14
sg4
(dp15
sg6
(tsg7
I584
sg8
(tsg9
(tsg3
(tsssg13
S'quoteleft'
p16
s."
LayerCount: 2
Fore
SplineSet
142 874 m 258
 302 874 l 258
 334 874 367 883 375 930 c 258
 459 1409 l 258
 460 1412 460 1416 460 1421 c 256
 460 1435 456 1452 435 1452 c 258
 345 1452 l 258
 316 1452 300 1441 289 1409 c 257
 108 930 l 258
 107 926 105 919 105 912 c 256
 105 895 113 874 142 874 c 258
EndSplineSet
EndChar

StartChar: quoteright
Encoding: 8217 8217 328
Width: 622
VWidth: 0
GlyphClass: 2
Flags: W
PickledData: "(dp1
S'b'
(dp2
sS'anchors'
p3
(tsS'lib'
p4
(dp5
sS'unicodes'
p6
(tsS'width'
p7
I615
sS'contours'
p8
(tsS'components'
p9
(tsS'com.typemytype.robofont.layerData'
p10
(dp11
S'b'
(dp12
S'name'
p13
S'quoteright'
p14
sg4
(dp15
sg6
(tsg7
I584
sg8
(tsg9
(tsg3
(tsssg13
S'quoteright'
p16
s."
LayerCount: 2
Fore
SplineSet
161 874 m 258
 251 874 l 258
 280 874 296 885 307 917 c 257
 488 1396 l 258
 489 1400 491 1407 491 1414 c 256
 491 1431 483 1452 454 1452 c 258
 294 1452 l 258
 262 1452 229 1443 221 1396 c 258
 137 917 l 258
 136 914 136 910 136 905 c 256
 136 891 140 874 161 874 c 258
EndSplineSet
EndChar

StartChar: quotesinglbase
Encoding: 8218 8218 329
Width: 622
VWidth: 0
GlyphClass: 2
Flags: W
PickledData: "(dp1
S'com.typemytype.robofont.layerData'
p2
(dp3
S'b'
(dp4
S'name'
p5
S'quotesinglbase'
p6
sS'lib'
p7
(dp8
sS'unicodes'
p9
(tsS'width'
p10
I615
sS'contours'
p11
(tsS'components'
p12
(tsS'anchors'
p13
(tsss."
LayerCount: 2
Fore
SplineSet
161 -319 m 258
 251 -319 l 258
 280 -319 295 -308 307 -276 c 258
 488 204 l 258
 489 208 491 215 491 222 c 256
 491 239 483 260 454 260 c 258
 294 260 l 258
 262 260 229 251 221 204 c 258
 137 -276 l 258
 136 -279 136 -283 136 -288 c 256
 136 -301 140 -318 161 -319 c 258
EndSplineSet
EndChar

StartChar: quotesingle
Encoding: 39 39 330
Width: 622
VWidth: 0
GlyphClass: 2
Flags: W
LayerCount: 2
Fore
SplineSet
307 942 m 256
 342 942 377 965 383 1024 c 258
 415 1390 l 257
 416 1450 364 1477 310 1477 c 256
 257 1477 203 1448 204 1392 c 256
 204 1390 211 1267 236 1023 c 256
 241 967 272 942 307 942 c 256
EndSplineSet
EndChar

StartChar: r
Encoding: 114 114 331
Width: 775
VWidth: 0
GlyphClass: 2
Flags: W
PickledData: "(dp1
S'b'
(dp2
sS'anchors'
p3
(tsS'lib'
p4
(dp5
sS'unicodes'
p6
(tsS'width'
p7
I763
sS'contours'
p8
(tsS'components'
p9
(tsS'com.typemytype.robofont.layerData'
p10
(dp11
S'b'
(dp12
S'name'
p13
S'r'
sg4
(dp14
sg6
(tsg7
I715
sg8
(tsg9
(tsg3
(tsssg13
S'r'
s."
AnchorPoint: "bot" 258 0 basechar 0
AnchorPoint: "top" 362 1001 basechar 0
LayerCount: 2
Fore
SplineSet
258 0 m 256
 329 0 385 45 385 135 c 258
 385 557 l 258
 385 755 523 793 665 793 c 256
 719 793 750 846 750 899 c 256
 750 952 720 1005 654 1005 c 256
 524 1005 416 901 382 786 c 257
 385 889 l 257
 386 964 323 1003 260 1003 c 256
 197 1003 133 964 133 883 c 258
 133 137 l 258
 133 46 189 0 258 0 c 256
EndSplineSet
EndChar

StartChar: radical
Encoding: 8730 8730 333
Width: 1382
VWidth: 0
GlyphClass: 2
Flags: W
LayerCount: 2
Fore
SplineSet
281 606 m 256
 203 606 139 545 139 471 c 256
 139 442 146 421 159 398 c 257
 344 108 l 257
 431 -24 465 -85 578 -85 c 256
 700 -85 765 -4 824 171 c 257
 1283 1401 l 258
 1290 1422 1293 1442 1293 1460 c 256
 1293 1540 1227 1589 1159 1589 c 256
 1117 1589 1049 1558 1021 1475 c 257
 573 249 l 257
 569 249 l 257
 406 521 l 257
 373 581 328 606 281 606 c 256
EndSplineSet
EndChar

StartChar: registered
Encoding: 174 174 336
Width: 1705
VWidth: 0
GlyphClass: 2
Flags: W
LayerCount: 2
Fore
SplineSet
655 377 m 256
 693 377 724 407 724 453 c 258
 724 711 l 257
 850 711 l 257
 1034 408 l 258
 1046 387 1066 378 1086 378 c 256
 1121 378 1156 404 1156 441 c 256
 1156 452 1153 464 1146 476 c 258
 984 714 l 257
 1112 731 1204 782 1204 922 c 256
 1204 1079 1118 1139 904 1139 c 258
 671 1139 l 258
 614 1139 588 1102 588 1046 c 258
 588 443 l 258
 588 397 620 377 655 377 c 256
724 823 m 257
 724 1026 l 257
 899 1026 l 258
 994 1026 1063 1007 1063 930 c 256
 1063 836 994 822 901 822 c 256
 867 822 810 824 765 824 c 256
 750 824 736 823 724 823 c 257
856 195 m 256
 524 195 280 439 280 755 c 256
 280 1077 528 1315 856 1315 c 256
 1187 1315 1431 1070 1431 755 c 256
 1431 434 1182 195 856 195 c 256
856 65 m 256
 1255 65 1578 379 1578 755 c 256
 1578 1141 1250 1451 856 1451 c 256
 456 1451 131 1134 131 755 c 256
 131 376 459 65 856 65 c 256
EndSplineSet
EndChar

StartChar: ring
Encoding: 730 730 337
Width: 569
VWidth: 0
GlyphClass: 4
Flags: W
AnchorPoint: "top" 285 1040 mark 0
LayerCount: 2
Fore
SplineSet
283 1290 m 256
 222 1290 179 1331 179 1390 c 256
 179 1449 222 1491 283 1491 c 256
 343 1491 387 1449 387 1390 c 256
 387 1331 343 1290 283 1290 c 256
283 1182 m 256
 406 1182 493 1268 493 1390 c 256
 493 1512 406 1598 283 1598 c 256
 159 1598 72 1512 72 1390 c 256
 72 1268 159 1182 283 1182 c 256
EndSplineSet
EndChar

StartChar: s
Encoding: 115 115 338
Width: 1001
VWidth: 0
GlyphClass: 2
Flags: W
PickledData: "(dp1
S'b'
(dp2
sS'anchors'
p3
(tsS'lib'
p4
(dp5
sS'unicodes'
p6
(tsS'width'
p7
F1006.76
sS'contours'
p8
(tsS'components'
p9
(tsS'com.typemytype.robofont.layerData'
p10
(dp11
S'b'
(dp12
S'name'
p13
S's'
sg4
(dp14
sg6
(tsg7
I1007
sg8
(tsg9
(tsg3
(tsssg13
S's'
s."
AnchorPoint: "bot" 506 0 basechar 0
AnchorPoint: "top" 509 1004 basechar 0
LayerCount: 2
Fore
SplineSet
134 101 m 256
 215 42 348 -15 526 -15 c 256
 755 -15 931 88 931 300 c 256
 931 468 829 548 621 600 c 258
 467 639 l 257
 358 664 325 686 325 750 c 256
 325 826 419 854 510 854 c 256
 620 854 718 814 763 798 c 256
 777 793 790 790 802 790 c 256
 849 790 877 827 877 867 c 256
 877 897 860 929 823 947 c 256
 755 980 642 1022 495 1022 c 256
 264 1022 96 926 96 738 c 256
 96 546 215 499 423 443 c 257
 579 403 l 258
 676 379 718 338 718 284 c 256
 718 183 610 152 504 152 c 256
 376 152 287 204 230 236 c 256
 212 246 194 251 178 251 c 256
 130 251 98 210 98 168 c 256
 98 144 109 119 134 101 c 256
EndSplineSet
EndChar

StartChar: section
Encoding: 167 167 344
Width: 1244
VWidth: 0
GlyphClass: 2
Flags: W
LayerCount: 2
Fore
SplineSet
582 -34 m 256
 830 -34 1006 75 1006 275 c 256
 1006 400 921 477 805 522 c 257
 933 573 1027 666 1027 791 c 256
 1027 1085 524 1058 524 1227 c 256
 524 1319 626 1343 710 1343 c 256
 768 1343 840 1325 897 1315 c 256
 901 1314 904 1313 908 1313 c 256
 941 1313 988 1349 988 1396 c 256
 988 1430 970 1464 924 1475 c 256
 836 1496 754 1513 660 1513 c 256
 409 1513 245 1424 245 1223 c 256
 245 1110 341 1037 431 982 c 257
 308 943 206 838 206 725 c 256
 206 407 733 466 733 288 c 256
 733 179 630 136 523 136 c 256
 433 136 358 155 295 170 c 256
 290 171 284 172 279 172 c 256
 236 172 194 131 194 87 c 256
 194 54 212 26 258 11 c 256
 352 -15 469 -34 582 -34 c 256
638 595 m 257
 546 637 437 673 437 757 c 256
 437 831 503 873 583 921 c 257
 685 878 803 848 803 762 c 256
 803 686 720 640 638 595 c 257
EndSplineSet
EndChar

StartChar: semicolon
Encoding: 59 59 345
Width: 623
VWidth: 0
GlyphClass: 2
Flags: W
LayerCount: 2
Fore
SplineSet
343 767 m 256
 430 767 488 832 488 909 c 256
 488 988 424 1049 343 1049 c 256
 256 1049 199 981 199 909 c 256
 199 827 262 767 343 767 c 256
EndSplineSet
Refer: 177 44 N 1 0 0 1 16 100 2
EndChar

StartChar: seven
Encoding: 55 55 346
Width: 1231
VWidth: 0
GlyphClass: 2
Flags: W
PickledData: "(dp1
S'com.typemytype.robofont.layerData'
p2
(dp3
S'b'
(dp4
S'name'
p5
S'seven'
p6
sS'lib'
p7
(dp8
sS'unicodes'
p9
(tsS'width'
p10
I1160
sS'contours'
p11
(tsS'components'
p12
(tsS'anchors'
p13
(tsss."
LayerCount: 2
Fore
SplineSet
486 0 m 256
 534 0 583 25 608 82 c 258
 1086 1159 l 257
 1108 1214 1123 1273 1123 1316 c 256
 1123 1400 1069 1441 964 1441 c 258
 212 1441 l 258
 135 1441 99 1387 99 1327 c 256
 99 1264 137 1213 212 1213 c 258
 811 1213 l 257
 365 222 l 257
 353 191 342 160 342 134 c 256
 342 55 412 0 486 0 c 256
EndSplineSet
EndChar

StartChar: six
Encoding: 54 54 347
Width: 1231
VWidth: 0
GlyphClass: 2
Flags: W
PickledData: "(dp1
S'com.typemytype.robofont.layerData'
p2
(dp3
S'b'
(dp4
S'name'
p5
S'nine'
p6
sS'lib'
p7
(dp8
sS'unicodes'
p9
(tsS'width'
p10
I1160
sS'contours'
p11
(tsS'components'
p12
(tsS'anchors'
p13
(tsss."
LayerCount: 2
Fore
SplineSet
643 -22 m 256
 964 -22 1164 179 1164 462 c 256
 1164 739 956 917 689 917 c 256
 522 917 401 849 365 775 c 257
 365 1052 422 1258 703 1258 c 256
 778 1258 863 1238 952 1205 c 256
 961 1202 969 1200 977 1200 c 256
 1031 1200 1072 1268 1072 1328 c 256
 1072 1364 1058 1397 1023 1412 c 256
 927 1458 813 1483 707 1483 c 256
 207 1483 77 1101 77 650 c 256
 77 277 229 -22 643 -22 c 256
648 726 m 256
 818 726 894 616 894 454 c 256
 894 280 798 193 632 193 c 256
 480 193 380 290 380 448 c 256
 380 623 474 726 648 726 c 256
EndSplineSet
EndChar

StartChar: slash
Encoding: 47 47 348
Width: 771
VWidth: 0
GlyphClass: 2
Flags: W
LayerCount: 2
Fore
SplineSet
150 -133 m 256
 184 -133 217 -116 232 -72 c 258
 702 1319 l 258
 707 1335 711 1353 711 1369 c 256
 711 1424 666 1455 621 1455 c 256
 583 1455 548 1426 533 1376 c 257
 69 2 l 257
 64 -16 60 -34 60 -49 c 256
 60 -102 106 -133 150 -133 c 256
EndSplineSet
EndChar

StartChar: slashbar
Encoding: 65541 -1 349
Width: 600
VWidth: 0
GlyphClass: 2
Flags: W
LayerCount: 2
Fore
SplineSet
73 588 m 258
 735 812 l 258
 777 826 794 858 794 890 c 256
 794 936 759 983 709 983 c 256
 700 983 691 981 681 978 c 258
 22 760 l 258
 -22 745 -41 711 -41 676 c 256
 -41 630 -7 583 43 583 c 256
 52 583 62 584 73 588 c 258
EndSplineSet
EndChar

StartChar: sterling
Encoding: 163 163 351
Width: 1384
VWidth: 0
GlyphClass: 2
Flags: W
PickledData: "(dp1
S'com.typemytype.robofont.layerData'
p2
(dp3
S'b'
(dp4
S'name'
p5
S'sterling'
p6
sS'lib'
p7
(dp8
sS'unicodes'
p9
(tsS'width'
p10
I1361
sS'contours'
p11
(tsS'components'
p12
(tsS'anchors'
p13
(tsss."
LayerCount: 2
Fore
SplineSet
231 -1 m 258
 1103 -1 l 258
 1144 -1 1164 54 1164 109 c 256
 1164 164 1144 219 1103 219 c 258
 562 219 l 257
 562 702 l 257
 875 702 l 258
 918 702 937 745 937 790 c 256
 937 840 914 893 878 893 c 258
 562 893 l 257
 562 979 l 258
 562 1182 580 1259 759 1259 c 256
 843 1259 944 1242 1024 1225 c 256
 1026 1224 1029 1224 1031 1224 c 256
 1070 1224 1093 1302 1093 1356 c 256
 1093 1382 1088 1403 1076 1407 c 256
 1006 1432 863 1465 736 1465 c 256
 455 1465 300 1324 300 1055 c 258
 300 893 l 257
 194 893 l 258
 158 893 142 850 142 805 c 256
 142 755 161 702 194 702 c 258
 300 702 l 257
 300 216 l 257
 229 216 l 258
 192 216 174 163 174 109 c 256
 174 54 193 -1 231 -1 c 258
EndSplineSet
EndChar

StartChar: summation
Encoding: 8721 8721 352
Width: 1230
VWidth: 0
GlyphClass: 2
Flags: W
LayerCount: 2
Fore
SplineSet
125 -201 m 258
 1182 -201 l 258
 1251 -201 1284 -152 1284 -94 c 256
 1284 -28 1243 13 1176 13 c 258
 360 13 l 257
 871 651 l 257
 404 1249 l 257
 1138 1249 l 258
 1206 1249 1243 1292 1243 1349 c 256
 1243 1406 1208 1450 1144 1450 c 258
 161 1450 l 258
 82 1450 52 1414 52 1367 c 256
 52 1335 66 1300 86 1274 c 258
 597 621 l 257
 61 -41 l 257
 44 -64 29 -96 29 -126 c 256
 29 -163 55 -201 125 -201 c 258
EndSplineSet
EndChar

StartChar: t
Encoding: 116 116 353
Width: 786
VWidth: 0
GlyphClass: 2
Flags: W
PickledData: "(dp1
S'b'
(dp2
sS'anchors'
p3
(tsS'lib'
p4
(dp5
sS'unicodes'
p6
(tsS'width'
p7
I768
sS'contours'
p8
(tsS'components'
p9
(tsS'com.typemytype.robofont.layerData'
p10
(dp11
S'b'
(dp12
S'name'
p13
S't'
sg4
(dp14
sg6
(tsg7
I706
sg8
((dp15
S'points'
p16
((dp17
S'segmentType'
p18
S'curve'
p19
sS'x'
I317
sS'smooth'
p20
I1
sS'y'
I0
s(dp21
S'y'
I0
sS'x'
I358
sg20
I0
s(dp22
S'y'
I27
sS'x'
I398
sg20
I0
s(dp23
g18
S'curve'
p24
sS'x'
I398
sg20
I1
sS'y'
I79
s(dp25
g18
S'line'
p26
sS'x'
I398
sg20
I0
sS'y'
I876
s(dp27
g18
S'line'
p28
sS'x'
I578
sg20
I1
sS'y'
I876
s(dp29
S'y'
I876
sS'x'
I621
sg20
I0
s(dp30
S'y'
I897
sS'x'
I634
sg20
I0
s(dp31
g18
S'curve'
p32
sS'x'
I634
sg20
I1
sS'y'
I928
s(dp33
S'y'
I957
sS'x'
I634
sg20
I0
s(dp34
S'y'
I981
sS'x'
I621
sg20
I0
s(dp35
g18
S'curve'
p36
sS'x'
I578
sg20
I1
sS'y'
I981
s(dp37
g18
S'line'
p38
sS'x'
I398
sg20
I0
sS'y'
I981
s(dp39
g18
S'line'
p40
sS'x'
I398
sg20
I1
sS'y'
I1053
s(dp41
S'y'
I1285
sS'x'
I398
sg20
I0
s(dp42
S'y'
I1318
sS'x'
I432
sg20
I0
s(dp43
g18
S'curve'
p44
sS'x'
I544
sg20
I1
sS'y'
I1318
s(dp45
g18
S'line'
p46
sS'x'
I629
sg20
I1
sS'y'
I1318
s(dp47
S'y'
I1318
sS'x'
I706
sg20
I0
s(dp48
S'y'
I1438
sS'x'
I703
sg20
I0
s(dp49
g18
S'curve'
p50
sS'x'
I630
sg20
I1
sS'y'
I1438
s(dp51
g18
S'line'
p52
sS'x'
I510
sg20
I1
sS'y'
I1438
s(dp53
S'y'
I1438
sS'x'
I357
sg20
I0
s(dp54
S'y'
I1371
sS'x'
I238
sg20
I0
s(dp55
g18
S'curve'
p56
sS'x'
I238
sg20
I1
sS'y'
I1112
s(dp57
g18
S'line'
p58
sS'x'
I238
sg20
I0
sS'y'
I981
s(dp59
g18
S'line'
p60
sS'x'
I98
sg20
I1
sS'y'
I981
s(dp61
S'y'
I981
sS'x'
I55
sg20
I0
s(dp62
S'y'
I957
sS'x'
I39
sg20
I0
s(dp63
g18
S'curve'
p64
sS'x'
I39
sg20
I1
sS'y'
I928
s(dp65
S'y'
I899
sS'x'
I39
sg20
I0
s(dp66
S'y'
I876
sS'x'
I55
sg20
I0
s(dp67
g18
S'curve'
p68
sS'x'
I98
sg20
I1
sS'y'
I876
s(dp69
g18
S'line'
p70
sS'x'
I238
sg20
I0
sS'y'
I876
s(dp71
g18
S'line'
p72
sS'x'
I238
sg20
I1
sS'y'
I79
s(dp73
S'y'
I26
sS'x'
I238
sg20
I0
s(dp74
S'y'
I0
sS'x'
I278
sg20
I0
stp75
stp76
sg9
(tsg3
(tsssg13
S't'
s."
AnchorPoint: "bot" 478 4 basechar 0
AnchorPoint: "caron.alt" 382 1242 basechar 0
LayerCount: 2
Fore
SplineSet
498 -9 m 258
 520 -9 l 258
 637 -9 748 -6 748 94 c 256
 748 141 717 188 659 188 c 258
 652 188 l 257
 581 184 l 257
 570 184 l 258
 484 184 461 255 461 374 c 258
 461 829 l 257
 621 829 l 258
 681 829 708 863 708 911 c 256
 708 961 680 997 622 997 c 258
 461 997 l 257
 461 1252 l 258
 461 1332 424 1368 368 1368 c 256
 290 1368 252 1312 244 1245 c 258
 214 997 l 257
 109 997 l 258
 49 997 22 961 22 915 c 256
 22 864 53 829 112 829 c 258
 209 829 l 257
 209 312 l 258
 209 103 320 -8 498 -9 c 258
EndSplineSet
EndChar

StartChar: thorn
Encoding: 254 254 358
Width: 1217
VWidth: 0
GlyphClass: 2
Flags: W
LayerCount: 2
Fore
SplineSet
247 -341 m 256
 308 -341 372 -300 372 -217 c 258
 372 188 l 257
 456 45 583 -22 726 -22 c 256
 996 -22 1136 225 1136 508 c 256
 1136 813 985 1027 721 1027 c 256
 584 1027 444 960 376 830 c 257
 376 1274 l 258
 376 1376 323 1440 249 1440 c 256
 174 1440 124 1380 124 1296 c 258
 124 -203 l 258
 124 -294 178 -341 247 -341 c 256
644 145 m 256
 435 145 376 294 376 514 c 256
 376 706 442 856 633 856 c 256
 821 856 878 688 878 510 c 256
 878 339 835 145 644 145 c 256
EndSplineSet
EndChar

StartChar: three
Encoding: 51 51 359
Width: 1231
VWidth: 0
GlyphClass: 2
Flags: W
PickledData: "(dp1
S'com.typemytype.robofont.layerData'
p2
(dp3
S'b'
(dp4
S'name'
p5
S'three'
p6
sS'lib'
p7
(dp8
sS'unicodes'
p9
(tsS'width'
p10
I1160
sS'contours'
p11
(tsS'components'
p12
(tsS'anchors'
p13
(tsss."
LayerCount: 2
Fore
SplineSet
590 -21 m 256
 873 -21 1106 106 1106 394 c 256
 1106 579 1021 716 845 763 c 257
 988 815 1077 920 1077 1086 c 256
 1077 1332 860 1479 580 1479 c 256
 428 1479 282 1438 203 1389 c 256
 172 1370 160 1341 160 1310 c 256
 160 1251 207 1186 260 1186 c 256
 270 1186 281 1189 291 1194 c 256
 377 1236 489 1251 559 1251 c 256
 675 1251 796 1195 796 1058 c 256
 796 914 670 848 517 848 c 258
 438 848 l 258
 379 848 353 797 353 749 c 256
 353 700 378 651 438 651 c 258
 522 651 l 258
 693 651 822 556 822 407 c 256
 822 263 716 206 563 206 c 256
 447 206 357 248 298 274 c 256
 289 278 281 280 272 280 c 256
 219 280 169 214 169 152 c 256
 169 117 185 82 226 62 c 256
 314 18 429 -21 590 -21 c 256
EndSplineSet
EndChar

StartChar: threequarters
Encoding: 190 190 360
Width: 1749
VWidth: 0
GlyphClass: 2
Flags: W
PickledData: "(dp1
S'com.typemytype.robofont.layerData'
p2
(dp3
S'b'
(dp4
S'name'
p5
S'threequarters'
p6
sS'lib'
p7
(dp8
sS'unicodes'
p9
(tsS'width'
p10
I1603
sS'contours'
p11
(tsS'components'
p12
(tsS'anchors'
p13
(tsss."
LayerCount: 2
Fore
SplineSet
326 574 m 256
 493 574 614 661 614 804 c 256
 614 916 548 996 442 1019 c 257
 460 1093 596 1109 596 1207 c 256
 596 1356 475 1442 322 1442 c 256
 230 1442 75 1411 75 1343 c 256
 75 1314 98 1288 132 1288 c 256
 150 1288 241 1320 317 1320 c 256
 395 1320 463 1279 463 1204 c 256
 463 1118 392 1072 302 1071 c 257
 259 1070 l 258
 224 1069 207 1045 207 1014 c 256
 207 985 223 959 259 959 c 258
 305 959 l 258
 406 959 476 898 476 813 c 256
 476 731 415 694 324 694 c 256
 246 694 170 731 140 731 c 256
 101 731 81 703 81 675 c 256
 81 609 242 574 326 574 c 256
1428 1 m 256
 1465 1 1494 33 1494 83 c 258
 1494 181 l 257
 1560 181 l 258
 1598 181 1617 202 1617 230 c 256
 1617 258 1597 280 1558 280 c 258
 1494 280 l 257
 1494 705 l 258
 1494 793 1458 837 1397 837 c 256
 1344 837 1303 816 1266 745 c 257
 974 285 l 258
 965 271 961 256 961 241 c 256
 961 200 993 181 1042 181 c 258
 1360 181 l 257
 1360 87 l 258
 1360 32 1390 1 1428 1 c 256
630 -72 m 256
 660 -72 690 -57 702 -17 c 257
 1164 1326 l 257
 1169 1344 1174 1365 1174 1379 c 256
 1174 1429 1136 1457 1094 1457 c 256
 1060 1457 1030 1428 1016 1385 c 258
 559 50 l 257
 555 34 551 17 551 4 c 256
 551 -42 590 -72 630 -72 c 256
1095 277 m 257
 1360 709 l 257
 1360 277 l 257
 1095 277 l 257
EndSplineSet
EndChar

StartChar: uni00B3
Encoding: 179 179 361
Width: 825
VWidth: 0
GlyphClass: 2
Flags: W
PickledData: "(dp1
S'com.typemytype.robofont.layerData'
p2
(dp3
S'b'
(dp4
S'name'
p5
S'threesuperior'
p6
sS'lib'
p7
(dp8
sS'unicodes'
p9
(tsS'width'
p10
I818
sS'contours'
p11
(tsS'components'
p12
(tsS'anchors'
p13
(tsss."
LayerCount: 2
Fore
SplineSet
408 569 m 256
 575 569 696 655 696 799 c 256
 696 910 638 987 533 1014 c 257
 624 1046 678 1103 678 1201 c 256
 678 1352 565 1437 412 1437 c 256
 321 1437 157 1405 157 1339 c 256
 157 1309 179 1282 214 1282 c 256
 233 1282 314 1319 402 1319 c 256
 480 1319 545 1276 545 1198 c 256
 545 1114 474 1065 384 1065 c 258
 339 1065 l 258
 304 1065 288 1035 288 1007 c 256
 288 979 306 950 342 950 c 258
 388 950 l 258
 488 950 558 893 558 808 c 256
 558 727 496 688 407 688 c 256
 318 688 252 728 221 728 c 256
 183 728 162 698 162 669 c 256
 162 603 325 569 408 569 c 256
EndSplineSet
EndChar

StartChar: tilde
Encoding: 732 732 362
Width: 569
VWidth: 0
GlyphClass: 4
Flags: W
AnchorPoint: "top" 293 1040 mark 0
LayerCount: 2
Fore
SplineSet
8 1201 m 256
 35 1201 59 1210 77 1240 c 256
 96 1271 117 1295 150 1295 c 256
 220 1295 315 1201 419 1201 c 256
 520 1201 599 1273 607 1391 c 256
 607 1420 587 1440 563 1441 c 257
 559 1449 551 1454 540 1454 c 256
 474 1440 470 1359 421 1359 c 256
 353 1359 257 1451 143 1451 c 256
 33 1451 -27 1382 -48 1269 c 256
 -49 1265 -50 1261 -50 1256 c 256
 -50 1220 -23 1201 8 1201 c 256
EndSplineSet
EndChar

StartChar: trademark
Encoding: 8482 8482 363
Width: 1968
VWidth: 0
GlyphClass: 2
Flags: W
LayerCount: 2
Fore
SplineSet
920 649 m 256
 965 649 1001 684 1001 743 c 258
 1001 1187 l 257
 1211 719 l 257
 1226 676 1253 654 1288 654 c 256
 1325 654 1355 682 1370 724 c 257
 1578 1187 l 257
 1578 743 l 258
 1578 681 1613 649 1658 649 c 256
 1704 649 1740 685 1740 743 c 258
 1740 1255 l 258
 1740 1356 1683 1403 1616 1403 c 256
 1561 1403 1511 1363 1483 1295 c 257
 1290 870 l 257
 1097 1295 l 257
 1068 1367 1016 1404 964 1404 c 256
 889 1404 839 1343 839 1249 c 258
 839 743 l 258
 839 680 875 649 920 649 c 256
379 649 m 256
 425 649 464 684 464 742 c 258
 464 1280 l 257
 620 1280 l 258
 666 1280 690 1306 690 1342 c 256
 690 1380 662 1404 620 1404 c 258
 130 1404 l 258
 87 1404 66 1373 66 1343 c 256
 66 1306 92 1280 136 1280 c 258
 294 1280 l 257
 294 742 l 258
 294 680 333 649 379 649 c 256
EndSplineSet
EndChar

StartChar: two
Encoding: 50 50 364
Width: 1243
VWidth: 0
GlyphClass: 2
Flags: W
PickledData: "(dp1
S'com.typemytype.robofont.layerData'
p2
(dp3
S'b'
(dp4
S'name'
p5
S'two'
p6
sS'lib'
p7
(dp8
sS'unicodes'
p9
(tsS'width'
p10
I1160
sS'contours'
p11
(tsS'components'
p12
(tsS'anchors'
p13
(tsss."
LayerCount: 2
Fore
SplineSet
1083 1033 m 256
 1083 1261 894 1447 618 1447 c 256
 440 1447 310 1392 193 1323 c 256
 156 1301 141 1270 141 1240 c 256
 141 1179 200 1117 254 1117 c 256
 264 1117 274 1119 283 1124 c 256
 367 1169 434 1229 592 1229 c 256
 715 1229 820 1145 820 1018 c 256
 820 945 781 869 693 783 c 257
 175 268 l 258
 137 230 120 184 120 140 c 256
 120 66 171 0 263 0 c 258
 975 0 l 258
 1033 0 1062 55 1062 109 c 256
 1062 163 1033 216 975 216 c 258
 421 216 l 257
 844 591 l 257
 1013 739 1083 886 1083 1033 c 256
EndSplineSet
EndChar

StartChar: uni00B2
Encoding: 178 178 365
Width: 756
VWidth: 0
GlyphClass: 2
Flags: W
LayerCount: 2
Fore
SplineSet
164 603 m 258
 597 603 l 258
 639 603 660 629 660 664 c 256
 660 701 633 726 591 726 c 258
 269 726 l 257
 439 860 653 1060 653 1229 c 256
 653 1365 536 1440 383 1440 c 256
 288 1440 117 1392 117 1322 c 256
 117 1290 139 1264 171 1264 c 256
 182 1264 192 1266 201 1271 c 256
 244 1290 304 1314 363 1314 c 256
 432 1314 497 1281 497 1213 c 256
 497 1123 385 989 261 873 c 256
 166 783 79 733 79 672 c 256
 79 629 109 603 164 603 c 258
EndSplineSet
EndChar

StartChar: u
Encoding: 117 117 366
Width: 1194
VWidth: 0
GlyphClass: 2
Flags: W
PickledData: "(dp1
S'b'
(dp2
sS'anchors'
p3
(tsS'lib'
p4
(dp5
sS'unicodes'
p6
(tsS'width'
p7
I1195
sS'contours'
p8
(tsS'components'
p9
(tsS'com.typemytype.robofont.layerData'
p10
(dp11
S'b'
(dp12
S'name'
p13
S'u'
sg4
(dp14
sg6
(tsg7
I1152
sg8
((dp15
S'points'
p16
((dp17
S'segmentType'
p18
S'curve'
p19
sS'x'
I915
sS'smooth'
p20
I1
sS'y'
I991
s(dp21
S'y'
I991
sS'x'
I875
sg20
I0
s(dp22
S'y'
I965
sS'x'
I834
sg20
I0
s(dp23
g18
S'curve'
p24
sS'x'
I834
sg20
I1
sS'y'
I916
s(dp25
g18
S'line'
p26
sS'x'
I834
sg20
I0
sS'y'
I395
s(dp27
S'y'
I198
sS'x'
I821
sg20
I0
s(dp28
S'y'
I90
sS'x'
I698
sg20
I0
s(dp29
g18
S'curve'
p30
sS'x'
I542
sg20
I1
sS'y'
I90
s(dp31
S'y'
I90
sS'x'
I385
sg20
I0
s(dp32
S'y'
I187
sS'x'
I306
sg20
I0
s(dp33
g18
S'curve'
p34
sS'x'
I306
sg20
I1
sS'y'
I367
s(dp35
g18
S'line'
p36
sS'x'
I306
sg20
I1
sS'y'
I916
s(dp37
S'y'
I967
sS'x'
I306
sg20
I0
s(dp38
S'y'
I991
sS'x'
I266
sg20
I0
s(dp39
g18
S'curve'
p40
sS'x'
I226
sg20
I1
sS'y'
I991
s(dp41
S'y'
I991
sS'x'
I186
sg20
I0
s(dp42
S'y'
I967
sS'x'
I146
sg20
I0
s(dp43
g18
S'curve'
p44
sS'x'
I146
sg20
I1
sS'y'
I916
s(dp45
g18
S'line'
p46
sS'x'
I146
sg20
I1
sS'y'
I369
s(dp47
S'y'
I96
sS'x'
I146
sg20
I0
s(dp48
S'y'
S'-20'
p49
sS'x'
I294
sg20
I0
s(dp50
g18
S'curve'
p51
sS'x'
I507
sg20
I1
sS'y'
S'-20'
p52
s(dp53
S'y'
S'-20'
p54
sS'x'
I656
sg20
I0
s(dp55
S'y'
I49
sS'x'
I786
sg20
I0
s(dp56
g18
S'curve'
p57
sS'x'
I834
sg20
I0
sS'y'
I179
s(dp58
g18
S'line'
p59
sS'x'
I834
sg20
I1
sS'y'
I73
s(dp60
S'y'
I24
sS'x'
I834
sg20
I0
s(dp61
S'y'
I0
sS'x'
I874
sg20
I0
s(dp62
g18
S'curve'
p63
sS'x'
I913
sg20
I1
sS'y'
I0
s(dp64
S'y'
I0
sS'x'
I953
sg20
I0
s(dp65
S'y'
I24
sS'x'
I994
sg20
I0
s(dp66
g18
S'curve'
p67
sS'x'
I994
sg20
I1
sS'y'
I75
s(dp68
g18
S'line'
p69
sS'x'
I994
sg20
I1
sS'y'
I916
s(dp70
S'y'
I967
sS'x'
I994
sg20
I0
s(dp71
S'y'
I991
sS'x'
I955
sg20
I0
stp72
stp73
sg9
(tsg3
(tsssg13
S'u'
s."
AnchorPoint: "ogonek" 924 22 basechar 0
AnchorPoint: "top" 594 991 basechar 0
LayerCount: 2
Fore
SplineSet
484 -12 m 256
 640 -12 752 47 811 160 c 257
 811 123 l 258
 811 41 866 0 935 0 c 256
 1005 0 1062 42 1062 126 c 258
 1062 864 l 258
 1062 955 1007 1003 937 1003 c 256
 866 1003 811 955 811 864 c 258
 811 444 l 258
 811 269 692 159 563 159 c 256
 460 159 375 227 375 371 c 258
 375 864 l 258
 375 955 320 1003 252 1003 c 256
 180 1003 124 955 124 864 c 258
 124 371 l 258
 124 108 296 -12 484 -12 c 256
EndSplineSet
EndChar

StartChar: underscore
Encoding: 95 95 374
Width: 1024
VWidth: 0
GlyphClass: 2
Flags: W
LayerCount: 2
Fore
SplineSet
61 -255 m 258
 954 -255 l 258
 999 -255 1023 -227 1023 -190 c 256
 1023 -157 1002 -124 960 -124 c 258
 67 -124 l 258
 22 -124 0 -153 0 -190 c 256
 0 -223 20 -255 61 -255 c 258
EndSplineSet
EndChar

StartChar: uni00AD
Encoding: 173 173 376
Width: 754
VWidth: 0
GlyphClass: 2
Flags: W
LayerCount: 2
Fore
SplineSet
134 441 m 258
 606 441 l 258
 674 441 717 476 717 533 c 256
 717 590 674 626 606 626 c 258
 148 626 l 258
 80 626 38 590 38 533 c 256
 38 476 75 441 134 441 c 258
EndSplineSet
EndChar

StartChar: uni02C9
Encoding: 713 713 440
Width: 569
VWidth: 0
GlyphClass: 4
Flags: W
AnchorPoint: "top" 289 1040 mark 0
LayerCount: 2
Fore
SplineSet
42 1276 m 258
 529 1276 l 258
 584 1276 609 1314 609 1359 c 256
 609 1406 580 1442 529 1442 c 258
 44 1442 l 258
 -11 1442 -38 1402 -38 1359 c 256
 -38 1314 -10 1276 42 1276 c 258
EndSplineSet
EndChar

StartChar: uni0307
Encoding: 775 775 441
Width: 600
VWidth: 0
GlyphClass: 2
Flags: W
LayerCount: 2
Fore
SplineSet
323 373 m 256
 411 373 471 441 471 518 c 256
 471 598 408 662 323 662 c 256
 236 662 175 595 175 518 c 256
 175 440 235 373 323 373 c 256
EndSplineSet
EndChar

StartChar: uni03A9
Encoding: 937 937 442
Width: 1605
VWidth: 0
GlyphClass: 2
Flags: W
LayerCount: 2
Fore
SplineSet
182 0 m 258
 687 0 l 257
 573 195 398 552 398 821 c 256
 398 1028 500 1181 792 1181 c 256
 1085 1181 1187 1028 1187 821 c 256
 1187 553 1013 199 898 0 c 257
 1403 0 l 258
 1457 0 1483 47 1483 95 c 256
 1483 142 1457 189 1403 189 c 258
 1152 189 l 257
 1348 431 1488 727 1488 946 c 256
 1488 1186 1364 1460 792 1460 c 256
 242 1460 97 1184 97 946 c 256
 97 727 225 463 433 189 c 257
 182 189 l 258
 128 189 101 142 101 95 c 256
 101 47 128 0 182 0 c 258
EndSplineSet
EndChar

StartChar: uni03BC
Encoding: 956 956 443
Width: 1199
VWidth: 0
GlyphClass: 2
Flags: W
LayerCount: 2
Fore
SplineSet
250 -287 m 256
 337 -287 377 -216 377 -119 c 258
 377 502 l 257
 124 502 l 257
 124 -119 l 258
 124 -232 170 -287 250 -287 c 256
EndSplineSet
Refer: 366 117 N 1 0 0 1 0 0 2
EndChar

StartChar: afii61289
Encoding: 8467 8467 462
Width: 790
VWidth: 0
GlyphClass: 2
Flags: W
LayerCount: 2
Fore
SplineSet
535 1494 m 256
 386 1494 208 1400 207 1155 c 258
 206 814 l 257
 29 675 l 258
 14 663 7 649 7 636 c 256
 7 615 24 597 46 597 c 256
 56 597 65 599 78 609 c 258
 206 709 l 257
 206 289 l 258
 206 60 336 -17 505 -17 c 256
 583 -17 648 -14 674 -10 c 256
 706 -5 727 27 727 64 c 256
 727 109 700 138 658 138 c 258
 654 138 l 257
 589 135 l 257
 578 135 l 258
 493 135 450 183 450 334 c 258
 450 876 l 257
 675 1042 761 1132 761 1266 c 256
 761 1379 691 1494 535 1494 c 256
535 1348 m 256
 576 1348 617 1316 617 1249 c 256
 617 1149 560 1067 450 981 c 257
 450 1188 l 258
 450 1312 493 1348 535 1348 c 256
EndSplineSet
EndChar

StartChar: v
Encoding: 118 118 471
Width: 1072
VWidth: 0
GlyphClass: 2
Flags: W
PickledData: "(dp1
S'com.typemytype.robofont.layerData'
p2
(dp3
S'b'
(dp4
S'name'
p5
S'v'
sS'lib'
p6
(dp7
sS'unicodes'
p8
(tsS'width'
p9
I1027
sS'contours'
p10
((dp11
S'points'
p12
((dp13
S'segmentType'
p14
S'line'
p15
sS'x'
I518
sS'smooth'
p16
I0
sS'y'
I0
s(dp17
S'y'
I0
sS'x'
I589
sg16
I0
s(dp18
S'y'
I36
sS'x'
I618
sg16
I0
s(dp19
g14
S'curve'
p20
sS'x'
I654
sg16
I1
sS'y'
I121
s(dp21
g14
S'line'
p22
sS'x'
I979
sg16
I1
sS'y'
I890
s(dp23
S'y'
I940
sS'x'
I1000
sg16
I0
s(dp24
S'y'
I991
sS'x'
I968
sg16
I0
s(dp25
g14
S'curve'
p26
sS'x'
I907
sg16
I1
sS'y'
I991
s(dp27
S'y'
I991
sS'x'
I878
sg16
I0
s(dp28
S'y'
I975
sS'x'
I850
sg16
I0
s(dp29
g14
S'curve'
p30
sS'x'
I836
sg16
I1
sS'y'
I940
s(dp31
g14
S'line'
p32
sS'x'
I518
sg16
I0
sS'y'
I166
stp33
s(dp34
g12
((dp35
g14
S'curve'
p36
sS'x'
I518
sg16
I0
sS'y'
I0
s(dp37
g14
S'line'
p38
sS'x'
I518
sg16
I0
sS'y'
I166
s(dp39
g14
S'line'
p40
sS'x'
I200
sg16
I1
sS'y'
I940
s(dp41
S'y'
I975
sS'x'
I186
sg16
I0
s(dp42
S'y'
I991
sS'x'
I158
sg16
I0
s(dp43
g14
S'curve'
p44
sS'x'
I129
sg16
I1
sS'y'
I991
s(dp45
S'y'
I991
sS'x'
I68
sg16
I0
s(dp46
S'y'
I940
sS'x'
I36
sg16
I0
s(dp47
g14
S'curve'
p48
sS'x'
I57
sg16
I1
sS'y'
I890
s(dp49
g14
S'line'
p50
sS'x'
I382
sg16
I1
sS'y'
I121
s(dp51
S'y'
I36
sS'x'
I418
sg16
I0
s(dp52
S'y'
I0
sS'x'
I447
sg16
I0
stp53
stp54
sS'components'
p55
(tsS'anchors'
p56
(tsss."
LayerCount: 2
Fore
SplineSet
539 -6 m 256
 649 -6 696 47 751 194 c 257
 1018 841 l 258
 1025 858 1028 876 1028 891 c 256
 1028 959 969 1006 910 1006 c 256
 867 1006 823 981 801 921 c 257
 539 254 l 257
 277 921 l 257
 255 981 211 1006 168 1006 c 256
 109 1006 50 959 50 891 c 256
 50 876 53 858 60 841 c 258
 326 194 l 257
 381 47 428 -6 539 -6 c 256
EndSplineSet
EndChar

StartChar: w
Encoding: 119 119 472
Width: 1711
VWidth: 0
GlyphClass: 2
Flags: W
PickledData: "(dp1
S'b'
(dp2
sS'anchors'
p3
(tsS'lib'
p4
(dp5
sS'unicodes'
p6
(tsS'width'
p7
I1742
sS'contours'
p8
(tsS'components'
p9
(tsS'com.typemytype.robofont.layerData'
p10
(dp11
S'b'
(dp12
S'name'
p13
S'w'
sg4
(dp14
sg6
(tsg7
I1699
sg8
((dp15
S'points'
p16
((dp17
S'segmentType'
p18
S'curve'
p19
sS'x'
I477
sS'smooth'
p20
I1
sS'y'
I0
s(dp21
S'y'
I0
sS'x'
I524
sg20
I0
s(dp22
S'y'
I30
sS'x'
I564
sg20
I0
s(dp23
g18
S'curve'
p24
sS'x'
I588
sg20
I0
sS'y'
I96
s(dp25
g18
S'line'
p26
sS'x'
I859
sg20
I0
sS'y'
I839
s(dp27
g18
S'line'
p28
sS'x'
I859
sg20
I0
sS'y'
I991
s(dp29
S'y'
I991
sS'x'
I808
sg20
I0
s(dp30
S'y'
I959
sS'x'
I771
sg20
I0
s(dp31
g18
S'curve'
p32
sS'x'
I750
sg20
I1
sS'y'
I899
s(dp33
g18
S'line'
p34
sS'x'
I488
sg20
I0
sS'y'
I173
s(dp35
g18
S'line'
p36
sS'x'
I223
sg20
I1
sS'y'
I936
s(dp37
S'y'
I974
sS'x'
I210
sg20
I0
s(dp38
S'y'
I991
sS'x'
I183
sg20
I0
s(dp39
g18
S'curve'
p40
sS'x'
I152
sg20
I1
sS'y'
I991
s(dp41
S'y'
I991
sS'x'
I112
sg20
I0
s(dp42
S'y'
I962
sS'x'
I79
sg20
I0
s(dp43
g18
S'curve'
p44
sS'x'
I79
sg20
I1
sS'y'
I916
s(dp45
S'y'
I909
sS'x'
I79
sg20
I0
s(dp46
S'y'
I899
sS'x'
I81
sg20
I0
s(dp47
g18
S'curve'
p48
sS'x'
I84
sg20
I0
sS'y'
I888
s(dp49
g18
S'line'
p50
sS'x'
I372
sg20
I1
sS'y'
I88
s(dp51
S'y'
I26
sS'x'
I394
sg20
I0
s(dp52
S'y'
I0
sS'x'
I433
sg20
I0
stp53
s(dp54
g16
((dp55
g18
S'curve'
p56
sS'x'
I1241
sg20
I1
sS'y'
I0
s(dp57
S'y'
I0
sS'x'
I1285
sg20
I0
s(dp58
S'y'
I26
sS'x'
I1324
sg20
I0
s(dp59
g18
S'curve'
p60
sS'x'
I1346
sg20
I1
sS'y'
I88
s(dp61
g18
S'line'
p62
sS'x'
I1634
sg20
I0
sS'y'
I888
s(dp63
S'y'
I899
sS'x'
I1637
sg20
I0
s(dp64
S'y'
I909
sS'x'
I1639
sg20
I0
s(dp65
g18
S'curve'
p66
sS'x'
I1639
sg20
I1
sS'y'
I916
s(dp67
S'y'
I962
sS'x'
I1639
sg20
I0
s(dp68
S'y'
I991
sS'x'
I1606
sg20
I0
s(dp69
g18
S'curve'
p70
sS'x'
I1566
sg20
I1
sS'y'
I991
s(dp71
S'y'
I991
sS'x'
I1535
sg20
I0
s(dp72
S'y'
I974
sS'x'
I1508
sg20
I0
s(dp73
g18
S'curve'
p74
sS'x'
I1495
sg20
I1
sS'y'
I936
s(dp75
g18
S'line'
p76
sS'x'
I1230
sg20
I0
sS'y'
I173
s(dp77
g18
S'line'
p78
sS'x'
I968
sg20
I1
sS'y'
I899
s(dp79
S'y'
I959
sS'x'
I947
sg20
I0
s(dp80
S'y'
I991
sS'x'
I910
sg20
I0
s(dp81
g18
S'curve'
p82
sS'x'
I859
sg20
I0
sS'y'
I991
s(dp83
g18
S'line'
p84
sS'x'
I859
sg20
I0
sS'y'
I839
s(dp85
g18
S'line'
p86
sS'x'
I1130
sg20
I0
sS'y'
I96
s(dp87
S'y'
I30
sS'x'
I1154
sg20
I0
s(dp88
S'y'
I0
sS'x'
I1194
sg20
I0
stp89
stp90
sg9
(tsg3
(tsssg13
S'w'
s."
AnchorPoint: "top" 865 1013 basechar 0
LayerCount: 2
Fore
SplineSet
1249 0 m 256
 1323 0 1378 48 1413 168 c 257
 1635 852 l 258
 1639 866 1641 880 1641 893 c 256
 1641 961 1585 1001 1528 1001 c 256
 1482 1001 1436 975 1419 914 c 258
 1223 258 l 257
 1021 858 l 257
 991 953 944 1004 862 1004 c 256
 780 1004 733 953 703 858 c 257
 501 258 l 257
 305 914 l 257
 288 975 242 1001 196 1001 c 256
 139 1001 83 961 83 893 c 256
 83 880 85 866 89 852 c 258
 311 168 l 257
 346 48 401 0 475 0 c 256
 558 0 617 33 662 181 c 257
 862 769 l 257
 1062 181 l 257
 1107 33 1166 0 1249 0 c 256
EndSplineSet
EndChar

StartChar: x
Encoding: 120 120 477
Width: 1072
VWidth: 0
GlyphClass: 2
Flags: W
PickledData: "(dp1
S'com.typemytype.robofont.layerData'
p2
(dp3
S'b'
(dp4
S'name'
p5
S'x'
sS'lib'
p6
(dp7
sS'unicodes'
p8
(tsS'width'
p9
I1039
sS'contours'
p10
(tsS'components'
p11
(tsS'anchors'
p12
(tsss."
LayerCount: 2
Fore
SplineSet
873 -3 m 256
 935 -3 995 49 995 109 c 256
 995 137 984 166 964 193 c 257
 687 518 l 257
 949 830 l 257
 968 855 977 880 977 902 c 256
 977 961 930 1008 871 1008 c 256
 839 1008 810 994 783 960 c 257
 548 680 l 257
 327 939 l 257
 296 978 262 1003 226 1003 c 256
 163 1003 101 952 101 889 c 256
 101 860 113 830 133 802 c 257
 384 508 l 257
 105 178 l 257
 87 154 79 128 79 104 c 256
 79 46 130 -2 185 -2 c 256
 223 -2 252 13 279 49 c 257
 523 346 l 257
 768 60 l 257
 801 16 838 -3 873 -3 c 256
EndSplineSet
EndChar

StartChar: y
Encoding: 121 121 478
Width: 1082
VWidth: 0
GlyphClass: 2
Flags: W
PickledData: "(dp1
S'com.typemytype.robofont.layerData'
p2
(dp3
S'b'
(dp4
S'name'
p5
S'y'
sS'lib'
p6
(dp7
sS'unicodes'
p8
(tsS'width'
p9
I1029
sS'contours'
p10
((dp11
S'points'
p12
((dp13
S'segmentType'
p14
S'line'
p15
sS'x'
I502
sS'smooth'
p16
I0
sS'y'
I10
s(dp17
g14
S'line'
p18
sS'x'
I585
sg16
I0
sS'y'
I181
s(dp19
g14
S'line'
p20
sS'x'
I241
sg16
I1
sS'y'
I931
s(dp21
S'y'
I966
sS'x'
I225
sg16
I0
s(dp22
S'y'
I984
sS'x'
I201
sg16
I0
s(dp23
g14
S'curve'
p24
sS'x'
I171
sg16
I1
sS'y'
I984
s(dp25
S'y'
I984
sS'x'
I117
sg16
I0
s(dp26
S'y'
I936
sS'x'
I64
sg16
I0
s(dp27
g14
S'curve'
p28
sS'x'
I91
sg16
I0
sS'y'
I887
stp29
s(dp30
g12
((dp31
g14
S'curve'
p32
sS'x'
I365
sg16
I1
sS'y'
S'-388'
p33
s(dp34
S'y'
S'-388'
p35
sS'x'
I396
sg16
I0
s(dp36
S'y'
S'-373'
p37
sS'x'
I424
sg16
I0
s(dp38
g14
S'curve'
p39
sS'x'
I442
sg16
I1
sS'y'
S'-334'
p40
s(dp41
g14
S'line'
p42
sS'x'
I1009
sg16
I1
sS'y'
I888
s(dp43
S'y'
I898
sS'x'
I1013
sg16
I0
s(dp44
S'y'
I908
sS'x'
I1016
sg16
I0
s(dp45
g14
S'curve'
p46
sS'x'
I1016
sg16
I1
sS'y'
I918
s(dp47
S'y'
I962
sS'x'
I1018
sg16
I0
s(dp48
S'y'
I990
sS'x'
I978
sg16
I0
s(dp49
g14
S'curve'
p50
sS'x'
I938
sg16
I1
sS'y'
I990
s(dp51
S'y'
I990
sS'x'
I910
sg16
I0
s(dp52
S'y'
I977
sS'x'
I883
sg16
I0
s(dp53
g14
S'curve'
p54
sS'x'
I866
sg16
I0
sS'y'
I941
s(dp55
g14
S'line'
p56
sS'x'
I299
sg16
I1
sS'y'
S'-286'
p57
s(dp58
S'y'
S'-344'
p59
sS'x'
I272
sg16
I0
s(dp60
S'y'
S'-388'
p61
sS'x'
I316
sg16
I0
stp62
stp63
sS'components'
p64
(tsS'anchors'
p65
(tsss."
AnchorPoint: "top" 577 1030 basechar 0
LayerCount: 2
Fore
SplineSet
441 -356 m 258
 1038 839 l 258
 1048 859 1052 879 1052 897 c 256
 1052 962 996 1009 937 1009 c 256
 896 1009 853 986 826 931 c 258
 559 398 l 257
 293 922 l 258
 267 973 226 994 185 994 c 256
 123 994 63 946 63 881 c 256
 63 863 67 844 77 825 c 258
 434 147 l 257
 234 -252 l 258
 225 -270 221 -289 221 -306 c 256
 221 -373 281 -424 342 -424 c 256
 380 -424 417 -404 441 -356 c 258
EndSplineSet
EndChar

StartChar: yen
Encoding: 165 165 482
Width: 1274
VWidth: 0
GlyphClass: 2
Flags: W
LayerCount: 2
Fore
SplineSet
216 293 m 258
 1116 293 l 258
 1159 293 1179 330 1179 364 c 256
 1179 395 1158 434 1116 434 c 258
 216 434 l 258
 173 434 153 396 153 365 c 256
 153 331 173 293 216 293 c 258
216 535 m 258
 1116 535 l 258
 1159 535 1179 571 1179 605 c 256
 1179 637 1158 676 1116 676 c 258
 216 676 l 258
 173 676 153 637 153 606 c 256
 153 573 173 535 216 535 c 258
EndSplineSet
Refer: 124 89 N 1 0 0 1 0 0 2
EndChar

StartChar: z
Encoding: 122 122 484
Width: 974
VWidth: 0
GlyphClass: 2
Flags: W
AnchorPoint: "top" 516 1001 basechar 0
LayerCount: 2
Fore
SplineSet
187 0 m 258
 799 0 l 258
 866 0 901 40 901 96 c 256
 901 143 870 190 808 190 c 258
 378 190 l 257
 869 817 l 257
 890 846 904 880 904 910 c 256
 904 970 858 1004 778 1004 c 258
 193 1004 l 258
 125 1004 92 962 92 908 c 256
 92 850 129 812 193 812 c 258
 598 812 l 257
 106 189 l 258
 84 161 73 130 73 100 c 256
 73 38 119 0 187 0 c 258
EndSplineSet
EndChar

StartChar: zero
Encoding: 48 48 488
Width: 1244
VWidth: 0
GlyphClass: 2
Flags: W
LayerCount: 2
Fore
SplineSet
622 197 m 256
 398 197 365 460 365 728 c 256
 365 996 398 1252 622 1252 c 256
 846 1252 879 995 879 728 c 256
 879 459 845 197 622 197 c 256
622 -26 m 256
 1034 -26 1162 338 1162 728 c 256
 1162 1120 1032 1474 622 1474 c 256
 207 1474 81 1116 81 728 c 256
 81 336 209 -26 622 -26 c 256
EndSplineSet
EndChar

StartChar: uni0358
Encoding: 856 856 491
Width: 600
VWidth: 0
GlyphClass: 2
Flags: W
LayerCount: 2
Fore
SplineSet
323 373 m 256
 411 373 471 441 471 518 c 256
 471 598 408 662 323 662 c 256
 236 662 175 595 175 518 c 256
 175 440 235 373 323 373 c 256
EndSplineSet
EndChar

